SeanSans-NormalThin.ufo
<glyph name="quotedbl" format="1">
  <advance width="369"/>
  <unicode hex="0022"/>
  <outline>
    <contour>
      <point x="106" y="612" type="line"/>
      <point x="109" y="800" type="line"/>
      <point x="78" y="800" type="line"/>
      <point x="81" y="612" type="line"/>
    </contour>
    <contour>
      <point x="289" y="612" type="line"/>
      <point x="292" y="800" type="line"/>
      <point x="261" y="800" type="line"/>
      <point x="264" y="612" type="line"/>
    </contour>
  </outline>
</glyph>
<glyph name="numbersign" format="1">
  <advance width="690"/>
  <unicode hex="0023"/>
  <outline>
    <contour>
      <point x="47" y="247" type="curve"/>
      <point x="559" y="247" type="curve"/>
      <point x="565" y="270" type="curve"/>
      <point x="54" y="270" type="curve"/>
    </contour>
    <contour>
      <point x="122" y="491" type="curve"/>
      <point x="635" y="491" type="curve"/>
      <point x="641" y="513" type="curve"/>
      <point x="129" y="513" type="curve"/>
    </contour>
    <contour>
      <point x="397" y="39" type="curve"/>
      <point x="623" y="722" type="curve"/>
      <point x="598" y="722" type="curve"/>
      <point x="371" y="39" type="curve"/>
    </contour>
    <contour>
      <point x="114" y="46" type="curve"/>
      <point x="336" y="722" type="curve"/>
      <point x="310" y="722" type="curve"/>
      <point x="89" y="46" type="curve"/>
    </contour>
  </outline>
</glyph>
<glyph name="dollar" format="1">
  <advance width="556"/>
  <unicode hex="0024"/>
  <outline>
    <contour>
      <point x="272" y="-43" type="curve"/>
      <point x="272" y="-9"/>
      <point x="272" y="25"/>
      <point x="272" y="59" type="curve"/>
      <point x="246" y="59"/>
      <point x="272" y="59"/>
      <point x="246" y="59" type="curve"/>
      <point x="246" y="25"/>
      <point x="246" y="-9"/>
      <point x="246" y="-43" type="curve"/>
      <point x="272" y="-43"/>
      <point x="246" y="-43"/>
    </contour>
    <contour>
      <point x="284" y="671" type="curve"/>
      <point x="284" y="705"/>
      <point x="284" y="739"/>
      <point x="284" y="773" type="curve"/>
      <point x="259" y="773"/>
      <point x="284" y="773"/>
      <point x="259" y="773" type="curve"/>
      <point x="259" y="739"/>
      <point x="259" y="705"/>
      <point x="259" y="671" type="curve"/>
      <point x="284" y="671"/>
      <point x="259" y="671"/>
    </contour>
    <contour>
      <point x="55" y="99" type="curve"/>
      <point x="111" y="72"/>
      <point x="179" y="48"/>
      <point x="258" y="48" type="curve"/>
      <point x="390" y="48"/>
      <point x="496" y="91"/>
      <point x="496" y="198" type="curve"/>
      <point x="496" y="302"/>
      <point x="391" y="340"/>
      <point x="281" y="385" type="curve"/>
      <point x="185" y="426"/>
      <point x="106" y="456"/>
      <point x="106" y="543" type="curve"/>
      <point x="106" y="622"/>
      <point x="180" y="661"/>
      <point x="277" y="661" type="curve"/>
      <point x="351" y="661"/>
      <point x="402" y="644"/>
      <point x="466" y="612" type="curve"/>
      <point x="479" y="631"/>
      <point x="466" y="612"/>
      <point x="479" y="631" type="curve"/>
      <point x="412" y="665"/>
      <point x="356" y="683"/>
      <point x="278" y="683" type="curve"/>
      <point x="164" y="683"/>
      <point x="80" y="637"/>
      <point x="80" y="543" type="curve"/>
      <point x="80" y="444"/>
      <point x="164" y="408"/>
      <point x="267" y="365" type="curve"/>
      <point x="369" y="324"/>
      <point x="471" y="289"/>
      <point x="471" y="197" type="curve"/>
      <point x="471" y="108"/>
      <point x="377" y="70"/>
      <point x="260" y="70" type="curve"/>
      <point x="186" y="70"/>
      <point x="122" y="95"/>
      <point x="68" y="119" type="curve"/>
      <point x="55" y="99"/>
      <point x="68" y="119"/>
    </contour>
  </outline>
</glyph>
<glyph name="percent" format="1">
  <advance width="1070"/>
  <unicode hex="0025"/>
  <outline>
    <contour>
      <point x="344" y="-92" type="line"/>
      <point x="790" y="756" type="line"/>
      <point x="761" y="756" type="line"/>
      <point x="316" y="-92" type="line"/>
    </contour>
    <contour>
      <point x="67" y="554" type="curve"/>
      <point x="67" y="663"/>
      <point x="115" y="739"/>
      <point x="218" y="739" type="curve"/>
      <point x="322" y="740"/>
      <point x="369" y="664"/>
      <point x="369" y="555" type="curve"/>
      <point x="369" y="446"/>
      <point x="324" y="367"/>
      <point x="220" y="367" type="curve"/>
      <point x="115" y="367"/>
      <point x="67" y="444"/>
      <point x="67" y="554" type="curve"/>
      <point x="58" y="554"/>
      <point x="52" y="554"/>
      <point x="43" y="554" type="curve"/>
      <point x="43" y="430"/>
      <point x="101" y="345"/>
      <point x="219" y="345" type="curve"/>
      <point x="337" y="345"/>
      <point x="394" y="431"/>
      <point x="394" y="556" type="curve"/>
      <point x="394" y="678"/>
      <point x="337" y="762"/>
      <point x="219" y="762" type="curve"/>
      <point x="101" y="762"/>
      <point x="43" y="677"/>
      <point x="43" y="554" type="curve"/>
      <point x="52" y="554"/>
      <point x="58" y="554"/>
    </contour>
    <contour>
      <point x="701" y="109" type="curve"/>
      <point x="701" y="218"/>
      <point x="749" y="295"/>
      <point x="852" y="295" type="curve"/>
      <point x="956" y="296"/>
      <point x="1003" y="219"/>
      <point x="1003" y="110" type="curve"/>
      <point x="1003" y="1"/>
      <point x="958" y="-77"/>
      <point x="854" y="-77" type="curve"/>
      <point x="749" y="-77"/>
      <point x="701" y="-1"/>
      <point x="701" y="109" type="curve"/>
      <point x="691" y="109"/>
      <point x="686" y="109"/>
      <point x="677" y="109" type="curve"/>
      <point x="677" y="-14"/>
      <point x="735" y="-99"/>
      <point x="853" y="-99" type="curve"/>
      <point x="971" y="-99"/>
      <point x="1028" y="-13"/>
      <point x="1028" y="111" type="curve"/>
      <point x="1028" y="233"/>
      <point x="970" y="317"/>
      <point x="853" y="317" type="curve"/>
      <point x="735" y="317"/>
      <point x="677" y="232"/>
      <point x="677" y="109" type="curve"/>
      <point x="686" y="109"/>
      <point x="691" y="109"/>
    </contour>
  </outline>
</glyph>
<glyph name="ampersand" format="1">
  <advance width="680"/>
  <unicode hex="0026"/>
  <outline>
    <contour>
      <point x="667" y="9" type="line"/>
      <point x="549" y="124"/>
      <point x="438" y="234"/>
      <point x="319" y="349" type="curve"/>
      <point x="252" y="421"/>
      <point x="169" y="475"/>
      <point x="169" y="577" type="curve"/>
      <point x="169" y="652"/>
      <point x="217" y="704"/>
      <point x="291" y="704" type="curve"/>
      <point x="371" y="704"/>
      <point x="425" y="657"/>
      <point x="425" y="579" type="curve"/>
      <point x="425" y="480"/>
      <point x="346" y="437"/>
      <point x="258" y="388" type="curve"/>
      <point x="160" y="332"/>
      <point x="72" y="287"/>
      <point x="72" y="177" type="curve"/>
      <point x="72" y="60"/>
      <point x="162" y="-5"/>
      <point x="285" y="-5" type="curve"/>
      <point x="473" y="-5"/>
      <point x="569" y="132"/>
      <point x="631" y="318" type="curve"/>
      <point x="609" y="323"/>
      <point x="631" y="318"/>
      <point x="609" y="323" type="curve"/>
      <point x="551" y="149"/>
      <point x="458" y="18"/>
      <point x="286" y="18" type="curve"/>
      <point x="178" y="18"/>
      <point x="98" y="73"/>
      <point x="98" y="177" type="curve"/>
      <point x="98" y="279"/>
      <point x="180" y="318"/>
      <point x="270" y="369" type="curve"/>
      <point x="365" y="424"/>
      <point x="450" y="471"/>
      <point x="451" y="579" type="curve"/>
      <point x="451" y="672"/>
      <point x="386" y="726"/>
      <point x="292" y="726" type="curve"/>
      <point x="202" y="726"/>
      <point x="144" y="667"/>
      <point x="144" y="577" type="curve"/>
      <point x="144" y="469"/>
      <point x="227" y="411"/>
      <point x="301" y="336" type="curve"/>
      <point x="417" y="222"/>
      <point x="535" y="106"/>
      <point x="651" y="-7" type="curve"/>
    </contour>
  </outline>
</glyph>
<glyph name="parenleft" format="1">
  <advance width="338"/>
  <unicode hex="0028"/>
  <outline>
    <contour>
      <point x="335" y="-236" type="curve"/>
      <point x="165" y="-71"/>
      <point x="89" y="88"/>
      <point x="89" y="326" type="curve"/>
      <point x="89" y="564"/>
      <point x="167" y="721"/>
      <point x="334" y="889" type="curve"/>
      <point x="318" y="903"/>
      <point x="334" y="889"/>
      <point x="318" y="903" type="curve"/>
      <point x="144" y="734"/>
      <point x="63" y="572"/>
      <point x="63" y="326" type="curve"/>
      <point x="63" y="80"/>
      <point x="145" y="-81"/>
      <point x="319" y="-251" type="curve"/>
      <point x="335" y="-236"/>
      <point x="319" y="-251"/>
    </contour>
  </outline>
</glyph>
<glyph name="parenright" format="1">
  <advance width="350"/>
  <unicode hex="0029"/>
  <outline>
    <contour>
      <point x="18" y="-267" type="curve"/>
      <point x="196" y="-89"/>
      <point x="289" y="72"/>
      <point x="289" y="327" type="curve"/>
      <point x="289" y="575"/>
      <point x="203" y="736"/>
      <point x="22" y="903" type="curve"/>
      <point x="6" y="888"/>
      <point x="22" y="903"/>
      <point x="6" y="888" type="curve"/>
      <point x="179" y="722"/>
      <point x="262" y="566"/>
      <point x="262" y="326" type="curve"/>
      <point x="262" y="80"/>
      <point x="170" y="-76"/>
      <point x="1" y="-252" type="curve"/>
      <point x="18" y="-267"/>
      <point x="1" y="-252"/>
    </contour>
  </outline>
</glyph>
<glyph name="asterisk" format="1">
  <advance width="677"/>
  <unicode hex="002A"/>
  <outline>
    <contour>
      <point x="348" y="605" type="line"/>
      <point x="351" y="794" type="line"/>
      <point x="320" y="794" type="line"/>
      <point x="323" y="605" type="line"/>
    </contour>
    <contour>
      <point x="415" y="545" type="line"/>
      <point x="596" y="600" type="line"/>
      <point x="586" y="630" type="line"/>
      <point x="408" y="568" type="line"/>
    </contour>
    <contour>
      <point x="379" y="462" type="line"/>
      <point x="488" y="308" type="line"/>
      <point x="512" y="326" type="line"/>
      <point x="399" y="476" type="line"/>
    </contour>
    <contour>
      <point x="288" y="471" type="line"/>
      <point x="175" y="320" type="line"/>
      <point x="200" y="302" type="line"/>
      <point x="308" y="456" type="line"/>
    </contour>
    <contour>
      <point x="269" y="559" type="line"/>
      <point x="91" y="621" type="line"/>
      <point x="81" y="591" type="line"/>
      <point x="261" y="536" type="line"/>
    </contour>
  </outline>
</glyph>
<glyph name="comma" format="1">
  <advance width="128"/>
  <unicode hex="002C"/>
  <outline>
    <contour>
      <point x="32" y="-113" type="line"/>
      <point x="61" y="-88"/>
      <point x="86" y="-56"/>
      <point x="86" y="-4" type="curve"/>
      <point x="86" y="17"/>
      <point x="82" y="35"/>
      <point x="63" y="35" type="curve"/>
      <point x="50" y="35"/>
      <point x="43" y="28"/>
      <point x="43" y="16" type="curve"/>
      <point x="43" y="6"/>
      <point x="47" y="0"/>
      <point x="58" y="-5" type="curve"/>
      <point x="58" y="-29"/>
      <point x="47" y="-69"/>
      <point x="17" y="-94" type="curve"/>
    </contour>
  </outline>
</glyph>
<glyph name="hyphen" format="1">
  <advance width="483"/>
  <unicode hex="002D"/>
  <outline>
    <contour>
      <point x="89" y="260" type="curve"/>
      <point x="191" y="260"/>
      <point x="292" y="260"/>
      <point x="393" y="260" type="curve"/>
      <point x="393" y="285"/>
      <point x="393" y="260"/>
      <point x="393" y="285" type="curve"/>
      <point x="292" y="285"/>
      <point x="191" y="285"/>
      <point x="89" y="285" type="curve"/>
      <point x="89" y="260"/>
      <point x="89" y="285"/>
    </contour>
  </outline>
</glyph>
<glyph name="period" format="1">
  <advance width="186"/>
  <unicode hex="002E"/>
  <outline>
    <contour>
      <point x="113" y="13" type="curve"/>
      <point x="113" y="24"/>
      <point x="105" y="31"/>
      <point x="93" y="31" type="curve"/>
      <point x="81" y="31"/>
      <point x="75" y="23"/>
      <point x="75" y="13" type="curve"/>
      <point x="100" y="13"/>
      <point x="87" y="13"/>
      <point x="113" y="13" type="curve"/>
      <point x="113" y="1"/>
      <point x="105" y="-6"/>
      <point x="93" y="-6" type="curve"/>
      <point x="81" y="-6"/>
      <point x="75" y="1"/>
      <point x="75" y="13" type="curve"/>
      <point x="100" y="13"/>
      <point x="87" y="13"/>
    </contour>
  </outline>
</glyph>
<glyph name="zero" format="1">
  <advance width="730"/>
  <unicode hex="0030"/>
  <outline>
    <contour>
      <point x="101" y="360" type="curve"/>
      <point x="101" y="561"/>
      <point x="180" y="703"/>
      <point x="366" y="703" type="curve"/>
      <point x="551" y="703"/>
      <point x="629" y="561"/>
      <point x="629" y="362" type="curve"/>
      <point x="629" y="163"/>
      <point x="550" y="20"/>
      <point x="369" y="20" type="curve"/>
      <point x="185" y="20"/>
      <point x="101" y="160"/>
      <point x="101" y="360" type="curve"/>
      <point x="77" y="360"/>
      <point x="99" y="360"/>
      <point x="75" y="360" type="curve"/>
      <point x="75" y="144"/>
      <point x="165" y="-5"/>
      <point x="368" y="-5" type="curve"/>
      <point x="569" y="-5"/>
      <point x="655" y="147"/>
      <point x="655" y="363" type="curve"/>
      <point x="655" y="578"/>
      <point x="568" y="727"/>
      <point x="368" y="727" type="curve"/>
      <point x="164" y="727"/>
      <point x="75" y="577"/>
      <point x="75" y="360" type="curve"/>
      <point x="99" y="360"/>
      <point x="77" y="360"/>
    </contour>
  </outline>
</glyph>
<glyph name="one" format="1">
  <advance width="364"/>
  <unicode hex="0031"/>
  <outline>
    <contour>
      <point x="44" y="535" type="curve"/>
      <point x="259" y="709"/>
      <point x="44" y="535"/>
      <point x="259" y="709" type="curve"/>
      <point x="238" y="722"/>
      <point x="259" y="709"/>
      <point x="238" y="722" type="curve"/>
      <point x="28" y="553"/>
      <point x="238" y="722"/>
      <point x="28" y="553" type="curve"/>
      <point x="44" y="535"/>
      <point x="28" y="553"/>
    </contour>
    <contour>
      <point x="263" y="0" type="curve"/>
      <point x="263" y="241"/>
      <point x="263" y="481"/>
      <point x="263" y="722" type="curve"/>
      <point x="238" y="722"/>
      <point x="263" y="722"/>
      <point x="238" y="722" type="curve"/>
      <point x="238" y="481"/>
      <point x="238" y="241"/>
      <point x="238" y="0" type="curve"/>
      <point x="263" y="0"/>
      <point x="238" y="0"/>
    </contour>
  </outline>
</glyph>
<glyph name="two" format="1">
  <advance width="569"/>
  <unicode hex="0032"/>
  <outline>
    <contour>
      <point x="46" y="0" type="curve"/>
      <point x="210" y="0"/>
      <point x="349" y="0"/>
      <point x="507" y="0" type="curve"/>
      <point x="507" y="23"/>
      <point x="507" y="0"/>
      <point x="507" y="23" type="curve"/>
      <point x="345" y="23"/>
      <point x="208" y="23"/>
      <point x="46" y="23" type="curve"/>
      <point x="46" y="0"/>
      <point x="46" y="23"/>
    </contour>
    <contour>
      <point x="88" y="562" type="curve"/>
      <point x="137" y="646"/>
      <point x="190" y="702"/>
      <point x="285" y="702" type="curve"/>
      <point x="394" y="702"/>
      <point x="458" y="639"/>
      <point x="458" y="526" type="curve"/>
      <point x="458" y="398"/>
      <point x="368" y="306"/>
      <point x="284" y="238" type="curve"/>
      <point x="204" y="166"/>
      <point x="125" y="94"/>
      <point x="46" y="23" type="curve"/>
      <point x="57" y="0"/>
      <point x="46" y="23"/>
      <point x="57" y="0" type="curve"/>
      <point x="138" y="73"/>
      <point x="219" y="146"/>
      <point x="300" y="220" type="curve"/>
      <point x="389" y="293"/>
      <point x="484" y="385"/>
      <point x="484" y="527" type="curve"/>
      <point x="484" y="654"/>
      <point x="412" y="727"/>
      <point x="287" y="727" type="curve"/>
      <point x="182" y="727"/>
      <point x="115" y="667"/>
      <point x="67" y="575" type="curve"/>
      <point x="88" y="562"/>
      <point x="67" y="575"/>
    </contour>
  </outline>
</glyph>
<glyph name="three" format="1">
  <advance width="557"/>
  <unicode hex="0033"/>
  <outline>
    <contour>
      <point x="60" y="56" type="curve"/>
      <point x="123" y="17"/>
      <point x="176" y="-5"/>
      <point x="252" y="-5" type="curve"/>
      <point x="393" y="-5"/>
      <point x="486" y="55"/>
      <point x="486" y="195" type="curve"/>
      <point x="486" y="330"/>
      <point x="347" y="390"/>
      <point x="158" y="390" type="curve"/>
      <point x="158" y="376"/>
      <point x="158" y="385"/>
      <point x="158" y="370" type="curve"/>
      <point x="316" y="370"/>
      <point x="460" y="318"/>
      <point x="460" y="194" type="curve"/>
      <point x="460" y="70"/>
      <point x="364" y="21"/>
      <point x="253" y="21" type="curve"/>
      <point x="183" y="21"/>
      <point x="138" y="40"/>
      <point x="73" y="75" type="curve"/>
      <point x="60" y="56"/>
      <point x="73" y="75"/>
    </contour>
    <contour>
      <point x="84" y="626" type="curve"/>
      <point x="121" y="665"/>
      <point x="178" y="701"/>
      <point x="248" y="701" type="curve"/>
      <point x="355" y="701"/>
      <point x="426" y="655"/>
      <point x="426" y="553" type="curve"/>
      <point x="426" y="446"/>
      <point x="300" y="394"/>
      <point x="158" y="394" type="curve"/>
      <point x="158" y="380"/>
      <point x="158" y="389"/>
      <point x="158" y="375" type="curve"/>
      <point x="321" y="375"/>
      <point x="451" y="429"/>
      <point x="451" y="554" type="curve"/>
      <point x="451" y="670"/>
      <point x="372" y="727"/>
      <point x="250" y="727" type="curve"/>
      <point x="172" y="727"/>
      <point x="106" y="685"/>
      <point x="67" y="641" type="curve"/>
      <point x="84" y="626"/>
      <point x="67" y="641"/>
    </contour>
  </outline>
</glyph>
<glyph name="five" format="1">
  <advance width="539"/>
  <unicode hex="0035"/>
  <outline>
    <contour>
      <point x="109" y="722" type="curve"/>
      <point x="109" y="619"/>
      <point x="109" y="510"/>
      <point x="109" y="403" type="curve"/>
      <point x="133" y="395"/>
      <point x="109" y="403"/>
      <point x="133" y="395" type="curve"/>
      <point x="133" y="497"/>
      <point x="133" y="598"/>
      <point x="133" y="699" type="curve"/>
      <point x="109" y="722"/>
      <point x="133" y="699"/>
    </contour>
    <contour>
      <point x="133" y="395" type="curve"/>
      <point x="159" y="408"/>
      <point x="214" y="422"/>
      <point x="253" y="422" type="curve"/>
      <point x="373" y="422"/>
      <point x="447" y="343"/>
      <point x="447" y="224" type="curve"/>
      <point x="447" y="104"/>
      <point x="364" y="21"/>
      <point x="242" y="21" type="curve"/>
      <point x="177" y="21"/>
      <point x="130" y="37"/>
      <point x="71" y="66" type="curve"/>
      <point x="58" y="44"/>
      <point x="71" y="66"/>
      <point x="58" y="44" type="curve"/>
      <point x="115" y="12"/>
      <point x="172" y="-5"/>
      <point x="241" y="-5" type="curve"/>
      <point x="379" y="-5"/>
      <point x="474" y="87"/>
      <point x="474" y="224" type="curve"/>
      <point x="474" y="357"/>
      <point x="389" y="446"/>
      <point x="255" y="446" type="curve"/>
      <point x="204" y="446"/>
      <point x="142" y="431"/>
      <point x="109" y="409" type="curve"/>
      <point x="133" y="395"/>
      <point x="109" y="409"/>
    </contour>
    <contour>
      <point x="453" y="722" type="curve"/>
      <point x="334" y="722"/>
      <point x="228" y="722"/>
      <point x="109" y="722" type="curve"/>
      <point x="133" y="699"/>
      <point x="109" y="722"/>
      <point x="133" y="699" type="curve"/>
      <point x="244" y="699"/>
      <point x="342" y="699"/>
      <point x="453" y="699" type="curve"/>
      <point x="453" y="722"/>
      <point x="453" y="699"/>
    </contour>
  </outline>
</glyph>
<glyph name="six" format="1">
  <advance width="598"/>
  <unicode hex="0036"/>
  <outline>
    <contour>
      <point x="94" y="230" type="curve"/>
      <point x="133" y="323"/>
      <point x="208" y="385"/>
      <point x="310" y="385" type="curve"/>
      <point x="429" y="385"/>
      <point x="500" y="320"/>
      <point x="500" y="202" type="curve"/>
      <point x="500" y="93"/>
      <point x="430" y="21"/>
      <point x="315" y="21" type="curve"/>
      <point x="178" y="21"/>
      <point x="98" y="104"/>
      <point x="98" y="242" type="curve"/>
      <point x="98" y="506"/>
      <point x="281" y="639"/>
      <point x="537" y="715" type="curve"/>
      <point x="530" y="736"/>
      <point x="537" y="715"/>
      <point x="530" y="736" type="curve"/>
      <point x="260" y="660"/>
      <point x="72" y="519"/>
      <point x="72" y="241" type="curve"/>
      <point x="72" y="88"/>
      <point x="162" y="-5"/>
      <point x="314" y="-5" type="curve"/>
      <point x="447" y="-5"/>
      <point x="527" y="73"/>
      <point x="527" y="203" type="curve"/>
      <point x="527" y="335"/>
      <point x="445" y="409"/>
      <point x="313" y="409" type="curve"/>
      <point x="194" y="409"/>
      <point x="114" y="344"/>
      <point x="75" y="241" type="curve"/>
      <point x="93" y="230"/>
      <point x="76" y="241"/>
    </contour>
  </outline>
</glyph>
<glyph name="seven" format="1">
  <advance width="549"/>
  <unicode hex="0037"/>
  <outline>
    <contour>
      <point x="37" y="699" type="curve"/>
      <point x="534" y="699" type="curve"/>
      <point x="534" y="722" type="curve"/>
      <point x="37" y="722" type="curve"/>
    </contour>
    <contour>
      <point x="519" y="722" type="curve"/>
      <point x="81" y="0" type="curve"/>
      <point x="112" y="0" type="curve"/>
      <point x="534" y="699" type="curve"/>
    </contour>
  </outline>
</glyph>
<glyph name="eight" format="1">
  <advance width="578"/>
  <unicode hex="0038"/>
  <outline>
    <contour>
      <point x="95" y="563" type="curve"/>
      <point x="95" y="451"/>
      <point x="178" y="419"/>
      <point x="281" y="369" type="curve"/>
      <point x="389" y="317"/>
      <point x="476" y="280"/>
      <point x="476" y="169" type="curve"/>
      <point x="476" y="63"/>
      <point x="400" y="19"/>
      <point x="286" y="19" type="curve"/>
      <point x="173" y="19"/>
      <point x="100" y="64"/>
      <point x="100" y="169" type="curve"/>
      <point x="100" y="283"/>
      <point x="189" y="316"/>
      <point x="298" y="369" type="curve"/>
      <point x="398" y="420"/>
      <point x="482" y="451"/>
      <point x="482" y="561" type="curve"/>
      <point x="482" y="675"/>
      <point x="408" y="727"/>
      <point x="286" y="727" type="curve"/>
      <point x="170" y="727"/>
      <point x="95" y="673"/>
      <point x="95" y="563" type="curve"/>
      <point x="120" y="563"/>
      <point x="95" y="563"/>
      <point x="120" y="563" type="curve"/>
      <point x="120" y="657"/>
      <point x="185" y="703"/>
      <point x="285" y="703" type="curve"/>
      <point x="391" y="703"/>
      <point x="456" y="660"/>
      <point x="456" y="561" type="curve"/>
      <point x="456" y="463"/>
      <point x="376" y="432"/>
      <point x="281" y="387" type="curve"/>
      <point x="167" y="330"/>
      <point x="75" y="295"/>
      <point x="75" y="169" type="curve"/>
      <point x="75" y="50"/>
      <point x="157" y="-5"/>
      <point x="285" y="-5" type="curve"/>
      <point x="415" y="-5"/>
      <point x="502" y="47"/>
      <point x="502" y="169" type="curve"/>
      <point x="502" y="292"/>
      <point x="411" y="331"/>
      <point x="298" y="387" type="curve"/>
      <point x="202" y="435"/>
      <point x="120" y="462"/>
      <point x="120" y="563" type="curve"/>
      <point x="95" y="563"/>
      <point x="120" y="563"/>
    </contour>
  </outline>
</glyph>
<glyph name="colon" format="1">
  <advance width="208"/>
  <unicode hex="003A"/>
  <outline>
    <contour>
      <point x="119" y="426" type="curve"/>
      <point x="119" y="437"/>
      <point x="111" y="444"/>
      <point x="99" y="444" type="curve"/>
      <point x="87" y="444"/>
      <point x="81" y="437"/>
      <point x="81" y="426" type="curve"/>
      <point x="106" y="426"/>
      <point x="93" y="426"/>
      <point x="119" y="426" type="curve"/>
      <point x="119" y="414"/>
      <point x="111" y="408"/>
      <point x="99" y="408" type="curve"/>
      <point x="87" y="408"/>
      <point x="81" y="414"/>
      <point x="81" y="426" type="curve"/>
      <point x="106" y="426"/>
      <point x="93" y="426"/>
    </contour>
    <contour>
      <point x="119" y="13" type="curve"/>
      <point x="119" y="24"/>
      <point x="111" y="31"/>
      <point x="99" y="31" type="curve"/>
      <point x="87" y="31"/>
      <point x="81" y="24"/>
      <point x="81" y="13" type="curve"/>
      <point x="106" y="13"/>
      <point x="93" y="13"/>
      <point x="119" y="13" type="curve"/>
      <point x="119" y="2"/>
      <point x="111" y="-5"/>
      <point x="99" y="-5" type="curve"/>
      <point x="87" y="-5"/>
      <point x="81" y="2"/>
      <point x="81" y="13" type="curve"/>
      <point x="106" y="13"/>
      <point x="93" y="13"/>
    </contour>
  </outline>
</glyph>
<glyph name="semicolon" format="1">
  <advance width="168"/>
  <unicode hex="003B"/>
  <outline>
    <contour>
      <point x="51" y="-87" type="line"/>
      <point x="80" y="-62"/>
      <point x="105" y="-30"/>
      <point x="105" y="22" type="curve"/>
      <point x="105" y="43"/>
      <point x="101" y="61"/>
      <point x="82" y="61" type="curve"/>
      <point x="68" y="61"/>
      <point x="61" y="55"/>
      <point x="61" y="42" type="curve"/>
      <point x="61" y="32"/>
      <point x="65" y="26"/>
      <point x="77" y="21" type="curve"/>
      <point x="77" y="-3"/>
      <point x="65" y="-42"/>
      <point x="35" y="-68" type="curve"/>
    </contour>
    <contour>
      <point x="103" y="427" type="curve"/>
      <point x="103" y="439"/>
      <point x="95" y="446"/>
      <point x="83" y="446" type="curve"/>
      <point x="72" y="446"/>
      <point x="65" y="438"/>
      <point x="65" y="427" type="curve"/>
      <point x="90" y="427"/>
      <point x="78" y="427"/>
      <point x="103" y="427" type="curve"/>
      <point x="103" y="416"/>
      <point x="95" y="409"/>
      <point x="83" y="409" type="curve"/>
      <point x="72" y="409"/>
      <point x="65" y="416"/>
      <point x="65" y="427" type="curve"/>
      <point x="90" y="427"/>
      <point x="78" y="427"/>
    </contour>
  </outline>
</glyph>
<glyph name="less" format="1">
  <advance width="746"/>
  <unicode hex="003C"/>
  <outline>
    <contour>
      <point x="677" y="583" type="curve"/>
      <point x="465" y="493"/>
      <point x="253" y="403"/>
      <point x="41" y="313" type="curve"/>
      <point x="41" y="287"/>
      <point x="41" y="313"/>
      <point x="41" y="287" type="curve"/>
      <point x="253" y="377"/>
      <point x="465" y="467"/>
      <point x="677" y="557" type="curve"/>
      <point x="677" y="583"/>
      <point x="677" y="557"/>
    </contour>
    <contour>
      <point x="688" y="49" type="curve"/>
      <point x="472" y="137"/>
      <point x="257" y="225"/>
      <point x="41" y="313" type="curve"/>
      <point x="41" y="287"/>
      <point x="41" y="313"/>
      <point x="41" y="287" type="curve"/>
      <point x="257" y="199"/>
      <point x="472" y="111"/>
      <point x="688" y="23" type="curve"/>
      <point x="688" y="49"/>
      <point x="688" y="23"/>
    </contour>
  </outline>
</glyph>
<glyph name="greater" format="1">
  <advance width="745"/>
  <unicode hex="003E"/>
  <outline>
    <contour>
      <point x="67" y="23" type="curve"/>
      <point x="279" y="113"/>
      <point x="491" y="203"/>
      <point x="703" y="293" type="curve"/>
      <point x="703" y="319"/>
      <point x="703" y="293"/>
      <point x="703" y="319" type="curve"/>
      <point x="491" y="229"/>
      <point x="279" y="139"/>
      <point x="67" y="49" type="curve"/>
      <point x="67" y="23"/>
      <point x="67" y="49"/>
    </contour>
    <contour>
      <point x="57" y="557" type="curve"/>
      <point x="272" y="469"/>
      <point x="488" y="381"/>
      <point x="703" y="293" type="curve"/>
      <point x="703" y="319"/>
      <point x="703" y="293"/>
      <point x="703" y="319" type="curve"/>
      <point x="488" y="407"/>
      <point x="272" y="495"/>
      <point x="57" y="583" type="curve"/>
      <point x="57" y="557"/>
      <point x="57" y="583"/>
    </contour>
  </outline>
</glyph>
<glyph name="question" format="1">
  <advance width="488"/>
  <unicode hex="003F"/>
  <outline>
    <contour>
      <point x="195" y="334" type="curve"/>
      <point x="195" y="297"/>
      <point x="195" y="259"/>
      <point x="195" y="222" type="curve"/>
      <point x="221" y="222"/>
      <point x="195" y="222"/>
      <point x="221" y="222" type="curve"/>
      <point x="221" y="259"/>
      <point x="221" y="297"/>
      <point x="221" y="334" type="curve"/>
      <point x="195" y="334"/>
      <point x="221" y="334"/>
    </contour>
    <contour>
      <point x="75" y="625" type="line"/>
      <point x="108" y="659"/>
      <point x="157" y="687"/>
      <point x="218" y="687" type="curve"/>
      <point x="327" y="687"/>
      <point x="398" y="625"/>
      <point x="398" y="519" type="curve"/>
      <point x="398" y="402"/>
      <point x="318" y="334"/>
      <point x="198" y="334" type="curve"/>
      <point x="198" y="319"/>
      <point x="198" y="326"/>
      <point x="198" y="311" type="curve"/>
      <point x="332" y="311"/>
      <point x="424" y="388"/>
      <point x="424" y="519" type="curve"/>
      <point x="424" y="639"/>
      <point x="341" y="710"/>
      <point x="220" y="710" type="curve"/>
      <point x="149" y="710"/>
      <point x="96" y="680"/>
      <point x="59" y="641" type="curve"/>
    </contour>
    <contour>
      <point x="224" y="12" type="curve"/>
      <point x="224" y="22"/>
      <point x="218" y="28"/>
      <point x="208" y="28" type="curve"/>
      <point x="197" y="28"/>
      <point x="192" y="21"/>
      <point x="192" y="12" type="curve"/>
      <point x="224" y="12"/>
      <point x="192" y="12"/>
      <point x="224" y="12" type="curve"/>
      <point x="224" y="1"/>
      <point x="218" y="-4"/>
      <point x="208" y="-4" type="curve"/>
      <point x="197" y="-4"/>
      <point x="192" y="2"/>
      <point x="192" y="12" type="curve"/>
      <point x="224" y="12"/>
      <point x="192" y="12"/>
    </contour>
  </outline>
</glyph>
<glyph name="at" format="1">
  <advance width="851"/>
  <unicode hex="0040"/>
  <outline>
    <contour>
      <point x="603" y="-87" type="curve"/>
      <point x="545" y="-118"/>
      <point x="502" y="-124"/>
      <point x="437" y="-124" type="curve"/>
      <point x="220" y="-124"/>
      <point x="94" y="-7"/>
      <point x="94" y="205" type="curve"/>
      <point x="94" y="414"/>
      <point x="222" y="530"/>
      <point x="435" y="530" type="curve"/>
      <point x="635" y="530"/>
      <point x="751" y="414"/>
      <point x="751" y="216" type="curve"/>
      <point x="751" y="130"/>
      <point x="733" y="60"/>
      <point x="666" y="60" type="curve"/>
      <point x="595" y="60"/>
      <point x="574" y="127"/>
      <point x="574" y="210" type="curve"/>
      <point x="574" y="315"/>
      <point x="522" y="383"/>
      <point x="420" y="383" type="curve"/>
      <point x="313" y="383"/>
      <point x="255" y="318"/>
      <point x="255" y="211" type="curve"/>
      <point x="255" y="99"/>
      <point x="308" y="27"/>
      <point x="416" y="27" type="curve"/>
      <point x="514" y="27"/>
      <point x="554" y="98"/>
      <point x="570" y="200" type="curve"/>
      <point x="554" y="204"/>
      <point x="570" y="200"/>
      <point x="554" y="204" type="curve"/>
      <point x="533" y="117"/>
      <point x="501" y="50"/>
      <point x="420" y="50" type="curve"/>
      <point x="323" y="50"/>
      <point x="279" y="113"/>
      <point x="279" y="212" type="curve"/>
      <point x="279" y="305"/>
      <point x="327" y="360"/>
      <point x="417" y="360" type="curve"/>
      <point x="507" y="360"/>
      <point x="551" y="302"/>
      <point x="551" y="209" type="curve"/>
      <point x="551" y="113"/>
      <point x="576" y="39"/>
      <point x="664" y="39" type="curve"/>
      <point x="754" y="39"/>
      <point x="776" y="116"/>
      <point x="776" y="218" type="curve"/>
      <point x="776" y="431"/>
      <point x="653" y="554"/>
      <point x="437" y="554" type="curve"/>
      <point x="206" y="554"/>
      <point x="69" y="431"/>
      <point x="69" y="204" type="curve"/>
      <point x="69" y="-22"/>
      <point x="205" y="-147"/>
      <point x="435" y="-147" type="curve"/>
      <point x="506" y="-147"/>
      <point x="552" y="-139"/>
      <point x="614" y="-108" type="curve"/>
      <point x="603" y="-87"/>
      <point x="614" y="-108"/>
    </contour>
  </outline>
</glyph>
<glyph name="B" format="1">
  <advance width="638"/>
  <unicode hex="0042"/>
  <outline>
    <contour>
      <point x="132" y="699" type="curve"/>
      <point x="204" y="699"/>
      <point x="269" y="699"/>
      <point x="341" y="699" type="curve"/>
      <point x="435" y="699"/>
      <point x="498" y="649"/>
      <point x="498" y="555" type="curve"/>
      <point x="498" y="460"/>
      <point x="414" y="421"/>
      <point x="314" y="421" type="curve"/>
      <point x="250" y="421"/>
      <point x="195" y="421"/>
      <point x="132" y="421" type="curve"/>
      <point x="132" y="405"/>
      <point x="132" y="415"/>
      <point x="132" y="398" type="curve"/>
      <point x="190" y="398"/>
      <point x="244" y="398"/>
      <point x="303" y="398" type="curve"/>
      <point x="423" y="398"/>
      <point x="524" y="443"/>
      <point x="524" y="555" type="curve"/>
      <point x="524" y="663"/>
      <point x="452" y="722"/>
      <point x="341" y="722" type="curve"/>
      <point x="269" y="722"/>
      <point x="204" y="722"/>
      <point x="132" y="722" type="curve"/>
      <point x="132" y="706"/>
      <point x="132" y="715"/>
    </contour>
    <contour>
      <point x="154" y="0" type="curve"/>
      <point x="154" y="241"/>
      <point x="154" y="481"/>
      <point x="154" y="722" type="curve"/>
      <point x="127" y="722"/>
      <point x="154" y="722"/>
      <point x="127" y="722" type="curve"/>
      <point x="127" y="481"/>
      <point x="128" y="241"/>
      <point x="127" y="0" type="curve"/>
      <point x="154" y="0"/>
      <point x="127" y="0"/>
    </contour>
    <contour>
      <point x="132" y="398" type="curve"/>
      <point x="195" y="398"/>
      <point x="250" y="398"/>
      <point x="314" y="398" type="curve"/>
      <point x="450" y="398"/>
      <point x="547" y="337"/>
      <point x="547" y="204" type="curve"/>
      <point x="547" y="84"/>
      <point x="466" y="23"/>
      <point x="341" y="23" type="curve"/>
      <point x="268" y="23"/>
      <point x="204" y="23"/>
      <point x="132" y="23" type="curve"/>
      <point x="132" y="7"/>
      <point x="132" y="16"/>
      <point x="132" y="0" type="curve"/>
      <point x="204" y="0"/>
      <point x="268" y="0"/>
      <point x="341" y="0" type="curve"/>
      <point x="482" y="0"/>
      <point x="573" y="69"/>
      <point x="573" y="204" type="curve"/>
      <point x="573" y="355"/>
      <point x="460" y="421"/>
      <point x="303" y="421" type="curve"/>
      <point x="244" y="421"/>
      <point x="190" y="421"/>
      <point x="132" y="421" type="curve"/>
      <point x="132" y="405"/>
      <point x="132" y="415"/>
    </contour>
  </outline>
</glyph>
<glyph name="C" format="1">
  <advance width="699"/>
  <unicode hex="0043"/>
  <outline>
    <contour>
      <point x="644" y="655" type="curve"/>
      <point x="574" y="696"/>
      <point x="497" y="727"/>
      <point x="408" y="727" type="curve"/>
      <point x="185" y="727"/>
      <point x="72" y="577"/>
      <point x="72" y="344" type="curve"/>
      <point x="72" y="130"/>
      <point x="179" y="-5"/>
      <point x="386" y="-5" type="curve"/>
      <point x="502" y="-5"/>
      <point x="575" y="29"/>
      <point x="664" y="96" type="curve"/>
      <point x="648" y="114"/>
      <point x="663" y="96"/>
      <point x="647" y="114" type="curve"/>
      <point x="566" y="50"/>
      <point x="494" y="21"/>
      <point x="387" y="21" type="curve"/>
      <point x="195" y="21"/>
      <point x="97" y="147"/>
      <point x="97" y="345" type="curve"/>
      <point x="97" y="561"/>
      <point x="202" y="703"/>
      <point x="407" y="703" type="curve"/>
      <point x="491" y="703"/>
      <point x="565" y="676"/>
      <point x="630" y="637" type="curve"/>
      <point x="644" y="655"/>
      <point x="630" y="637"/>
    </contour>
    <contour>
      <point x="404" y="825" type="move" name="top"/>
    </contour>
    <contour>
      <point x="383" y="3" type="move" name="bottom"/>
    </contour>
  </outline>
</glyph>
<glyph name="D" format="1">
  <advance width="754"/>
  <unicode hex="0044"/>
  <outline>
    <contour>
      <point x="127" y="722" type="curve"/>
      <point x="127" y="481"/>
      <point x="127" y="241"/>
      <point x="127" y="0" type="curve"/>
      <point x="153" y="0"/>
      <point x="127" y="0"/>
      <point x="153" y="0" type="curve"/>
      <point x="153" y="241"/>
      <point x="153" y="481"/>
      <point x="153" y="722" type="curve"/>
      <point x="127" y="722"/>
      <point x="153" y="722"/>
    </contour>
    <contour>
      <point x="142" y="0" type="curve"/>
      <point x="211" y="0"/>
      <point x="272" y="0"/>
      <point x="341" y="0" type="curve"/>
      <point x="564" y="0"/>
      <point x="680" y="128"/>
      <point x="680" y="353" type="curve"/>
      <point x="680" y="588"/>
      <point x="560" y="722"/>
      <point x="328" y="722" type="curve"/>
      <point x="263" y="722"/>
      <point x="206" y="722"/>
      <point x="142" y="722" type="curve"/>
      <point x="142" y="706"/>
      <point x="142" y="715"/>
      <point x="142" y="699" type="curve"/>
      <point x="206" y="699"/>
      <point x="263" y="699"/>
      <point x="326" y="699" type="curve"/>
      <point x="544" y="699"/>
      <point x="655" y="573"/>
      <point x="655" y="352" type="curve"/>
      <point x="655" y="143"/>
      <point x="551" y="23"/>
      <point x="343" y="23" type="curve"/>
      <point x="274" y="23"/>
      <point x="211" y="23"/>
      <point x="142" y="23" type="curve"/>
      <point x="142" y="7"/>
      <point x="142" y="16"/>
    </contour>
    <contour>
      <point x="309" y="824" type="move" name="top"/>
    </contour>
  </outline>
</glyph>
<glyph name="F" format="1">
  <advance width="579"/>
  <unicode hex="0046"/>
  <outline>
    <contour>
      <point x="146" y="363" type="curve"/>
      <point x="258" y="363"/>
      <point x="370" y="363"/>
      <point x="482" y="363" type="curve"/>
      <point x="482" y="385"/>
      <point x="482" y="363"/>
      <point x="482" y="385" type="curve"/>
      <point x="370" y="385"/>
      <point x="258" y="385"/>
      <point x="146" y="385" type="curve"/>
      <point x="146" y="363"/>
      <point x="146" y="385"/>
    </contour>
    <contour>
      <point x="154" y="0" type="curve"/>
      <point x="154" y="722" type="line"/>
      <point x="129" y="722"/>
      <point x="154" y="722"/>
      <point x="129" y="722" type="curve"/>
      <point x="129" y="481"/>
      <point x="129" y="241"/>
      <point x="129" y="0" type="curve"/>
      <point x="154" y="0"/>
      <point x="129" y="0"/>
    </contour>
    <contour>
      <point x="130" y="699" type="curve"/>
      <point x="273" y="699"/>
      <point x="415" y="699"/>
      <point x="558" y="699" type="curve"/>
      <point x="558" y="722"/>
      <point x="558" y="699"/>
      <point x="558" y="722" type="curve"/>
      <point x="415" y="722"/>
      <point x="273" y="722"/>
      <point x="130" y="722" type="curve"/>
      <point x="130" y="699"/>
      <point x="130" y="722"/>
    </contour>
  </outline>
</glyph>
<glyph name="G" format="1">
  <advance width="798"/>
  <unicode hex="0047"/>
  <outline>
    <contour>
      <point x="713" y="320" type="curve"/>
      <point x="637" y="320"/>
      <point x="560" y="320"/>
      <point x="484" y="320" type="curve"/>
      <point x="484" y="297"/>
      <point x="484" y="320"/>
      <point x="484" y="297" type="curve"/>
      <point x="560" y="297"/>
      <point x="637" y="297"/>
      <point x="713" y="297" type="curve"/>
      <point x="713" y="320"/>
      <point x="713" y="297"/>
    </contour>
    <contour>
      <point x="722" y="77" type="curve"/>
      <point x="722" y="158"/>
      <point x="722" y="238"/>
      <point x="722" y="320" type="curve"/>
      <point x="699" y="320"/>
      <point x="722" y="320"/>
      <point x="699" y="320" type="curve"/>
      <point x="699" y="238"/>
      <point x="699" y="158"/>
      <point x="699" y="77" type="curve"/>
      <point x="722" y="77"/>
      <point x="699" y="77"/>
    </contour>
    <contour>
      <point x="704" y="642" type="curve"/>
      <point x="611" y="700"/>
      <point x="526" y="727"/>
      <point x="415" y="727" type="curve"/>
      <point x="193" y="727"/>
      <point x="72" y="592"/>
      <point x="72" y="365" type="curve"/>
      <point x="72" y="132"/>
      <point x="198" y="-5"/>
      <point x="427" y="-5" type="curve"/>
      <point x="545" y="-5"/>
      <point x="620" y="21"/>
      <point x="722" y="77" type="curve"/>
      <point x="708" y="96"/>
      <point x="722" y="77"/>
      <point x="708" y="96" type="curve"/>
      <point x="619" y="47"/>
      <point x="538" y="20"/>
      <point x="428" y="20" type="curve"/>
      <point x="213" y="20"/>
      <point x="97" y="149"/>
      <point x="97" y="367" type="curve"/>
      <point x="97" y="575"/>
      <point x="211" y="703"/>
      <point x="416" y="703" type="curve"/>
      <point x="521" y="703"/>
      <point x="602" y="677"/>
      <point x="692" y="623" type="curve"/>
      <point x="704" y="642"/>
      <point x="692" y="623"/>
    </contour>
    <contour>
      <point x="416" y="825" type="move" name="top"/>
    </contour>
    <contour>
      <point x="433" y="-35" type="move" name="bottom"/>
    </contour>
  </outline>
</glyph>
<glyph name="H" format="1">
  <advance width="807"/>
  <unicode hex="0048"/>
  <outline>
    <contour>
      <point x="153" y="0" type="curve"/>
      <point x="153" y="722" type="line"/>
      <point x="127" y="722"/>
      <point x="153" y="722"/>
      <point x="127" y="722" type="curve"/>
      <point x="127" y="481"/>
      <point x="127" y="241"/>
      <point x="127" y="0" type="curve"/>
      <point x="153" y="0"/>
      <point x="127" y="0"/>
    </contour>
    <contour>
      <point x="665" y="374" type="curve"/>
      <point x="490" y="374"/>
      <point x="315" y="374"/>
      <point x="140" y="374" type="curve"/>
      <point x="140" y="352"/>
      <point x="140" y="374"/>
      <point x="140" y="352" type="curve"/>
      <point x="315" y="352"/>
      <point x="490" y="352"/>
      <point x="665" y="352" type="curve"/>
      <point x="665" y="374"/>
      <point x="665" y="352"/>
    </contour>
    <contour>
      <point x="680" y="1" type="curve"/>
      <point x="680" y="241"/>
      <point x="680" y="481"/>
      <point x="680" y="721" type="curve"/>
      <point x="655" y="721"/>
      <point x="680" y="721"/>
      <point x="655" y="721" type="curve"/>
      <point x="655" y="1" type="line"/>
      <point x="680" y="1"/>
      <point x="655" y="1"/>
    </contour>
  </outline>
</glyph>
<glyph name="J" format="1">
  <advance width="452"/>
  <unicode hex="004A"/>
  <outline>
    <contour>
      <point x="16" y="41" type="curve"/>
      <point x="48" y="19"/>
      <point x="89" y="-2"/>
      <point x="142" y="-2" type="curve"/>
      <point x="272" y="-2"/>
      <point x="333" y="79"/>
      <point x="333" y="217" type="curve"/>
      <point x="333" y="395"/>
      <point x="333" y="543"/>
      <point x="333" y="722" type="curve"/>
      <point x="314" y="722"/>
      <point x="326" y="722"/>
      <point x="307" y="722" type="curve"/>
      <point x="307" y="543"/>
      <point x="307" y="395"/>
      <point x="307" y="217" type="curve"/>
      <point x="307" y="98"/>
      <point x="256" y="21"/>
      <point x="142" y="21" type="curve"/>
      <point x="95" y="21"/>
      <point x="64" y="38"/>
      <point x="28" y="58" type="curve"/>
      <point x="20" y="46"/>
      <point x="25" y="53"/>
    </contour>
  </outline>
</glyph>
<glyph name="K" format="1">
  <advance width="551"/>
  <unicode hex="004B"/>
  <outline>
    <contour>
      <point x="484" y="722" type="curve"/>
      <point x="139" y="380" type="line"/>
      <point x="177" y="380"/>
      <point x="139" y="380"/>
      <point x="176" y="380" type="curve"/>
      <point x="522" y="722" type="line"/>
      <point x="483" y="722"/>
      <point x="523" y="722"/>
    </contour>
    <contour>
      <point x="153" y="0" type="curve"/>
      <point x="153" y="722" type="line"/>
      <point x="127" y="722"/>
      <point x="153" y="722"/>
      <point x="127" y="722" type="curve"/>
      <point x="127" y="481"/>
      <point x="127" y="241"/>
      <point x="127" y="0" type="curve"/>
      <point x="153" y="0"/>
      <point x="127" y="0"/>
    </contour>
    <contour>
      <point x="548" y="0" type="curve"/>
      <point x="176" y="380" type="line"/>
      <point x="139" y="380"/>
      <point x="177" y="380"/>
      <point x="139" y="380" type="curve"/>
      <point x="508" y="0" type="line"/>
      <point x="548" y="0"/>
      <point x="507" y="0"/>
    </contour>
    <contour>
      <point x="377" y="-36" type="move" name="bottom"/>
    </contour>
  </outline>
</glyph>
<glyph name="L" format="1">
  <advance width="590"/>
  <unicode hex="004C"/>
  <outline>
    <contour>
      <point x="153" y="0" type="curve"/>
      <point x="153" y="241"/>
      <point x="153" y="481"/>
      <point x="153" y="722" type="curve"/>
      <point x="127" y="722"/>
      <point x="153" y="722"/>
      <point x="127" y="722" type="curve"/>
      <point x="127" y="481"/>
      <point x="127" y="241"/>
      <point x="127" y="0" type="curve"/>
      <point x="153" y="0"/>
      <point x="127" y="0"/>
    </contour>
    <contour>
      <point x="139" y="0" type="curve"/>
      <point x="286" y="0"/>
      <point x="433" y="0"/>
      <point x="580" y="0" type="curve"/>
      <point x="580" y="23"/>
      <point x="580" y="0"/>
      <point x="580" y="23" type="curve"/>
      <point x="433" y="23"/>
      <point x="286" y="23"/>
      <point x="139" y="23" type="curve"/>
      <point x="139" y="0"/>
      <point x="139" y="23"/>
    </contour>
    <contour>
      <point x="142" y="825" type="move" name="top"/>
    </contour>
    <contour>
      <point x="321" y="-34" type="move" name="bottom"/>
    </contour>
  </outline>
</glyph>
<glyph name="M" format="1">
  <advance width="924"/>
  <unicode hex="004D"/>
  <outline>
    <contour>
      <point x="836" y="0" type="curve"/>
      <point x="814" y="241"/>
      <point x="792" y="481"/>
      <point x="771" y="722" type="curve"/>
      <point x="748" y="722"/>
      <point x="771" y="722"/>
      <point x="748" y="722" type="curve"/>
      <point x="769" y="481"/>
      <point x="790" y="241"/>
      <point x="810" y="0" type="curve"/>
      <point x="836" y="0"/>
      <point x="810" y="0"/>
    </contour>
    <contour>
      <point x="116" y="0" type="curve"/>
      <point x="136" y="241"/>
      <point x="155" y="481"/>
      <point x="175" y="722" type="curve"/>
      <point x="152" y="722"/>
      <point x="175" y="722"/>
      <point x="152" y="722" type="curve"/>
      <point x="132" y="481"/>
      <point x="111" y="241"/>
      <point x="91" y="0" type="curve"/>
      <point x="116" y="0"/>
      <point x="91" y="0"/>
    </contour>
    <contour>
      <point x="473" y="0" type="curve"/>
      <point x="376" y="241"/>
      <point x="278" y="481"/>
      <point x="179" y="722" type="curve"/>
      <point x="155" y="722"/>
      <point x="178" y="722"/>
      <point x="154" y="722" type="curve"/>
      <point x="252" y="481"/>
      <point x="349" y="241"/>
      <point x="447" y="0" type="curve"/>
      <point x="472" y="0"/>
      <point x="448" y="0"/>
    </contour>
    <contour>
      <point x="481" y="0" type="curve"/>
      <point x="577" y="241"/>
      <point x="673" y="481"/>
      <point x="769" y="722" type="curve"/>
      <point x="746" y="722"/>
      <point x="768" y="722"/>
      <point x="745" y="722" type="curve"/>
      <point x="647" y="481"/>
      <point x="551" y="241"/>
      <point x="454" y="0" type="curve"/>
      <point x="480" y="0"/>
      <point x="455" y="0"/>
    </contour>
  </outline>
</glyph>
<glyph name="N" format="1">
  <advance width="847"/>
  <unicode hex="004E"/>
  <outline>
    <contour>
      <point x="719" y="0" type="curve"/>
      <point x="532" y="241"/>
      <point x="346" y="481"/>
      <point x="160" y="722" type="curve"/>
      <point x="129" y="722"/>
      <point x="158" y="722"/>
      <point x="127" y="722" type="curve"/>
      <point x="314" y="481"/>
      <point x="500" y="241"/>
      <point x="687" y="0" type="curve"/>
      <point x="717" y="0"/>
      <point x="688" y="0"/>
    </contour>
    <contour>
      <point x="694" y="722" type="curve"/>
      <point x="694" y="481"/>
      <point x="694" y="241"/>
      <point x="694" y="0" type="curve"/>
      <point x="719" y="0"/>
      <point x="694" y="0"/>
      <point x="719" y="0" type="curve"/>
      <point x="719" y="241"/>
      <point x="719" y="481"/>
      <point x="719" y="722" type="curve"/>
      <point x="694" y="722"/>
      <point x="719" y="722"/>
    </contour>
    <contour>
      <point x="154" y="0" type="curve"/>
      <point x="154" y="241"/>
      <point x="154" y="481"/>
      <point x="154" y="722" type="curve"/>
      <point x="128" y="722"/>
      <point x="154" y="722"/>
      <point x="128" y="722" type="curve"/>
      <point x="128" y="481"/>
      <point x="128" y="241"/>
      <point x="128" y="0" type="curve"/>
      <point x="154" y="0"/>
      <point x="128" y="0"/>
    </contour>
    <contour>
      <point x="425" y="825" type="move" name="top"/>
    </contour>
    <contour>
      <point x="437" y="-34" type="move" name="bottom"/>
    </contour>
  </outline>
</glyph>
<glyph name="O" format="1">
  <advance width="773"/>
  <unicode hex="004F"/>
  <outline>
    <contour>
      <point x="98" y="360" type="curve" name="FullCurve"/>
      <point x="98" y="560"/>
      <point x="193" y="704"/>
      <point x="385" y="704" type="curve" name="FullCurve"/>
      <point x="577" y="704"/>
      <point x="675" y="562"/>
      <point x="675" y="363" type="curve" name="FullCurve"/>
      <point x="675" y="164"/>
      <point x="580" y="19"/>
      <point x="388" y="19" type="curve" name="FullCurve"/>
      <point x="195" y="19"/>
      <point x="98" y="160"/>
      <point x="98" y="360" type="curve" name="FullCurve"/>
      <point x="72" y="360"/>
      <point x="98" y="360"/>
      <point x="72" y="360" type="curve" name="FullCurve"/>
      <point x="72" y="144"/>
      <point x="180" y="-5"/>
      <point x="387" y="-5" type="curve" name="FullCurve"/>
      <point x="594" y="-5"/>
      <point x="701" y="146"/>
      <point x="701" y="363" type="curve" name="FullCurve"/>
      <point x="701" y="578"/>
      <point x="594" y="727"/>
      <point x="387" y="727" type="curve" name="FullCurve"/>
      <point x="178" y="727"/>
      <point x="72" y="576"/>
      <point x="72" y="360" type="curve" name="FullCurve"/>
      <point x="98" y="360"/>
      <point x="72" y="360"/>
    </contour>
    <contour>
      <point x="386" y="825" type="move" name="top"/>
    </contour>
  </outline>
</glyph>
<glyph name="P" format="1">
  <advance width="591"/>
  <unicode hex="0050"/>
  <outline>
    <contour>
      <point x="139" y="325" type="curve"/>
      <point x="192" y="299"/>
      <point x="243" y="280"/>
      <point x="303" y="280" type="curve"/>
      <point x="441" y="282"/>
      <point x="532" y="357"/>
      <point x="532" y="494" type="curve"/>
      <point x="532" y="639"/>
      <point x="428" y="722"/>
      <point x="278" y="722" type="curve"/>
      <point x="234" y="722"/>
      <point x="189" y="722"/>
      <point x="145" y="722" type="curve"/>
      <point x="145" y="699"/>
      <point x="145" y="722"/>
      <point x="145" y="699" type="curve"/>
      <point x="188" y="699"/>
      <point x="232" y="699"/>
      <point x="275" y="699" type="curve"/>
      <point x="412" y="699"/>
      <point x="506" y="625"/>
      <point x="506" y="493" type="curve"/>
      <point x="506" y="373"/>
      <point x="426" y="303"/>
      <point x="305" y="303" type="curve"/>
      <point x="244" y="303"/>
      <point x="201" y="319"/>
      <point x="147" y="346" type="curve"/>
      <point x="139" y="326"/>
      <point x="147" y="346"/>
    </contour>
    <contour>
      <point x="153" y="0" type="curve"/>
      <point x="153" y="241"/>
      <point x="153" y="481"/>
      <point x="153" y="722" type="curve"/>
      <point x="127" y="722"/>
      <point x="153" y="722"/>
      <point x="127" y="722" type="curve"/>
      <point x="127" y="481"/>
      <point x="127" y="241"/>
      <point x="127" y="0" type="curve"/>
      <point x="153" y="0"/>
      <point x="127" y="0"/>
    </contour>
  </outline>
</glyph>
<glyph name="Q" format="1">
  <advance width="881"/>
  <unicode hex="0051"/>
  <outline>
    <contour>
      <point x="385" y="4" type="curve"/>
      <point x="491" y="-175"/>
      <point x="613" y="-240"/>
      <point x="811" y="-240" type="curve"/>
      <point x="811" y="-216"/>
      <point x="811" y="-240"/>
      <point x="811" y="-216" type="curve"/>
      <point x="625" y="-216"/>
      <point x="510" y="-154"/>
      <point x="408" y="16" type="curve"/>
      <point x="385" y="4"/>
      <point x="408" y="16"/>
    </contour>
    <contour>
      <point x="97" y="360" type="curve"/>
      <point x="97" y="560"/>
      <point x="194" y="702"/>
      <point x="387" y="702" type="curve"/>
      <point x="579" y="702"/>
      <point x="677" y="562"/>
      <point x="677" y="363" type="curve"/>
      <point x="677" y="163"/>
      <point x="582" y="20"/>
      <point x="390" y="20" type="curve"/>
      <point x="196" y="20"/>
      <point x="97" y="160"/>
      <point x="97" y="360" type="curve"/>
      <point x="72" y="360"/>
      <point x="97" y="360"/>
      <point x="72" y="360" type="curve"/>
      <point x="72" y="144"/>
      <point x="181" y="-5"/>
      <point x="389" y="-5" type="curve"/>
      <point x="597" y="-5"/>
      <point x="703" y="147"/>
      <point x="703" y="364" type="curve"/>
      <point x="703" y="579"/>
      <point x="595" y="727"/>
      <point x="388" y="727" type="curve"/>
      <point x="181" y="727"/>
      <point x="72" y="576"/>
      <point x="72" y="360" type="curve"/>
      <point x="97" y="360"/>
      <point x="72" y="360"/>
    </contour>
  </outline>
</glyph>
<glyph name="R" format="1">
  <advance width="616"/>
  <unicode hex="0052"/>
  <outline>
    <contour>
      <point x="340" y="354" type="curve"/>
      <point x="369" y="298"/>
      <point x="552" y="56"/>
      <point x="580" y="0" type="curve"/>
      <point x="611" y="0"/>
      <point x="581" y="0"/>
      <point x="612" y="0" type="curve"/>
      <point x="583" y="56"/>
      <point x="399" y="298"/>
      <point x="370" y="354" type="curve"/>
      <point x="340" y="354"/>
      <point x="370" y="354"/>
    </contour>
    <contour>
      <point x="153" y="0" type="curve"/>
      <point x="153" y="241"/>
      <point x="153" y="481"/>
      <point x="153" y="722" type="curve"/>
      <point x="127" y="722"/>
      <point x="153" y="722"/>
      <point x="127" y="722" type="curve"/>
      <point x="127" y="481"/>
      <point x="127" y="241"/>
      <point x="127" y="0" type="curve"/>
      <point x="153" y="0"/>
      <point x="127" y="0"/>
    </contour>
    <contour>
      <point x="143" y="340" type="curve"/>
      <point x="202" y="340"/>
      <point x="261" y="340"/>
      <point x="320" y="340" type="curve"/>
      <point x="459" y="340"/>
      <point x="549" y="403"/>
      <point x="549" y="537" type="curve"/>
      <point x="549" y="665"/>
      <point x="460" y="722"/>
      <point x="324" y="722" type="curve"/>
      <point x="262" y="722"/>
      <point x="204" y="722"/>
      <point x="143" y="722" type="curve"/>
      <point x="143" y="699"/>
      <point x="143" y="722"/>
      <point x="143" y="699" type="curve"/>
      <point x="203" y="699"/>
      <point x="259" y="699"/>
      <point x="320" y="699" type="curve"/>
      <point x="442" y="699"/>
      <point x="523" y="650"/>
      <point x="523" y="535" type="curve"/>
      <point x="523" y="418"/>
      <point x="445" y="362"/>
      <point x="323" y="362" type="curve"/>
      <point x="263" y="362"/>
      <point x="203" y="362"/>
      <point x="143" y="362" type="curve"/>
      <point x="143" y="340"/>
      <point x="143" y="362"/>
    </contour>
    <contour>
      <point x="286" y="825" type="move" name="top"/>
    </contour>
    <contour>
      <point x="361" y="-35" type="move" name="bottom"/>
    </contour>
  </outline>
</glyph>
<glyph name="S" format="1">
  <advance width="553"/>
  <unicode hex="0053"/>
  <outline>
    <contour>
      <point x="49" y="58" type="curve"/>
      <point x="112" y="20"/>
      <point x="183" y="-5"/>
      <point x="263" y="-5" type="curve"/>
      <point x="398" y="-5"/>
      <point x="490" y="45"/>
      <point x="490" y="169" type="curve"/>
      <point x="490" y="290"/>
      <point x="396" y="332"/>
      <point x="285" y="385" type="curve"/>
      <point x="188" y="430"/>
      <point x="100" y="462"/>
      <point x="100" y="563" type="curve"/>
      <point x="100" y="655"/>
      <point x="172" y="704"/>
      <point x="270" y="704" type="curve"/>
      <point x="340" y="704"/>
      <point x="397" y="677"/>
      <point x="451" y="645" type="curve"/>
      <point x="460" y="658"/>
      <point x="455" y="650"/>
      <point x="463" y="663" type="curve"/>
      <point x="402" y="701"/>
      <point x="347" y="726"/>
      <point x="271" y="726" type="curve"/>
      <point x="156" y="726"/>
      <point x="74" y="670"/>
      <point x="74" y="562" type="curve"/>
      <point x="74" y="450"/>
      <point x="165" y="414"/>
      <point x="269" y="365" type="curve"/>
      <point x="373" y="316"/>
      <point x="465" y="277"/>
      <point x="465" y="169" type="curve"/>
      <point x="465" y="64"/>
      <point x="380" y="19"/>
      <point x="265" y="19" type="curve"/>
      <point x="189" y="19"/>
      <point x="122" y="45"/>
      <point x="62" y="79" type="curve"/>
      <point x="53" y="64"/>
      <point x="59" y="73"/>
    </contour>
    <contour>
      <point x="272" y="825" type="move" name="top"/>
    </contour>
    <contour>
      <point x="272" y="-36" type="move" name="bottom"/>
    </contour>
  </outline>
</glyph>
<glyph name="T" format="1">
  <advance width="668"/>
  <unicode hex="0054"/>
  <outline>
    <contour>
      <point x="347" y="0" type="curve"/>
      <point x="347" y="237"/>
      <point x="347" y="473"/>
      <point x="347" y="710" type="curve"/>
      <point x="322" y="710"/>
      <point x="347" y="710"/>
      <point x="322" y="710" type="curve"/>
      <point x="322" y="473"/>
      <point x="322" y="237"/>
      <point x="322" y="0" type="curve"/>
      <point x="347" y="0"/>
      <point x="322" y="0"/>
    </contour>
    <contour>
      <point x="10" y="697" type="curve"/>
      <point x="226" y="697"/>
      <point x="442" y="697"/>
      <point x="658" y="697" type="curve"/>
      <point x="658" y="722"/>
      <point x="658" y="697"/>
      <point x="658" y="722" type="curve"/>
      <point x="442" y="722"/>
      <point x="226" y="722"/>
      <point x="10" y="722" type="curve"/>
      <point x="10" y="697"/>
      <point x="10" y="722"/>
    </contour>
    <contour>
      <point x="333" y="825" type="move" name="top"/>
    </contour>
    <contour>
      <point x="341" y="-37" type="move" name="bottom"/>
    </contour>
  </outline>
</glyph>
<glyph name="V" format="1">
  <advance width="652"/>
  <unicode hex="0056"/>
  <outline>
    <contour>
      <point x="606" y="722" type="curve"/>
      <point x="510" y="481"/>
      <point x="413" y="241"/>
      <point x="316" y="0" type="curve"/>
      <point x="344" y="0"/>
      <point x="316" y="0"/>
      <point x="344" y="0" type="curve"/>
      <point x="441" y="241"/>
      <point x="537" y="481"/>
      <point x="634" y="722" type="curve"/>
      <point x="606" y="722"/>
      <point x="634" y="722"/>
    </contour>
    <contour>
      <point x="15" y="722" type="curve"/>
      <point x="113" y="481"/>
      <point x="212" y="241"/>
      <point x="310" y="0" type="curve"/>
      <point x="338" y="0"/>
      <point x="310" y="0"/>
      <point x="339" y="0" type="curve"/>
      <point x="240" y="241"/>
      <point x="142" y="481"/>
      <point x="45" y="722" type="curve"/>
      <point x="15" y="722"/>
      <point x="44" y="722"/>
    </contour>
  </outline>
</glyph>
<glyph name="W" format="1">
  <advance width="883"/>
  <unicode hex="0057"/>
  <outline>
    <contour>
      <point x="249" y="0" type="curve"/>
      <point x="319" y="241"/>
      <point x="389" y="481"/>
      <point x="459" y="722" type="curve"/>
      <point x="434" y="722"/>
      <point x="459" y="722"/>
      <point x="434" y="722" type="curve"/>
      <point x="366" y="481"/>
      <point x="295" y="241"/>
      <point x="227" y="0" type="curve"/>
      <point x="246" y="0"/>
      <point x="230" y="0"/>
    </contour>
    <contour>
      <point x="441" y="722" type="curve"/>
      <point x="505" y="481"/>
      <point x="567" y="241"/>
      <point x="630" y="0" type="curve"/>
      <point x="650" y="0"/>
      <point x="633" y="0"/>
      <point x="653" y="0" type="curve"/>
      <point x="591" y="241"/>
      <point x="528" y="481"/>
      <point x="466" y="722" type="curve"/>
      <point x="441" y="722"/>
      <point x="466" y="722"/>
    </contour>
    <contour>
      <point x="33" y="722" type="curve"/>
      <point x="96" y="481"/>
      <point x="160" y="241"/>
      <point x="223" y="0" type="curve"/>
      <point x="243" y="0"/>
      <point x="227" y="0"/>
      <point x="246" y="0" type="curve"/>
      <point x="184" y="240"/>
      <point x="121" y="482"/>
      <point x="60" y="722" type="curve"/>
      <point x="33" y="722"/>
      <point x="60" y="722"/>
    </contour>
    <contour>
      <point x="828" y="722" type="curve"/>
      <point x="763" y="481"/>
      <point x="698" y="241"/>
      <point x="634" y="0" type="curve"/>
      <point x="654" y="0"/>
      <point x="637" y="0"/>
      <point x="657" y="0" type="curve"/>
      <point x="723" y="241"/>
      <point x="789" y="481"/>
      <point x="855" y="722" type="curve"/>
      <point x="828" y="722"/>
      <point x="855" y="722"/>
    </contour>
  </outline>
</glyph>
<glyph name="X" format="1">
  <advance width="595"/>
  <unicode hex="0058"/>
  <outline>
    <contour>
      <point x="527" y="722" type="curve"/>
      <point x="354" y="481"/>
      <point x="180" y="241"/>
      <point x="6" y="0" type="curve"/>
      <point x="40" y="0"/>
      <point x="6" y="0"/>
      <point x="41" y="0" type="curve"/>
      <point x="213" y="241"/>
      <point x="386" y="481"/>
      <point x="559" y="722" type="curve"/>
      <point x="527" y="722"/>
      <point x="558" y="722"/>
    </contour>
    <contour>
      <point x="38" y="722" type="curve"/>
      <point x="210" y="481"/>
      <point x="381" y="241"/>
      <point x="553" y="0" type="curve"/>
      <point x="586" y="0"/>
      <point x="553" y="0"/>
      <point x="586" y="0" type="curve"/>
      <point x="414" y="241"/>
      <point x="242" y="481"/>
      <point x="70" y="722" type="curve"/>
      <point x="39" y="722"/>
      <point x="70" y="722"/>
    </contour>
  </outline>
</glyph>
<glyph name="bracketleft" format="1">
  <advance width="288"/>
  <unicode hex="005B"/>
  <outline>
    <contour>
      <point x="261" y="771" type="curve"/>
      <point x="208" y="771"/>
      <point x="155" y="771"/>
      <point x="101" y="771" type="curve"/>
      <point x="99" y="771"/>
      <point x="98" y="771"/>
      <point x="96" y="771" type="curve"/>
      <point x="96" y="769"/>
      <point x="96" y="767"/>
      <point x="96" y="764" type="curve"/>
      <point x="96" y="470"/>
      <point x="96" y="175"/>
      <point x="96" y="-119" type="curve"/>
      <point x="96" y="-121"/>
      <point x="96" y="-123"/>
      <point x="96" y="-124" type="curve"/>
      <point x="97" y="-124"/>
      <point x="99" y="-124"/>
      <point x="100" y="-124" type="curve"/>
      <point x="154" y="-124"/>
      <point x="207" y="-124"/>
      <point x="261" y="-124" type="curve"/>
      <point x="261" y="-99"/>
      <point x="261" y="-124"/>
      <point x="261" y="-99" type="curve"/>
      <point x="207" y="-99"/>
      <point x="154" y="-99"/>
      <point x="100" y="-99" type="curve"/>
      <point x="121" y="-99"/>
      <point x="100" y="-99"/>
      <point x="121" y="-99" type="curve"/>
      <point x="121" y="-119"/>
      <point x="121" y="-99"/>
      <point x="121" y="-119" type="curve"/>
      <point x="121" y="175"/>
      <point x="121" y="470"/>
      <point x="121" y="764" type="curve"/>
      <point x="121" y="746"/>
      <point x="121" y="764"/>
      <point x="121" y="746" type="curve"/>
      <point x="101" y="746"/>
      <point x="121" y="746"/>
      <point x="101" y="746" type="curve"/>
      <point x="155" y="746"/>
      <point x="208" y="746"/>
      <point x="261" y="746" type="curve"/>
      <point x="261" y="771"/>
      <point x="261" y="746"/>
    </contour>
  </outline>
</glyph>
<glyph name="bracketright" format="1">
  <advance width="288"/>
  <unicode hex="005D"/>
  <outline>
    <contour>
      <point x="27" y="746" type="curve"/>
      <point x="81" y="746"/>
      <point x="134" y="746"/>
      <point x="187" y="746" type="curve"/>
      <point x="184" y="749"/>
      <point x="180" y="752"/>
      <point x="177" y="755" type="curve"/>
      <point x="174" y="758"/>
      <point x="170" y="761"/>
      <point x="167" y="764" type="curve"/>
      <point x="167" y="470"/>
      <point x="167" y="175"/>
      <point x="167" y="-119" type="curve"/>
      <point x="170" y="-116"/>
      <point x="175" y="-112"/>
      <point x="178" y="-108" type="curve"/>
      <point x="181" y="-106"/>
      <point x="185" y="-102"/>
      <point x="188" y="-99" type="curve"/>
      <point x="134" y="-99"/>
      <point x="81" y="-99"/>
      <point x="27" y="-99" type="curve"/>
      <point x="27" y="-124"/>
      <point x="27" y="-99"/>
      <point x="27" y="-124" type="curve"/>
      <point x="81" y="-124"/>
      <point x="134" y="-124"/>
      <point x="188" y="-124" type="curve"/>
      <point x="193" y="-124"/>
      <point x="188" y="-124"/>
      <point x="193" y="-124" type="curve"/>
      <point x="193" y="-119"/>
      <point x="193" y="-124"/>
      <point x="193" y="-119" type="curve"/>
      <point x="193" y="175"/>
      <point x="193" y="470"/>
      <point x="193" y="764" type="curve"/>
      <point x="193" y="771"/>
      <point x="193" y="764"/>
      <point x="193" y="771" type="curve"/>
      <point x="187" y="771"/>
      <point x="193" y="771"/>
      <point x="187" y="771" type="curve"/>
      <point x="134" y="771"/>
      <point x="81" y="771"/>
      <point x="27" y="771" type="curve"/>
      <point x="27" y="746"/>
      <point x="27" y="771"/>
    </contour>
  </outline>
</glyph>
<glyph name="asciicircum" format="1">
  <advance width="516"/>
  <unicode hex="005E"/>
  <outline>
    <contour>
      <point x="87" y="466" type="curve"/>
      <point x="148" y="581"/>
      <point x="209" y="695"/>
      <point x="269" y="809" type="curve"/>
      <point x="245" y="809"/>
      <point x="268" y="809"/>
      <point x="244" y="809" type="curve"/>
      <point x="183" y="695"/>
      <point x="122" y="581"/>
      <point x="62" y="466" type="curve"/>
      <point x="86" y="466"/>
      <point x="63" y="466"/>
    </contour>
    <contour>
      <point x="454" y="466" type="curve"/>
      <point x="395" y="577"/>
      <point x="330" y="699"/>
      <point x="270" y="809" type="curve"/>
      <point x="246" y="809"/>
      <point x="269" y="809"/>
      <point x="245" y="809" type="curve"/>
      <point x="304" y="699"/>
      <point x="369" y="577"/>
      <point x="428" y="466" type="curve"/>
      <point x="453" y="466"/>
      <point x="430" y="466"/>
    </contour>
  </outline>
</glyph>
<glyph name="underscore" format="1">
  <advance width="712"/>
  <unicode hex="005F"/>
  <outline>
    <contour>
      <point x="0" y="-210" type="curve"/>
      <point x="237" y="-210"/>
      <point x="475" y="-210"/>
      <point x="712" y="-210" type="curve"/>
      <point x="712" y="-187"/>
      <point x="712" y="-210"/>
      <point x="712" y="-187" type="curve"/>
      <point x="475" y="-187"/>
      <point x="237" y="-187"/>
      <point x="0" y="-187" type="curve"/>
      <point x="0" y="-210"/>
      <point x="0" y="-187"/>
    </contour>
  </outline>
</glyph>
<glyph name="grave" format="1">
  <advance width="309"/>
  <unicode hex="0060"/>
  <outline>
    <contour>
      <point x="301" y="590" type="line"/>
      <point x="171" y="756" type="line"/>
      <point x="134" y="756" type="line"/>
      <point x="273" y="590" type="line"/>
    </contour>
    <contour>
      <point x="285" y="590" type="move" name="_top"/>
    </contour>
  </outline>
</glyph>
<glyph name="b" format="1">
  <advance width="640"/>
  <unicode hex="0062"/>
  <outline>
    <contour>
      <point x="128" y="406" type="curve"/>
      <point x="167" y="457"/>
      <point x="246" y="515"/>
      <point x="341" y="515" type="curve"/>
      <point x="474" y="515"/>
      <point x="548" y="410"/>
      <point x="548" y="266" type="curve"/>
      <point x="548" y="127"/>
      <point x="470" y="17"/>
      <point x="340" y="18" type="curve"/>
      <point x="255" y="18"/>
      <point x="188" y="56"/>
      <point x="130" y="123" type="curve"/>
      <point x="113" y="109"/>
      <point x="131" y="120"/>
      <point x="114" y="107" type="curve"/>
      <point x="176" y="34"/>
      <point x="246" y="-5"/>
      <point x="341" y="-5" type="curve"/>
      <point x="491" y="-5"/>
      <point x="574" y="109"/>
      <point x="574" y="267" type="curve"/>
      <point x="574" y="423"/>
      <point x="492" y="538"/>
      <point x="343" y="538" type="curve"/>
      <point x="240" y="538"/>
      <point x="157" y="481"/>
      <point x="115" y="426" type="curve"/>
      <point x="128" y="409"/>
      <point x="116" y="422"/>
    </contour>
    <contour>
      <point x="134" y="0" type="curve"/>
      <point x="134" y="267"/>
      <point x="134" y="533"/>
      <point x="134" y="800" type="curve"/>
      <point x="109" y="800"/>
      <point x="133" y="800"/>
      <point x="108" y="800" type="curve"/>
      <point x="108" y="533"/>
      <point x="108" y="267"/>
      <point x="108" y="0" type="curve"/>
      <point x="133" y="0"/>
      <point x="109" y="0"/>
    </contour>
  </outline>
</glyph>
<glyph name="d" format="1">
  <advance width="645"/>
  <unicode hex="0064"/>
  <outline>
    <contour>
      <point x="530" y="443" type="curve"/>
      <point x="479" y="503"/>
      <point x="408" y="538"/>
      <point x="321" y="538" type="curve"/>
      <point x="161" y="538"/>
      <point x="66" y="427"/>
      <point x="66" y="264" type="curve"/>
      <point x="66" y="103"/>
      <point x="164" y="-5"/>
      <point x="324" y="-5" type="curve"/>
      <point x="417" y="-5"/>
      <point x="480" y="41"/>
      <point x="530" y="124" type="curve"/>
      <point x="515" y="139"/>
      <point x="530" y="124"/>
      <point x="515" y="139" type="curve"/>
      <point x="466" y="62"/>
      <point x="407" y="18"/>
      <point x="323" y="18" type="curve"/>
      <point x="180" y="18"/>
      <point x="92" y="118"/>
      <point x="92" y="265" type="curve"/>
      <point x="92" y="413"/>
      <point x="179" y="515"/>
      <point x="322" y="515" type="curve"/>
      <point x="400" y="515"/>
      <point x="469" y="483"/>
      <point x="515" y="426" type="curve"/>
      <point x="530" y="443"/>
      <point x="515" y="426"/>
    </contour>
    <contour>
      <point x="536" y="0" type="curve"/>
      <point x="536" y="267"/>
      <point x="536" y="533"/>
      <point x="536" y="800" type="curve"/>
      <point x="510" y="800"/>
      <point x="536" y="800"/>
      <point x="510" y="800" type="curve"/>
      <point x="510" y="533"/>
      <point x="510" y="267"/>
      <point x="510" y="0" type="curve"/>
      <point x="536" y="0"/>
      <point x="510" y="0"/>
    </contour>
  </outline>
</glyph>
<glyph name="f" format="1">
  <advance width="469"/>
  <unicode hex="0066"/>
  <outline>
    <contour>
      <point x="22" y="510" type="curve"/>
      <point x="443" y="510" type="line"/>
      <point x="443" y="533"/>
      <point x="443" y="510"/>
      <point x="443" y="533" type="curve"/>
      <point x="22" y="533" type="line"/>
      <point x="22" y="510"/>
      <point x="22" y="533"/>
    </contour>
    <contour>
      <point x="228" y="0" type="curve"/>
      <point x="228" y="640" type="line"/>
      <point x="228" y="726"/>
      <point x="275" y="783"/>
      <point x="359" y="783" type="curve"/>
      <point x="395" y="783"/>
      <point x="429" y="771"/>
      <point x="460" y="757" type="curve"/>
      <point x="470" y="774"/>
      <point x="460" y="757"/>
      <point x="470" y="774" type="curve"/>
      <point x="436" y="791"/>
      <point x="397" y="805"/>
      <point x="359" y="805" type="curve"/>
      <point x="261" y="805"/>
      <point x="202" y="740"/>
      <point x="203" y="640" type="curve"/>
      <point x="203" y="0" type="line"/>
      <point x="228" y="0"/>
      <point x="203" y="0"/>
    </contour>
  </outline>
</glyph>
<glyph name="g" format="1">
  <advance width="518"/>
  <unicode hex="0067"/>
  <outline>
    <contour>
      <point x="355" y="499" type="curve"/>
      <point x="509" y="577" type="line"/>
      <point x="503" y="586"/>
      <point x="502" y="590"/>
      <point x="495" y="599" type="curve"/>
      <point x="341" y="517" type="line"/>
      <point x="355" y="499"/>
      <point x="341" y="517"/>
    </contour>
    <contour>
      <point x="86" y="358" type="curve"/>
      <point x="86" y="454"/>
      <point x="156" y="516"/>
      <point x="257" y="516" type="curve"/>
      <point x="357" y="516"/>
      <point x="423" y="458"/>
      <point x="423" y="361" type="curve"/>
      <point x="423" y="268"/>
      <point x="355" y="210"/>
      <point x="255" y="210" type="curve"/>
      <point x="158" y="210"/>
      <point x="86" y="264"/>
      <point x="86" y="358" type="curve"/>
      <point x="61" y="357"/>
      <point x="86" y="358"/>
      <point x="61" y="357" type="curve"/>
      <point x="61" y="249"/>
      <point x="141" y="188"/>
      <point x="253" y="188" type="curve"/>
      <point x="367" y="188"/>
      <point x="449" y="251"/>
      <point x="449" y="362" type="curve"/>
      <point x="449" y="472"/>
      <point x="370" y="538"/>
      <point x="257" y="538" type="curve"/>
      <point x="141" y="538"/>
      <point x="61" y="470"/>
      <point x="61" y="357" type="curve"/>
      <point x="86" y="358"/>
      <point x="61" y="357"/>
    </contour>
    <contour>
      <point x="145" y="228" type="curve"/>
      <point x="97" y="200"/>
      <point x="65" y="165"/>
      <point x="65" y="109" type="curve"/>
      <point x="65" y="20"/>
      <point x="151" y="-5"/>
      <point x="250" y="-13" type="curve"/>
      <point x="370" y="-23"/>
      <point x="483" y="-38"/>
      <point x="483" y="-144" type="curve"/>
      <point x="483" y="-247"/>
      <point x="375" y="-282"/>
      <point x="252" y="-282" type="curve"/>
      <point x="136" y="-282"/>
      <point x="40" y="-236"/>
      <point x="40" y="-134" type="curve"/>
      <point x="40" y="-62"/>
      <point x="86" y="-18"/>
      <point x="153" y="10" type="curve"/>
      <point x="141" y="24"/>
      <point x="153" y="10"/>
      <point x="141" y="24" type="curve"/>
      <point x="66" y="-7"/>
      <point x="15" y="-54"/>
      <point x="15" y="-135" type="curve"/>
      <point x="15" y="-254"/>
      <point x="120" y="-304"/>
      <point x="251" y="-304" type="curve"/>
      <point x="388" y="-304"/>
      <point x="508" y="-266"/>
      <point x="506" y="-142" type="curve"/>
      <point x="506" y="-23"/>
      <point x="385" y="-2"/>
      <point x="254" y="9" type="curve"/>
      <point x="167" y="14"/>
      <point x="91" y="33"/>
      <point x="91" y="112" type="curve"/>
      <point x="91" y="159"/>
      <point x="116" y="189"/>
      <point x="158" y="214" type="curve"/>
      <point x="145" y="228"/>
      <point x="158" y="214"/>
    </contour>
    <contour>
      <point x="258" y="670" type="move" name="top"/>
    </contour>
  </outline>
</glyph>
<glyph name="h" format="1">
  <advance width="623"/>
  <unicode hex="0068"/>
  <outline>
    <contour>
      <point x="128" y="353" type="curve"/>
      <point x="161" y="443"/>
      <point x="244" y="515"/>
      <point x="341" y="515" type="curve"/>
      <point x="447" y="515"/>
      <point x="497" y="449"/>
      <point x="497" y="341" type="curve"/>
      <point x="497" y="228"/>
      <point x="497" y="114"/>
      <point x="497" y="0" type="curve"/>
      <point x="522" y="0"/>
      <point x="497" y="0"/>
      <point x="522" y="0" type="curve"/>
      <point x="522" y="115"/>
      <point x="522" y="229"/>
      <point x="522" y="344" type="curve"/>
      <point x="522" y="466"/>
      <point x="463" y="538"/>
      <point x="344" y="538" type="curve"/>
      <point x="238" y="538"/>
      <point x="145" y="467"/>
      <point x="115" y="367" type="curve"/>
      <point x="129" y="354"/>
      <point x="114" y="366"/>
    </contour>
    <contour>
      <point x="134" y="0" type="curve"/>
      <point x="134" y="267"/>
      <point x="134" y="533"/>
      <point x="134" y="800" type="curve"/>
      <point x="108" y="800"/>
      <point x="134" y="800"/>
      <point x="108" y="800" type="curve"/>
      <point x="108" y="533"/>
      <point x="108" y="267"/>
      <point x="108" y="0" type="curve"/>
      <point x="134" y="0"/>
      <point x="108" y="0"/>
    </contour>
  </outline>
</glyph>
<glyph name="j" format="1">
  <advance width="232"/>
  <unicode hex="006A"/>
  <outline>
    <contour>
      <point x="-68" y="-301" type="curve"/>
      <point x="-59" y="-301"/>
      <point x="-48" y="-304"/>
      <point x="-36" y="-304" type="curve"/>
      <point x="61" y="-304"/>
      <point x="130" y="-241"/>
      <point x="130" y="-142" type="curve"/>
      <point x="130" y="83"/>
      <point x="130" y="308"/>
      <point x="130" y="533" type="curve"/>
      <point x="104" y="533"/>
      <point x="130" y="533"/>
      <point x="104" y="533" type="curve"/>
      <point x="104" y="308"/>
      <point x="104" y="83"/>
      <point x="104" y="-142" type="curve"/>
      <point x="104" y="-223"/>
      <point x="46" y="-279"/>
      <point x="-36" y="-279" type="curve"/>
      <point x="-45" y="-279"/>
      <point x="-57" y="-278"/>
      <point x="-63" y="-277" type="curve"/>
      <point x="-67" y="-299"/>
      <point x="-64" y="-279"/>
    </contour>
    <contour>
      <point x="140" y="686" type="curve"/>
      <point x="140" y="699"/>
      <point x="131" y="706"/>
      <point x="118" y="706" type="curve"/>
      <point x="106" y="706"/>
      <point x="99" y="698"/>
      <point x="99" y="686" type="curve"/>
      <point x="126" y="686"/>
      <point x="112" y="686"/>
      <point x="140" y="686" type="curve"/>
      <point x="140" y="674"/>
      <point x="131" y="667"/>
      <point x="118" y="667" type="curve"/>
      <point x="106" y="667"/>
      <point x="99" y="674"/>
      <point x="99" y="686" type="curve"/>
      <point x="126" y="686"/>
      <point x="112" y="686"/>
    </contour>
  </outline>
</glyph>
<glyph name="k" format="1">
  <advance width="492"/>
  <unicode hex="006B"/>
  <outline>
    <contour>
      <point x="134" y="0" type="curve"/>
      <point x="134" y="800" type="line"/>
      <point x="108" y="800"/>
      <point x="134" y="800"/>
      <point x="108" y="800" type="curve"/>
      <point x="108" y="533"/>
      <point x="108" y="267"/>
      <point x="108" y="0" type="curve"/>
      <point x="134" y="0"/>
      <point x="108" y="0"/>
    </contour>
    <contour>
      <point x="411" y="533" type="curve"/>
      <point x="121" y="275" type="line"/>
      <point x="162" y="275"/>
      <point x="119" y="275"/>
      <point x="160" y="275" type="curve"/>
      <point x="450" y="533" type="line"/>
      <point x="409" y="533"/>
      <point x="452" y="533"/>
    </contour>
    <contour>
      <point x="476" y="0" type="curve"/>
      <point x="160" y="275" type="line"/>
      <point x="119" y="275"/>
      <point x="162" y="275"/>
      <point x="121" y="275" type="curve"/>
      <point x="435" y="0" type="line"/>
      <point x="479" y="0"/>
      <point x="433" y="0"/>
    </contour>
    <contour>
      <point x="337" y="-36" type="move" name="bottom"/>
    </contour>
  </outline>
</glyph>
<glyph name="m" format="1">
  <advance width="929"/>
  <unicode hex="006D"/>
  <outline>
    <contour>
      <point x="475" y="353" type="curve"/>
      <point x="512" y="446"/>
      <point x="573" y="515"/>
      <point x="665" y="515" type="curve"/>
      <point x="770" y="515"/>
      <point x="802" y="453"/>
      <point x="802" y="341" type="curve"/>
      <point x="802" y="228"/>
      <point x="802" y="114"/>
      <point x="802" y="0" type="curve"/>
      <point x="828" y="0"/>
      <point x="802" y="0"/>
      <point x="828" y="0" type="curve"/>
      <point x="828" y="115"/>
      <point x="828" y="229"/>
      <point x="828" y="344" type="curve"/>
      <point x="828" y="469"/>
      <point x="788" y="538"/>
      <point x="670" y="538" type="curve"/>
      <point x="564" y="538"/>
      <point x="494" y="468"/>
      <point x="462" y="365" type="curve"/>
      <point x="475" y="353"/>
      <point x="462" y="365"/>
    </contour>
    <contour>
      <point x="128" y="353" type="curve"/>
      <point x="164" y="445"/>
      <point x="225" y="516"/>
      <point x="318" y="516" type="curve"/>
      <point x="422" y="516"/>
      <point x="455" y="453"/>
      <point x="455" y="341" type="curve"/>
      <point x="455" y="228"/>
      <point x="455" y="114"/>
      <point x="455" y="0" type="curve"/>
      <point x="481" y="0"/>
      <point x="455" y="0"/>
      <point x="481" y="0" type="curve"/>
      <point x="481" y="115"/>
      <point x="481" y="229"/>
      <point x="481" y="344" type="curve"/>
      <point x="481" y="469"/>
      <point x="442" y="538"/>
      <point x="324" y="538" type="curve"/>
      <point x="216" y="538"/>
      <point x="149" y="469"/>
      <point x="116" y="365" type="curve"/>
      <point x="128" y="353"/>
      <point x="116" y="365"/>
    </contour>
    <contour>
      <point x="134" y="0" type="curve"/>
      <point x="134" y="178"/>
      <point x="134" y="355"/>
      <point x="134" y="533" type="curve"/>
      <point x="108" y="533"/>
      <point x="134" y="533"/>
      <point x="108" y="533" type="curve"/>
      <point x="108" y="355"/>
      <point x="108" y="178"/>
      <point x="108" y="0" type="curve"/>
      <point x="134" y="0"/>
      <point x="108" y="0"/>
    </contour>
  </outline>
</glyph>
<glyph name="p" format="1">
  <advance width="641"/>
  <unicode hex="0070"/>
  <outline>
    <contour>
      <point x="127" y="413" type="curve"/>
      <point x="165" y="464"/>
      <point x="248" y="516"/>
      <point x="341" y="516" type="curve"/>
      <point x="477" y="516"/>
      <point x="551" y="415"/>
      <point x="551" y="276" type="curve"/>
      <point x="554" y="128"/>
      <point x="479" y="17"/>
      <point x="342" y="18" type="curve"/>
      <point x="252" y="18"/>
      <point x="190" y="59"/>
      <point x="129" y="123" type="curve"/>
      <point x="113" y="111"/>
      <point x="129" y="122"/>
      <point x="113" y="111" type="curve"/>
      <point x="177" y="38"/>
      <point x="244" y="-5"/>
      <point x="342" y="-5" type="curve"/>
      <point x="498" y="-5"/>
      <point x="576" y="116"/>
      <point x="575" y="277" type="curve"/>
      <point x="575" y="429"/>
      <point x="493" y="538"/>
      <point x="342" y="538" type="curve"/>
      <point x="241" y="538"/>
      <point x="157" y="487"/>
      <point x="114" y="432" type="curve"/>
      <point x="128" y="415"/>
      <point x="113" y="431"/>
    </contour>
    <contour>
      <point x="134" y="-300" type="curve"/>
      <point x="134" y="-22"/>
      <point x="134" y="255"/>
      <point x="134" y="533" type="curve"/>
      <point x="108" y="533"/>
      <point x="134" y="533"/>
      <point x="108" y="533" type="curve"/>
      <point x="108" y="255"/>
      <point x="108" y="-22"/>
      <point x="108" y="-300" type="curve"/>
      <point x="134" y="-300"/>
      <point x="108" y="-300"/>
    </contour>
  </outline>
</glyph>
<glyph name="q" format="1">
  <advance width="646"/>
  <unicode hex="0071"/>
  <outline>
    <contour>
      <point x="532" y="439" type="curve"/>
      <point x="474" y="503"/>
      <point x="387" y="538"/>
      <point x="302" y="538" type="curve"/>
      <point x="147" y="538"/>
      <point x="67" y="423"/>
      <point x="67" y="264" type="curve"/>
      <point x="67" y="105"/>
      <point x="151" y="-5"/>
      <point x="306" y="-5" type="curve"/>
      <point x="398" y="-5"/>
      <point x="481" y="48"/>
      <point x="531" y="121" type="curve"/>
      <point x="515" y="135"/>
      <point x="533" y="126"/>
      <point x="519" y="140" type="curve"/>
      <point x="469" y="68"/>
      <point x="391" y="17"/>
      <point x="306" y="17" type="curve"/>
      <point x="169" y="17"/>
      <point x="93" y="120"/>
      <point x="93" y="265" type="curve"/>
      <point x="93" y="410"/>
      <point x="166" y="515"/>
      <point x="303" y="515" type="curve"/>
      <point x="383" y="515"/>
      <point x="464" y="479"/>
      <point x="521" y="420" type="curve"/>
      <point x="533" y="435"/>
      <point x="519" y="424"/>
    </contour>
    <contour>
      <point x="538" y="-300" type="curve"/>
      <point x="538" y="-22"/>
      <point x="538" y="255"/>
      <point x="538" y="533" type="curve"/>
      <point x="511" y="533"/>
      <point x="537" y="533"/>
      <point x="511" y="533" type="curve"/>
      <point x="511" y="255"/>
      <point x="511" y="-22"/>
      <point x="511" y="-300" type="curve"/>
      <point x="537" y="-300"/>
      <point x="511" y="-300"/>
    </contour>
  </outline>
</glyph>
<glyph name="r" format="1">
  <advance width="394"/>
  <unicode hex="0072"/>
  <outline>
    <contour>
      <point x="134" y="0" type="curve"/>
      <point x="134" y="178"/>
      <point x="134" y="355"/>
      <point x="134" y="533" type="curve"/>
      <point x="109" y="533"/>
      <point x="133" y="533"/>
      <point x="108" y="533" type="curve"/>
      <point x="108" y="355"/>
      <point x="108" y="178"/>
      <point x="108" y="0" type="curve"/>
      <point x="133" y="0"/>
      <point x="109" y="0"/>
    </contour>
    <contour>
      <point x="127" y="360" type="curve"/>
      <point x="173" y="468"/>
      <point x="274" y="515"/>
      <point x="382" y="515" type="curve"/>
      <point x="382" y="540"/>
      <point x="382" y="513"/>
      <point x="382" y="538" type="curve"/>
      <point x="267" y="538"/>
      <point x="157" y="487"/>
      <point x="118" y="383" type="curve"/>
      <point x="131" y="367"/>
      <point x="117" y="375"/>
    </contour>
    <contour>
      <point x="125" y="670" type="move" name="top"/>
    </contour>
    <contour>
      <point x="141" y="-35" type="move" name="bottom"/>
    </contour>
  </outline>
</glyph>
<glyph name="s" format="1">
  <advance width="472"/>
  <unicode hex="0073"/>
  <outline>
    <contour>
      <point x="50" y="50" type="curve"/>
      <point x="114" y="18"/>
      <point x="175" y="-5"/>
      <point x="244" y="-5" type="curve"/>
      <point x="347" y="-5"/>
      <point x="415" y="39"/>
      <point x="415" y="136" type="curve"/>
      <point x="414" y="236"/>
      <point x="335" y="258"/>
      <point x="237" y="288" type="curve" smooth="yes"/>
      <point x="159" y="313"/>
      <point x="100" y="341"/>
      <point x="100" y="417" type="curve"/>
      <point x="100" y="485"/>
      <point x="151" y="515"/>
      <point x="225" y="515" type="curve"/>
      <point x="279" y="515"/>
      <point x="334" y="496"/>
      <point x="372" y="471" type="curve"/>
      <point x="381" y="485"/>
      <point x="376" y="477"/>
      <point x="384" y="491" type="curve"/>
      <point x="343" y="517"/>
      <point x="283" y="538"/>
      <point x="227" y="538" type="curve"/>
      <point x="138" y="538"/>
      <point x="77" y="500"/>
      <point x="77" y="417" type="curve"/>
      <point x="77" y="328"/>
      <point x="140" y="294"/>
      <point x="229" y="266" type="curve" smooth="yes"/>
      <point x="315" y="239"/>
      <point x="391" y="222"/>
      <point x="391" y="136" type="curve"/>
      <point x="391" y="55"/>
      <point x="332" y="18"/>
      <point x="248" y="18" type="curve"/>
      <point x="181" y="18"/>
      <point x="124" y="40"/>
      <point x="62" y="71" type="curve"/>
      <point x="50" y="50"/>
      <point x="62" y="71"/>
    </contour>
    <contour>
      <point x="230" y="670" type="move" name="top"/>
    </contour>
    <contour>
      <point x="256" y="-38" type="move" name="bottom"/>
    </contour>
  </outline>
</glyph>
<glyph name="t" format="1">
  <advance width="426"/>
  <unicode hex="0074"/>
  <outline>
    <contour>
      <point x="12" y="510" type="curve"/>
      <point x="421" y="510" type="line"/>
      <point x="421" y="533"/>
      <point x="421" y="510"/>
      <point x="421" y="533" type="curve"/>
      <point x="12" y="533" type="line"/>
      <point x="12" y="510"/>
      <point x="12" y="533"/>
    </contour>
    <contour>
      <point x="395" y="48" type="curve"/>
      <point x="360" y="30"/>
      <point x="333" y="19"/>
      <point x="293" y="19" type="curve"/>
      <point x="219" y="19"/>
      <point x="186" y="63"/>
      <point x="186" y="145" type="curve"/>
      <point x="186" y="676" type="line"/>
      <point x="173" y="669"/>
      <point x="174" y="665"/>
      <point x="161" y="657" type="curve"/>
      <point x="161" y="143" type="line"/>
      <point x="161" y="49"/>
      <point x="202" y="-5"/>
      <point x="291" y="-5" type="curve"/>
      <point x="336" y="-5"/>
      <point x="366" y="7"/>
      <point x="406" y="26" type="curve"/>
      <point x="395" y="48"/>
      <point x="406" y="26"/>
    </contour>
    <contour>
      <point x="297" y="-37" type="move" name="bottom"/>
    </contour>
  </outline>
</glyph>
<glyph name="v" format="1">
  <advance width="536"/>
  <unicode hex="0076"/>
  <outline>
    <contour>
      <point x="34" y="533" type="curve"/>
      <point x="106" y="355"/>
      <point x="179" y="178"/>
      <point x="251" y="0" type="curve"/>
      <point x="277" y="0"/>
      <point x="251" y="0"/>
      <point x="277" y="0" type="curve"/>
      <point x="205" y="178"/>
      <point x="133" y="355"/>
      <point x="62" y="533" type="curve"/>
      <point x="34" y="533"/>
      <point x="62" y="533"/>
    </contour>
    <contour>
      <point x="483" y="533" type="curve"/>
      <point x="256" y="0" type="line"/>
      <point x="282" y="0"/>
      <point x="256" y="0"/>
      <point x="282" y="0" type="curve"/>
      <point x="358" y="178"/>
      <point x="434" y="355"/>
      <point x="509" y="533" type="curve"/>
      <point x="483" y="533"/>
      <point x="509" y="533"/>
    </contour>
  </outline>
</glyph>
<glyph name="w" format="1">
  <advance width="890"/>
  <unicode hex="0077"/>
  <outline>
    <contour>
      <point x="253" y="0" type="curve"/>
      <point x="324" y="178"/>
      <point x="394" y="355"/>
      <point x="465" y="533" type="curve"/>
      <point x="436" y="533"/>
      <point x="465" y="533"/>
      <point x="436" y="533" type="curve"/>
      <point x="367" y="355"/>
      <point x="297" y="178"/>
      <point x="227" y="0" type="curve"/>
      <point x="253" y="0"/>
      <point x="227" y="0"/>
    </contour>
    <contour>
      <point x="830" y="533" type="curve"/>
      <point x="765" y="355"/>
      <point x="700" y="178"/>
      <point x="635" y="0" type="curve"/>
      <point x="660" y="0"/>
      <point x="635" y="0"/>
      <point x="660" y="0" type="curve"/>
      <point x="726" y="178"/>
      <point x="792" y="355"/>
      <point x="859" y="533" type="curve"/>
      <point x="830" y="533"/>
      <point x="859" y="533"/>
    </contour>
    <contour>
      <point x="443" y="533" type="curve"/>
      <point x="506" y="355"/>
      <point x="570" y="178"/>
      <point x="633" y="0" type="curve"/>
      <point x="659" y="0"/>
      <point x="633" y="0"/>
      <point x="659" y="0" type="curve"/>
      <point x="596" y="178"/>
      <point x="533" y="355"/>
      <point x="470" y="533" type="curve"/>
      <point x="443" y="533"/>
      <point x="470" y="533"/>
    </contour>
    <contour>
      <point x="36" y="533" type="curve"/>
      <point x="99" y="355"/>
      <point x="163" y="178"/>
      <point x="226" y="0" type="curve"/>
      <point x="252" y="0"/>
      <point x="226" y="0"/>
      <point x="252" y="0" type="curve"/>
      <point x="189" y="178"/>
      <point x="127" y="355"/>
      <point x="64" y="533" type="curve"/>
      <point x="36" y="533"/>
      <point x="64" y="533"/>
    </contour>
  </outline>
</glyph>
<glyph name="x" format="1">
  <advance width="524"/>
  <unicode hex="0078"/>
  <outline>
    <contour>
      <point x="506" y="0" type="curve"/>
      <point x="361" y="176"/>
      <point x="213" y="357"/>
      <point x="69" y="533" type="curve"/>
      <point x="37" y="533"/>
      <point x="69" y="533"/>
      <point x="38" y="533" type="curve"/>
      <point x="181" y="357"/>
      <point x="329" y="176"/>
      <point x="471" y="0" type="curve"/>
      <point x="506" y="0"/>
      <point x="471" y="0"/>
    </contour>
    <contour>
      <point x="458" y="533" type="curve"/>
      <point x="313" y="357"/>
      <point x="162" y="176"/>
      <point x="17" y="0" type="curve"/>
      <point x="51" y="0"/>
      <point x="17" y="0"/>
      <point x="51" y="0" type="curve"/>
      <point x="196" y="176"/>
      <point x="345" y="357"/>
      <point x="490" y="533" type="curve"/>
      <point x="457" y="533"/>
      <point x="490" y="533"/>
    </contour>
  </outline>
</glyph>
<glyph name="y" format="1">
  <advance width="583"/>
  <unicode hex="0079"/>
  <outline>
    <contour>
      <point x="302" y="8" type="curve"/>
      <point x="246" y="101"/>
      <point x="113" y="440"/>
      <point x="57" y="533" type="curve"/>
      <point x="28" y="533"/>
      <point x="57" y="533"/>
      <point x="28" y="533" type="curve"/>
      <point x="85" y="440"/>
      <point x="220" y="94"/>
      <point x="278" y="1" type="curve"/>
      <point x="302" y="1"/>
      <point x="278" y="8"/>
    </contour>
    <contour>
      <point x="152" y="-300" type="curve"/>
      <point x="248" y="-153"/>
      <point x="470" y="386"/>
      <point x="566" y="533" type="curve"/>
      <point x="538" y="533"/>
      <point x="566" y="533"/>
      <point x="538" y="533" type="curve"/>
      <point x="442" y="386"/>
      <point x="219" y="-153"/>
      <point x="123" y="-300" type="curve"/>
      <point x="152" y="-300"/>
      <point x="123" y="-300"/>
    </contour>
    <contour>
      <point x="299" y="670" type="move" name="top"/>
    </contour>
  </outline>
</glyph>
<glyph name="braceleft" format="1">
  <advance width="279"/>
  <unicode hex="007B"/>
  <outline>
    <contour>
      <point x="253" y="-101" type="curve"/>
      <point x="179" y="-101"/>
      <point x="144" y="-50"/>
      <point x="144" y="26" type="curve"/>
      <point x="144" y="85"/>
      <point x="144" y="144"/>
      <point x="144" y="203" type="curve"/>
      <point x="144" y="291"/>
      <point x="98" y="351"/>
      <point x="12" y="351" type="curve"/>
      <point x="12" y="327"/>
      <point x="12" y="351"/>
      <point x="12" y="327" type="curve"/>
      <point x="83" y="327"/>
      <point x="121" y="279"/>
      <point x="121" y="205" type="curve"/>
      <point x="121" y="146"/>
      <point x="121" y="86"/>
      <point x="121" y="27" type="curve"/>
      <point x="121" y="-63"/>
      <point x="166" y="-123"/>
      <point x="253" y="-123" type="curve"/>
      <point x="253" y="-101"/>
      <point x="253" y="-123"/>
    </contour>
    <contour>
      <point x="253" y="800" type="curve"/>
      <point x="166" y="800"/>
      <point x="121" y="740"/>
      <point x="121" y="650" type="curve"/>
      <point x="121" y="590"/>
      <point x="121" y="530"/>
      <point x="121" y="470" type="curve"/>
      <point x="121" y="397"/>
      <point x="83" y="351"/>
      <point x="12" y="351" type="curve"/>
      <point x="12" y="327"/>
      <point x="12" y="351"/>
      <point x="12" y="327" type="curve"/>
      <point x="97" y="327"/>
      <point x="143" y="385"/>
      <point x="143" y="473" type="curve"/>
      <point x="143" y="532"/>
      <point x="143" y="591"/>
      <point x="143" y="650" type="curve"/>
      <point x="143" y="726"/>
      <point x="179" y="777"/>
      <point x="253" y="777" type="curve"/>
      <point x="253" y="800"/>
      <point x="253" y="777"/>
    </contour>
  </outline>
</glyph>
<glyph name="braceright" format="1">
  <advance width="280"/>
  <unicode hex="007D"/>
  <outline>
    <contour>
      <point x="26" y="-124" type="curve"/>
      <point x="113" y="-124"/>
      <point x="159" y="-63"/>
      <point x="159" y="27" type="curve"/>
      <point x="159" y="86"/>
      <point x="159" y="146"/>
      <point x="159" y="205" type="curve"/>
      <point x="159" y="278"/>
      <point x="196" y="327"/>
      <point x="267" y="327" type="curve"/>
      <point x="267" y="350"/>
      <point x="267" y="327"/>
      <point x="267" y="350" type="curve"/>
      <point x="182" y="350"/>
      <point x="136" y="290"/>
      <point x="136" y="203" type="curve"/>
      <point x="136" y="144"/>
      <point x="136" y="85"/>
      <point x="136" y="26" type="curve"/>
      <point x="136" y="-50"/>
      <point x="100" y="-101"/>
      <point x="26" y="-101" type="curve"/>
      <point x="26" y="-124"/>
      <point x="26" y="-101"/>
    </contour>
    <contour>
      <point x="26" y="777" type="curve"/>
      <point x="100" y="777"/>
      <point x="135" y="726"/>
      <point x="135" y="650" type="curve"/>
      <point x="135" y="591"/>
      <point x="135" y="532"/>
      <point x="135" y="473" type="curve"/>
      <point x="135" y="384"/>
      <point x="182" y="327"/>
      <point x="267" y="327" type="curve"/>
      <point x="267" y="350"/>
      <point x="267" y="327"/>
      <point x="267" y="350" type="curve"/>
      <point x="196" y="350"/>
      <point x="158" y="396"/>
      <point x="158" y="470" type="curve"/>
      <point x="158" y="530"/>
      <point x="158" y="590"/>
      <point x="158" y="650" type="curve"/>
      <point x="158" y="740"/>
      <point x="113" y="799"/>
      <point x="26" y="799" type="curve"/>
      <point x="26" y="777"/>
      <point x="26" y="799"/>
    </contour>
  </outline>
</glyph>
<glyph name="asciitilde" format="1">
  <advance width="710"/>
  <unicode hex="007E"/>
  <outline>
    <contour>
      <point x="593" y="344" type="curve"/>
      <point x="575" y="294"/>
      <point x="549" y="242"/>
      <point x="486" y="242" type="curve"/>
      <point x="435" y="242"/>
      <point x="402" y="258"/>
      <point x="363" y="290" type="curve"/>
      <point x="321" y="324"/>
      <point x="287" y="345"/>
      <point x="235" y="345" type="curve"/>
      <point x="152" y="345"/>
      <point x="116" y="300"/>
      <point x="95" y="226" type="curve"/>
      <point x="115" y="219"/>
      <point x="96" y="226"/>
      <point x="116" y="219" type="curve"/>
      <point x="133" y="278"/>
      <point x="163" y="323"/>
      <point x="232" y="323" type="curve"/>
      <point x="278" y="323"/>
      <point x="306" y="307"/>
      <point x="340" y="279" type="curve"/>
      <point x="387" y="242"/>
      <point x="424" y="220"/>
      <point x="484" y="220" type="curve"/>
      <point x="562" y="220"/>
      <point x="591" y="271"/>
      <point x="615" y="338" type="curve"/>
      <point x="594" y="344"/>
      <point x="614" y="339"/>
    </contour>
  </outline>
</glyph>
<glyph name="exclamdown" format="1">
  <advance width="240"/>
  <unicode hex="00A1"/>
  <outline>
    <contour>
      <point x="109" y="307" type="line"/>
      <point x="105" y="-186" type="line"/>
      <point x="137" y="-186" type="line"/>
      <point x="134" y="307" type="line"/>
    </contour>
    <contour>
      <point x="100" y="524" type="curve"/>
      <point x="100" y="512"/>
      <point x="108" y="506"/>
      <point x="120" y="506" type="curve"/>
      <point x="132" y="506"/>
      <point x="138" y="513"/>
      <point x="138" y="524" type="curve"/>
      <point x="113" y="524"/>
      <point x="126" y="524"/>
      <point x="100" y="524" type="curve"/>
      <point x="100" y="535"/>
      <point x="108" y="542"/>
      <point x="120" y="542" type="curve"/>
      <point x="132" y="542"/>
      <point x="138" y="535"/>
      <point x="138" y="524" type="curve"/>
      <point x="113" y="524"/>
      <point x="126" y="524"/>
    </contour>
  </outline>
</glyph>
<glyph name="cent" format="1">
  <advance width="648"/>
  <unicode hex="00A2"/>
  <outline>
    <contour>
      <point x="348" y="-53" type="curve"/>
      <point x="348" y="-13"/>
      <point x="348" y="27"/>
      <point x="348" y="67" type="curve"/>
      <point x="323" y="67"/>
      <point x="348" y="67"/>
      <point x="323" y="67" type="curve"/>
      <point x="323" y="27"/>
      <point x="323" y="-13"/>
      <point x="323" y="-53" type="curve"/>
      <point x="348" y="-53"/>
      <point x="323" y="-53"/>
    </contour>
    <contour>
      <point x="344" y="778" type="curve"/>
      <point x="344" y="742"/>
      <point x="344" y="706"/>
      <point x="344" y="670" type="curve"/>
      <point x="369" y="670"/>
      <point x="344" y="670"/>
      <point x="369" y="670" type="curve"/>
      <point x="369" y="706"/>
      <point x="369" y="742"/>
      <point x="369" y="778" type="curve"/>
      <point x="344" y="778"/>
      <point x="369" y="778"/>
    </contour>
    <contour>
      <point x="585" y="606" type="curve"/>
      <point x="512" y="658"/>
      <point x="450" y="679"/>
      <point x="361" y="679" type="curve"/>
      <point x="171" y="679"/>
      <point x="61" y="558"/>
      <point x="61" y="366" type="curve"/>
      <point x="61" y="181"/>
      <point x="154" y="54"/>
      <point x="333" y="54" type="curve"/>
      <point x="434" y="54"/>
      <point x="503" y="85"/>
      <point x="583" y="147" type="curve"/>
      <point x="567" y="164"/>
      <point x="583" y="147"/>
      <point x="567" y="164" type="curve"/>
      <point x="494" y="106"/>
      <point x="430" y="77"/>
      <point x="335" y="77" type="curve"/>
      <point x="171" y="77"/>
      <point x="85" y="195"/>
      <point x="85" y="367" type="curve"/>
      <point x="85" y="544"/>
      <point x="187" y="656"/>
      <point x="359" y="656" type="curve"/>
      <point x="444" y="656"/>
      <point x="502" y="636"/>
      <point x="570" y="589" type="curve"/>
      <point x="585" y="606"/>
      <point x="570" y="589"/>
    </contour>
  </outline>
</glyph>
<glyph name="sterling" format="1">
  <advance width="536"/>
  <unicode hex="00A3"/>
  <outline>
    <contour>
      <point x="462" y="23" type="curve"/>
      <point x="320" y="23"/>
      <point x="182" y="23"/>
      <point x="41" y="23" type="curve"/>
      <point x="41" y="1"/>
      <point x="41" y="23"/>
      <point x="41" y="1" type="curve"/>
      <point x="182" y="1"/>
      <point x="322" y="1"/>
      <point x="462" y="1" type="curve"/>
      <point x="462" y="23"/>
      <point x="462" y="1"/>
    </contour>
    <contour>
      <point x="413" y="388" type="curve"/>
      <point x="301" y="388"/>
      <point x="189" y="388"/>
      <point x="78" y="388" type="curve"/>
      <point x="78" y="366"/>
      <point x="78" y="388"/>
      <point x="78" y="366" type="curve"/>
      <point x="189" y="366"/>
      <point x="301" y="366"/>
      <point x="413" y="366" type="curve"/>
      <point x="413" y="388"/>
      <point x="413" y="366"/>
    </contour>
    <contour>
      <point x="474" y="675" type="curve"/>
      <point x="427" y="707"/>
      <point x="389" y="724"/>
      <point x="333" y="724" type="curve"/>
      <point x="176" y="724"/>
      <point x="136" y="564"/>
      <point x="176" y="375" type="curve"/>
      <point x="216" y="189"/>
      <point x="192" y="23"/>
      <point x="41" y="23" type="curve"/>
      <point x="41" y="1"/>
      <point x="41" y="23"/>
      <point x="41" y="1" type="curve"/>
      <point x="215" y="1"/>
      <point x="243" y="177"/>
      <point x="201" y="379" type="curve"/>
      <point x="165" y="551"/>
      <point x="200" y="702"/>
      <point x="331" y="702" type="curve"/>
      <point x="384" y="702"/>
      <point x="418" y="687"/>
      <point x="460" y="658" type="curve"/>
      <point x="474" y="675"/>
      <point x="460" y="658"/>
    </contour>
  </outline>
</glyph>
<glyph name="currency" format="1">
  <advance width="654"/>
  <unicode hex="00A4"/>
  <outline>
    <contour>
      <point x="186" y="310" type="curve"/>
      <point x="186" y="400"/>
      <point x="239" y="457"/>
      <point x="329" y="457" type="curve"/>
      <point x="419" y="457"/>
      <point x="468" y="400"/>
      <point x="468" y="310" type="curve"/>
      <point x="468" y="219"/>
      <point x="421" y="157"/>
      <point x="332" y="157" type="curve"/>
      <point x="238" y="157"/>
      <point x="186" y="216"/>
      <point x="186" y="310" type="curve"/>
      <point x="161" y="310"/>
      <point x="186" y="310"/>
      <point x="161" y="310" type="curve"/>
      <point x="161" y="202"/>
      <point x="224" y="135"/>
      <point x="331" y="135" type="curve"/>
      <point x="435" y="135"/>
      <point x="493" y="206"/>
      <point x="493" y="311" type="curve"/>
      <point x="493" y="414"/>
      <point x="432" y="480"/>
      <point x="331" y="480" type="curve"/>
      <point x="225" y="480"/>
      <point x="161" y="415"/>
      <point x="161" y="310" type="curve"/>
      <point x="186" y="310"/>
      <point x="161" y="310"/>
    </contour>
    <contour>
      <point x="445" y="417" type="line"/>
      <point x="581" y="547" type="line"/>
      <point x="559" y="570" type="line"/>
      <point x="427" y="435" type="line"/>
    </contour>
    <contour>
      <point x="427" y="185" type="line"/>
      <point x="559" y="49" type="line"/>
      <point x="581" y="72" type="line"/>
      <point x="445" y="202" type="line"/>
    </contour>
    <contour>
      <point x="207" y="203" type="line"/>
      <point x="72" y="72" type="line"/>
      <point x="94" y="50" type="line"/>
      <point x="225" y="185" type="line"/>
    </contour>
    <contour>
      <point x="227" y="435" type="line"/>
      <point x="95" y="570" type="line"/>
      <point x="74" y="548" type="line"/>
      <point x="209" y="417" type="line"/>
    </contour>
  </outline>
</glyph>
<glyph name="yen" format="1">
  <advance width="631"/>
  <unicode hex="00A5"/>
  <outline>
    <contour>
      <point x="550" y="372" type="curve"/>
      <point x="476" y="372"/>
      <point x="403" y="372"/>
      <point x="330" y="372" type="curve"/>
      <point x="330" y="347"/>
      <point x="330" y="372"/>
      <point x="330" y="347" type="curve"/>
      <point x="403" y="347"/>
      <point x="476" y="347"/>
      <point x="550" y="347" type="curve"/>
      <point x="550" y="372"/>
      <point x="550" y="347"/>
    </contour>
    <contour>
      <point x="300" y="372" type="curve"/>
      <point x="227" y="372"/>
      <point x="155" y="372"/>
      <point x="83" y="372" type="curve"/>
      <point x="83" y="347"/>
      <point x="83" y="372"/>
      <point x="83" y="347" type="curve"/>
      <point x="155" y="347"/>
      <point x="227" y="347"/>
      <point x="300" y="347" type="curve"/>
      <point x="300" y="372"/>
      <point x="300" y="347"/>
    </contour>
    <contour>
      <point x="550" y="252" type="curve"/>
      <point x="394" y="252"/>
      <point x="238" y="252"/>
      <point x="83" y="252" type="curve"/>
      <point x="83" y="228"/>
      <point x="83" y="252"/>
      <point x="83" y="228" type="curve"/>
      <point x="238" y="228"/>
      <point x="394" y="228"/>
      <point x="550" y="228" type="curve"/>
      <point x="550" y="252"/>
      <point x="550" y="228"/>
    </contour>
    <contour>
      <point x="53" y="722" type="curve"/>
      <point x="134" y="594"/>
      <point x="216" y="465"/>
      <point x="298" y="337" type="curve"/>
      <point x="326" y="337"/>
      <point x="298" y="339"/>
      <point x="326" y="339" type="curve"/>
      <point x="245" y="467"/>
      <point x="164" y="595"/>
      <point x="83" y="722" type="curve"/>
      <point x="53" y="722"/>
      <point x="82" y="722"/>
    </contour>
    <contour>
      <point x="555" y="722" type="curve"/>
      <point x="469" y="595"/>
      <point x="384" y="467"/>
      <point x="298" y="339" type="curve"/>
      <point x="326" y="339"/>
      <point x="298" y="337"/>
      <point x="326" y="337" type="curve"/>
      <point x="412" y="465"/>
      <point x="498" y="594"/>
      <point x="585" y="722" type="curve"/>
      <point x="555" y="722"/>
      <point x="585" y="722"/>
    </contour>
    <contour>
      <point x="326" y="0" type="curve"/>
      <point x="326" y="115"/>
      <point x="326" y="231"/>
      <point x="326" y="346" type="curve"/>
      <point x="298" y="346"/>
      <point x="326" y="346"/>
      <point x="298" y="346" type="curve"/>
      <point x="298" y="231"/>
      <point x="298" y="115"/>
      <point x="298" y="0" type="curve"/>
      <point x="326" y="0"/>
      <point x="298" y="0"/>
    </contour>
  </outline>
</glyph>
<glyph name="section" format="1">
  <advance width="497"/>
  <unicode hex="00A7"/>
  <outline>
    <contour>
      <point x="403" y="709" type="curve"/>
      <point x="350" y="737"/>
      <point x="310" y="752"/>
      <point x="250" y="752" type="curve"/>
      <point x="162" y="752"/>
      <point x="103" y="707"/>
      <point x="103" y="627" type="curve"/>
      <point x="103" y="549"/>
      <point x="157" y="511"/>
      <point x="232" y="484" type="curve"/>
      <point x="321" y="455"/>
      <point x="410" y="446"/>
      <point x="410" y="361" type="curve"/>
      <point x="410" y="287"/>
      <point x="360" y="244"/>
      <point x="280" y="229" type="curve"/>
      <point x="295" y="211"/>
      <point x="280" y="229"/>
      <point x="295" y="211" type="curve"/>
      <point x="381" y="232"/>
      <point x="434" y="277"/>
      <point x="434" y="361" type="curve"/>
      <point x="433" y="459"/>
      <point x="343" y="475"/>
      <point x="245" y="505" type="curve"/>
      <point x="178" y="528"/>
      <point x="128" y="560"/>
      <point x="128" y="627" type="curve"/>
      <point x="128" y="693"/>
      <point x="174" y="730"/>
      <point x="248" y="730" type="curve"/>
      <point x="304" y="730"/>
      <point x="342" y="716"/>
      <point x="391" y="691" type="curve"/>
      <point x="403" y="709"/>
      <point x="391" y="691"/>
    </contour>
    <contour>
      <point x="199" y="513" type="curve"/>
      <point x="120" y="489"/>
      <point x="68" y="447"/>
      <point x="68" y="367" type="curve"/>
      <point x="68" y="274"/>
      <point x="148" y="249"/>
      <point x="242" y="220" type="curve"/>
      <point x="315" y="194"/>
      <point x="379" y="172"/>
      <point x="379" y="100" type="curve"/>
      <point x="379" y="32"/>
      <point x="328" y="-7"/>
      <point x="252" y="-7" type="curve"/>
      <point x="187" y="-7"/>
      <point x="145" y="11"/>
      <point x="92" y="45" type="curve"/>
      <point x="77" y="28"/>
      <point x="92" y="45"/>
      <point x="77" y="28" type="curve"/>
      <point x="134" y="-11"/>
      <point x="182" y="-29"/>
      <point x="251" y="-29" type="curve"/>
      <point x="341" y="-29"/>
      <point x="404" y="13"/>
      <point x="404" y="100" type="curve"/>
      <point x="403" y="182"/>
      <point x="340" y="215"/>
      <point x="257" y="240" type="curve"/>
      <point x="173" y="268"/>
      <point x="93" y="287"/>
      <point x="93" y="367" type="curve"/>
      <point x="93" y="439"/>
      <point x="140" y="474"/>
      <point x="211" y="497" type="curve"/>
      <point x="199" y="513"/>
      <point x="211" y="497"/>
    </contour>
  </outline>
</glyph>
<glyph name="dieresis" format="1">
  <advance width="423"/>
  <unicode hex="00A8"/>
  <outline>
    <contour>
      <point x="147" y="668" type="curve"/>
      <point x="147" y="680"/>
      <point x="139" y="687"/>
      <point x="127" y="687" type="curve"/>
      <point x="116" y="687"/>
      <point x="109" y="679"/>
      <point x="109" y="668" type="curve"/>
      <point x="134" y="668"/>
      <point x="122" y="668"/>
      <point x="147" y="668" type="curve"/>
      <point x="147" y="657"/>
      <point x="139" y="650"/>
      <point x="127" y="650" type="curve"/>
      <point x="116" y="650"/>
      <point x="109" y="657"/>
      <point x="109" y="668" type="curve"/>
      <point x="134" y="668"/>
      <point x="122" y="668"/>
    </contour>
    <contour>
      <point x="273" y="668" type="curve"/>
      <point x="273" y="680"/>
      <point x="265" y="687"/>
      <point x="254" y="687" type="curve"/>
      <point x="242" y="687"/>
      <point x="235" y="679"/>
      <point x="235" y="668" type="curve"/>
      <point x="261" y="668"/>
      <point x="248" y="668"/>
      <point x="273" y="668" type="curve"/>
      <point x="273" y="657"/>
      <point x="265" y="650"/>
      <point x="254" y="650" type="curve"/>
      <point x="242" y="650"/>
      <point x="235" y="657"/>
      <point x="235" y="668" type="curve"/>
      <point x="261" y="668"/>
      <point x="248" y="668"/>
    </contour>
    <contour>
      <point x="191" y="652" type="move" name="_top"/>
    </contour>
  </outline>
</glyph>
<glyph name="copyright" format="1">
  <advance width="802"/>
  <unicode hex="00A9"/>
  <outline>
    <contour>
      <point x="98" y="319" type="curve"/>
      <point x="98" y="503"/>
      <point x="220" y="624"/>
      <point x="405" y="624" type="curve"/>
      <point x="586" y="624"/>
      <point x="705" y="501"/>
      <point x="705" y="318" type="curve"/>
      <point x="705" y="139"/>
      <point x="589" y="18"/>
      <point x="411" y="18" type="curve"/>
      <point x="226" y="18"/>
      <point x="98" y="134"/>
      <point x="98" y="319" type="curve"/>
      <point x="73" y="319"/>
      <point x="98" y="319"/>
      <point x="73" y="319" type="curve"/>
      <point x="73" y="123"/>
      <point x="210" y="-4"/>
      <point x="410" y="-4" type="curve"/>
      <point x="603" y="-4"/>
      <point x="729" y="126"/>
      <point x="729" y="319" type="curve"/>
      <point x="729" y="515"/>
      <point x="600" y="645"/>
      <point x="405" y="645" type="curve"/>
      <point x="207" y="645"/>
      <point x="73" y="517"/>
      <point x="73" y="319" type="curve"/>
      <point x="98" y="319"/>
      <point x="73" y="319"/>
    </contour>
    <contour>
      <point x="529" y="464" type="curve"/>
      <point x="490" y="487"/>
      <point x="458" y="496"/>
      <point x="411" y="496" type="curve"/>
      <point x="304" y="496"/>
      <point x="240" y="427"/>
      <point x="240" y="319" type="curve"/>
      <point x="240" y="214"/>
      <point x="296" y="146"/>
      <point x="399" y="146" type="curve"/>
      <point x="456" y="146"/>
      <point x="497" y="158"/>
      <point x="542" y="193" type="curve"/>
      <point x="526" y="209"/>
      <point x="542" y="193"/>
      <point x="526" y="209" type="curve"/>
      <point x="487" y="179"/>
      <point x="451" y="168"/>
      <point x="400" y="168" type="curve"/>
      <point x="311" y="168"/>
      <point x="265" y="229"/>
      <point x="265" y="320" type="curve"/>
      <point x="265" y="414"/>
      <point x="316" y="474"/>
      <point x="410" y="474" type="curve"/>
      <point x="451" y="474"/>
      <point x="479" y="467"/>
      <point x="519" y="446" type="curve"/>
      <point x="529" y="464"/>
      <point x="519" y="446"/>
    </contour>
  </outline>
</glyph>
<glyph name="ordfeminine" format="1">
  <advance width="420"/>
  <unicode hex="00AA"/>
  <outline>
    <contour>
      <point x="328" y="428" type="curve"/>
      <point x="328" y="521"/>
      <point x="328" y="587"/>
      <point x="328" y="681" type="curve"/>
      <point x="328" y="743"/>
      <point x="275" y="766"/>
      <point x="207" y="766" type="curve"/>
      <point x="156" y="766"/>
      <point x="114" y="745"/>
      <point x="84" y="715" type="curve"/>
      <point x="88" y="708"/>
      <point x="91" y="705"/>
      <point x="95" y="697" type="curve"/>
      <point x="121" y="720"/>
      <point x="158" y="743"/>
      <point x="204" y="743" type="curve"/>
      <point x="259" y="743"/>
      <point x="302" y="725"/>
      <point x="302" y="674" type="curve"/>
      <point x="302" y="583"/>
      <point x="302" y="519"/>
      <point x="302" y="428" type="curve"/>
      <point x="312" y="428"/>
      <point x="318" y="428"/>
    </contour>
    <contour>
      <point x="314" y="631" type="curve"/>
      <point x="264" y="625"/>
      <point x="229" y="623"/>
      <point x="179" y="617" type="curve"/>
      <point x="116" y="608"/>
      <point x="71" y="578"/>
      <point x="71" y="516" type="curve"/>
      <point x="71" y="455"/>
      <point x="116" y="423"/>
      <point x="182" y="423" type="curve"/>
      <point x="247" y="423"/>
      <point x="289" y="464"/>
      <point x="321" y="515" type="curve"/>
      <point x="317" y="519"/>
      <point x="313" y="523"/>
      <point x="309" y="527" type="curve"/>
      <point x="281" y="483"/>
      <point x="244" y="446"/>
      <point x="187" y="446" type="curve"/>
      <point x="134" y="446"/>
      <point x="95" y="469"/>
      <point x="95" y="518" type="curve"/>
      <point x="95" y="566"/>
      <point x="130" y="589"/>
      <point x="178" y="596" type="curve"/>
      <point x="228" y="603"/>
      <point x="265" y="605"/>
      <point x="315" y="612" type="curve"/>
      <point x="315" y="619"/>
      <point x="314" y="624"/>
    </contour>
  </outline>
</glyph>
<glyph name="guillemotleft" format="1">
  <advance width="616"/>
  <unicode hex="00AB"/>
  <outline>
    <contour>
      <point x="296" y="399" type="curve"/>
      <point x="295" y="399"/>
      <point x="52" y="289"/>
      <point x="51" y="289" type="curve"/>
      <point x="51" y="264"/>
      <point x="51" y="289"/>
      <point x="51" y="264" type="curve"/>
      <point x="52" y="264"/>
      <point x="295" y="374"/>
      <point x="296" y="375" type="curve"/>
      <point x="296" y="399"/>
      <point x="296" y="375"/>
    </contour>
    <contour>
      <point x="296" y="178" type="curve"/>
      <point x="296" y="178"/>
      <point x="52" y="288"/>
      <point x="51" y="289" type="curve"/>
      <point x="51" y="264"/>
      <point x="51" y="289"/>
      <point x="51" y="264" type="curve"/>
      <point x="52" y="264"/>
      <point x="296" y="154"/>
      <point x="296" y="154" type="curve"/>
      <point x="296" y="178"/>
      <point x="296" y="154"/>
    </contour>
    <contour>
      <point x="533" y="399" type="curve"/>
      <point x="532" y="399"/>
      <point x="289" y="289"/>
      <point x="288" y="289" type="curve"/>
      <point x="288" y="264"/>
      <point x="288" y="289"/>
      <point x="288" y="264" type="curve"/>
      <point x="289" y="264"/>
      <point x="532" y="374"/>
      <point x="533" y="375" type="curve"/>
      <point x="533" y="399"/>
      <point x="533" y="375"/>
    </contour>
    <contour>
      <point x="533" y="178" type="curve"/>
      <point x="533" y="178"/>
      <point x="289" y="288"/>
      <point x="288" y="289" type="curve"/>
      <point x="288" y="264"/>
      <point x="288" y="289"/>
      <point x="288" y="264" type="curve"/>
      <point x="289" y="264"/>
      <point x="533" y="154"/>
      <point x="533" y="154" type="curve"/>
      <point x="533" y="178"/>
      <point x="533" y="154"/>
    </contour>
  </outline>
</glyph>
<glyph name="logicalnot" format="1">
  <advance width="726"/>
  <unicode hex="00AC"/>
  <outline>
    <contour>
      <point x="95" y="297" type="curve"/>
      <point x="629" y="297" type="line"/>
      <point x="629" y="322"/>
      <point x="629" y="297"/>
      <point x="629" y="322" type="curve"/>
      <point x="95" y="322" type="line"/>
      <point x="95" y="297"/>
      <point x="95" y="322"/>
    </contour>
    <contour>
      <point x="629" y="153" type="curve"/>
      <point x="629" y="322" type="line"/>
      <point x="603" y="322"/>
      <point x="629" y="322"/>
      <point x="604" y="322" type="curve"/>
      <point x="604" y="153" type="line"/>
      <point x="629" y="153"/>
      <point x="603" y="153"/>
    </contour>
  </outline>
</glyph>
<glyph name="registered" format="1">
  <advance width="803"/>
  <unicode hex="00AE"/>
  <outline>
    <contour>
      <point x="98" y="319" type="curve"/>
      <point x="98" y="503"/>
      <point x="220" y="624"/>
      <point x="406" y="624" type="curve"/>
      <point x="586" y="624"/>
      <point x="705" y="501"/>
      <point x="705" y="318" type="curve"/>
      <point x="705" y="139"/>
      <point x="590" y="18"/>
      <point x="412" y="18" type="curve"/>
      <point x="227" y="18"/>
      <point x="98" y="134"/>
      <point x="98" y="319" type="curve"/>
      <point x="74" y="319"/>
      <point x="98" y="319"/>
      <point x="74" y="319" type="curve"/>
      <point x="74" y="123"/>
      <point x="211" y="-4"/>
      <point x="411" y="-4" type="curve"/>
      <point x="604" y="-4"/>
      <point x="729" y="126"/>
      <point x="729" y="319" type="curve"/>
      <point x="729" y="515"/>
      <point x="600" y="645"/>
      <point x="406" y="645" type="curve"/>
      <point x="208" y="645"/>
      <point x="74" y="517"/>
      <point x="74" y="319" type="curve"/>
      <point x="98" y="319"/>
      <point x="74" y="319"/>
    </contour>
    <contour>
      <point x="414" y="309" type="curve"/>
      <point x="424" y="284"/>
      <point x="497" y="174"/>
      <point x="507" y="149" type="curve"/>
      <point x="522" y="149"/>
      <point x="515" y="149"/>
      <point x="532" y="149" type="curve"/>
      <point x="522" y="173"/>
      <point x="452" y="284"/>
      <point x="441" y="310" type="curve"/>
      <point x="413" y="309"/>
      <point x="443" y="310"/>
    </contour>
    <contour>
      <point x="338" y="149" type="curve"/>
      <point x="338" y="259"/>
      <point x="338" y="381"/>
      <point x="338" y="491" type="curve"/>
      <point x="323" y="491"/>
      <point x="330" y="491"/>
      <point x="314" y="491" type="curve"/>
      <point x="314" y="381"/>
      <point x="314" y="259"/>
      <point x="314" y="149" type="curve"/>
      <point x="330" y="149"/>
      <point x="323" y="149"/>
    </contour>
    <contour>
      <point x="328" y="295" type="curve"/>
      <point x="349" y="295"/>
      <point x="372" y="295"/>
      <point x="393" y="295" type="curve"/>
      <point x="465" y="295"/>
      <point x="514" y="322"/>
      <point x="514" y="392" type="curve"/>
      <point x="514" y="457"/>
      <point x="468" y="491"/>
      <point x="402" y="491" type="curve"/>
      <point x="381" y="491"/>
      <point x="359" y="491"/>
      <point x="338" y="491" type="curve"/>
      <point x="314" y="469"/>
      <point x="338" y="491"/>
      <point x="314" y="469" type="curve"/>
      <point x="342" y="469"/>
      <point x="370" y="469"/>
      <point x="398" y="469" type="curve"/>
      <point x="452" y="469"/>
      <point x="489" y="443"/>
      <point x="489" y="390" type="curve"/>
      <point x="489" y="336"/>
      <point x="452" y="317"/>
      <point x="397" y="317" type="curve"/>
      <point x="374" y="317"/>
      <point x="350" y="317"/>
      <point x="328" y="317" type="curve"/>
      <point x="328" y="295"/>
      <point x="328" y="317"/>
    </contour>
  </outline>
</glyph>
<glyph name="macron" format="1">
  <advance width="337"/>
  <unicode hex="00AF"/>
  <outline>
    <contour>
      <point x="277" y="680" type="curve"/>
      <point x="198" y="680"/>
      <point x="120" y="680"/>
      <point x="42" y="680" type="curve"/>
      <point x="42" y="658"/>
      <point x="42" y="680"/>
      <point x="42" y="658" type="curve"/>
      <point x="120" y="658"/>
      <point x="198" y="658"/>
      <point x="277" y="658" type="curve"/>
      <point x="277" y="680"/>
      <point x="277" y="658"/>
    </contour>
    <contour>
      <point x="162" y="658" type="move" name="_top"/>
    </contour>
  </outline>
</glyph>
<glyph name="degree" format="1">
  <advance width="492"/>
  <unicode hex="00B0"/>
  <outline>
    <contour>
      <point x="417" y="432" type="curve"/>
      <point x="417" y="553"/>
      <point x="361" y="639"/>
      <point x="245" y="639" type="curve"/>
      <point x="131" y="639"/>
      <point x="76" y="554"/>
      <point x="76" y="434" type="curve"/>
      <point x="99" y="434"/>
      <point x="76" y="434"/>
      <point x="99" y="434" type="curve"/>
      <point x="99" y="540"/>
      <point x="143" y="617"/>
      <point x="243" y="617" type="curve"/>
      <point x="345" y="617"/>
      <point x="393" y="540"/>
      <point x="393" y="432" type="curve"/>
      <point x="393" y="321"/>
      <point x="349" y="240"/>
      <point x="246" y="240" type="curve"/>
      <point x="142" y="240"/>
      <point x="99" y="323"/>
      <point x="99" y="434" type="curve"/>
      <point x="76" y="434"/>
      <point x="99" y="434"/>
      <point x="76" y="434" type="curve"/>
      <point x="76" y="309"/>
      <point x="128" y="218"/>
      <point x="245" y="218" type="curve"/>
      <point x="363" y="218"/>
      <point x="417" y="308"/>
    </contour>
  </outline>
</glyph>
<glyph name="plusminus" format="1">
  <advance width="701"/>
  <unicode hex="00B1"/>
  <outline>
    <contour>
      <point x="72" y="18" type="line"/>
      <point x="630" y="18" type="line"/>
      <point x="630" y="43" type="line"/>
      <point x="72" y="43" type="line"/>
    </contour>
    <contour>
      <point x="72" y="297" type="curve"/>
      <point x="630" y="297" type="line"/>
      <point x="630" y="322"/>
      <point x="630" y="297"/>
      <point x="630" y="322" type="curve"/>
      <point x="72" y="322" type="line"/>
      <point x="72" y="297"/>
      <point x="72" y="322"/>
    </contour>
    <contour>
      <point x="360" y="18" type="curve"/>
      <point x="360" y="588" type="line"/>
      <point x="335" y="588"/>
      <point x="360" y="588"/>
      <point x="335" y="588" type="curve"/>
      <point x="335" y="18" type="line"/>
      <point x="360" y="18"/>
      <point x="335" y="18"/>
    </contour>
  </outline>
</glyph>
<glyph name="twosuperior" format="1">
  <advance width="475"/>
  <unicode hex="00B2"/>
  <outline>
    <contour>
      <point x="68" y="289" type="curve"/>
      <point x="182" y="289"/>
      <point x="290" y="289"/>
      <point x="398" y="289" type="curve"/>
      <point x="398" y="301"/>
      <point x="398" y="300"/>
      <point x="398" y="311" type="curve"/>
      <point x="291" y="311"/>
      <point x="174" y="311"/>
      <point x="68" y="311" type="curve"/>
      <point x="68" y="289"/>
      <point x="68" y="311"/>
    </contour>
    <contour>
      <point x="118" y="607" type="curve"/>
      <point x="148" y="653"/>
      <point x="183" y="681"/>
      <point x="242" y="681" type="curve"/>
      <point x="309" y="681"/>
      <point x="353" y="648"/>
      <point x="353" y="584" type="curve"/>
      <point x="353" y="527"/>
      <point x="315" y="501"/>
      <point x="272" y="464" type="curve"/>
      <point x="204" y="413"/>
      <point x="135" y="362"/>
      <point x="68" y="311" type="curve"/>
      <point x="78" y="289"/>
      <point x="68" y="311"/>
      <point x="78" y="289" type="curve"/>
      <point x="148" y="342"/>
      <point x="218" y="394"/>
      <point x="288" y="447" type="curve"/>
      <point x="336" y="489"/>
      <point x="377" y="520"/>
      <point x="377" y="585" type="curve"/>
      <point x="377" y="662"/>
      <point x="323" y="704"/>
      <point x="244" y="704" type="curve"/>
      <point x="176" y="704"/>
      <point x="130" y="676"/>
      <point x="98" y="618" type="curve"/>
      <point x="118" y="607"/>
      <point x="98" y="618"/>
    </contour>
    <contour>
      <point x="256" y="703" type="move" name="_top"/>
    </contour>
    <contour>
      <point x="224" y="288" type="move" name="_bottom"/>
    </contour>
  </outline>
</glyph>
<glyph name="threesuperior" format="1">
  <advance width="423"/>
  <unicode hex="00B3"/>
  <outline>
    <contour>
      <point x="95" y="637" type="curve"/>
      <point x="124" y="663"/>
      <point x="157" y="682"/>
      <point x="198" y="682" type="curve"/>
      <point x="263" y="682"/>
      <point x="311" y="658"/>
      <point x="311" y="596" type="curve"/>
      <point x="311" y="525"/>
      <point x="233" y="513"/>
      <point x="152" y="508" type="curve"/>
      <point x="152" y="489"/>
      <point x="152" y="508"/>
      <point x="152" y="489" type="curve"/>
      <point x="250" y="491"/>
      <point x="336" y="511"/>
      <point x="336" y="598" type="curve"/>
      <point x="336" y="672"/>
      <point x="279" y="703"/>
      <point x="201" y="703" type="curve"/>
      <point x="153" y="703"/>
      <point x="110" y="682"/>
      <point x="79" y="651" type="curve"/>
      <point x="95" y="637"/>
      <point x="79" y="651"/>
    </contour>
    <contour>
      <point x="73" y="317" type="curve"/>
      <point x="109" y="295"/>
      <point x="147" y="284"/>
      <point x="190" y="284" type="curve"/>
      <point x="283" y="281"/>
      <point x="354" y="312"/>
      <point x="352" y="397" type="curve"/>
      <point x="352" y="491"/>
      <point x="257" y="498"/>
      <point x="152" y="501" type="curve"/>
      <point x="152" y="485"/>
      <point x="152" y="501"/>
      <point x="152" y="485" type="curve"/>
      <point x="246" y="480"/>
      <point x="328" y="471"/>
      <point x="328" y="396" type="curve"/>
      <point x="327" y="327"/>
      <point x="270" y="304"/>
      <point x="192" y="306" type="curve"/>
      <point x="154" y="306"/>
      <point x="119" y="315"/>
      <point x="85" y="333" type="curve"/>
      <point x="73" y="317"/>
      <point x="85" y="333"/>
    </contour>
    <contour>
      <point x="216" y="703" type="move" name="_top"/>
    </contour>
    <contour>
      <point x="203" y="284" type="move" name="_bottom"/>
    </contour>
  </outline>
</glyph>
<glyph name="paragraph" format="1">
  <advance width="718"/>
  <unicode hex="00B6"/>
  <outline>
    <contour>
      <point x="438" y="699" type="curve"/>
      <point x="606" y="699"/>
      <point x="438" y="699"/>
      <point x="606" y="699" type="curve"/>
      <point x="606" y="722"/>
      <point x="606" y="699"/>
      <point x="606" y="722" type="curve"/>
      <point x="550" y="722"/>
      <point x="494" y="722"/>
      <point x="438" y="722" type="curve"/>
      <point x="438" y="699"/>
      <point x="438" y="722"/>
    </contour>
    <contour>
      <point x="433" y="346" type="curve"/>
      <point x="379" y="319"/>
      <point x="336" y="303"/>
      <point x="275" y="303" type="curve"/>
      <point x="154" y="303"/>
      <point x="74" y="373"/>
      <point x="74" y="493" type="curve"/>
      <point x="74" y="625"/>
      <point x="168" y="699"/>
      <point x="305" y="699" type="curve"/>
      <point x="348" y="699"/>
      <point x="392" y="699"/>
      <point x="435" y="699" type="curve"/>
      <point x="435" y="722"/>
      <point x="435" y="699"/>
      <point x="435" y="722" type="curve"/>
      <point x="391" y="722"/>
      <point x="346" y="722"/>
      <point x="302" y="722" type="curve"/>
      <point x="152" y="722"/>
      <point x="48" y="639"/>
      <point x="48" y="494" type="curve"/>
      <point x="48" y="357"/>
      <point x="140" y="282"/>
      <point x="277" y="280" type="curve"/>
      <point x="338" y="280"/>
      <point x="388" y="299"/>
      <point x="441" y="325" type="curve"/>
      <point x="433" y="346"/>
      <point x="441" y="326"/>
    </contour>
    <contour>
      <point x="453" y="0" type="curve"/>
      <point x="453" y="241"/>
      <point x="453" y="481"/>
      <point x="453" y="722" type="curve"/>
      <point x="427" y="722"/>
      <point x="453" y="722"/>
      <point x="427" y="722" type="curve"/>
      <point x="427" y="481"/>
      <point x="427" y="241"/>
      <point x="427" y="0" type="curve"/>
      <point x="453" y="0"/>
      <point x="427" y="0"/>
    </contour>
    <contour>
      <point x="617" y="0" type="curve"/>
      <point x="617" y="241"/>
      <point x="617" y="481"/>
      <point x="617" y="722" type="curve"/>
      <point x="591" y="722"/>
      <point x="617" y="722"/>
      <point x="591" y="722" type="curve"/>
      <point x="591" y="481"/>
      <point x="591" y="241"/>
      <point x="591" y="0" type="curve"/>
      <point x="617" y="0"/>
      <point x="591" y="0"/>
    </contour>
  </outline>
</glyph>
<glyph name="cedilla" format="1">
  <advance width="317"/>
  <unicode hex="00B8"/>
  <outline>
    <contour>
      <point x="181" y="19" type="curve"/>
      <point x="165" y="-8"/>
      <point x="149" y="-36"/>
      <point x="134" y="-62" type="curve"/>
      <point x="151" y="-80"/>
      <point x="134" y="-62"/>
      <point x="151" y="-80" type="curve"/>
      <point x="166" y="-52"/>
      <point x="184" y="-24"/>
      <point x="199" y="3" type="curve"/>
      <point x="181" y="19"/>
      <point x="199" y="3"/>
    </contour>
    <contour>
      <point x="151" y="-81" type="curve"/>
      <point x="167" y="-71"/>
      <point x="180" y="-68"/>
      <point x="199" y="-68" type="curve"/>
      <point x="234" y="-68"/>
      <point x="254" y="-89"/>
      <point x="254" y="-124" type="curve"/>
      <point x="254" y="-162"/>
      <point x="225" y="-179"/>
      <point x="185" y="-179" type="curve"/>
      <point x="157" y="-179"/>
      <point x="136" y="-176"/>
      <point x="112" y="-162" type="curve"/>
      <point x="102" y="-180"/>
      <point x="112" y="-162"/>
      <point x="102" y="-180" type="curve"/>
      <point x="129" y="-195"/>
      <point x="152" y="-201"/>
      <point x="184" y="-201" type="curve"/>
      <point x="239" y="-201"/>
      <point x="279" y="-177"/>
      <point x="279" y="-124" type="curve"/>
      <point x="279" y="-76"/>
      <point x="249" y="-46"/>
      <point x="201" y="-46" type="curve"/>
      <point x="175" y="-46"/>
      <point x="157" y="-52"/>
      <point x="134" y="-63" type="curve"/>
      <point x="151" y="-81"/>
      <point x="134" y="-63"/>
    </contour>
    <contour>
      <point x="198" y="3" type="move" name="_bottom"/>
    </contour>
  </outline>
</glyph>
<glyph name="onesuperior" format="1">
  <advance width="294"/>
  <unicode hex="00B9"/>
  <outline>
    <contour>
      <point x="48" y="568" type="line"/>
      <point x="196" y="687" type="line"/>
      <point x="172" y="696" type="line"/>
      <point x="34" y="585" type="line"/>
    </contour>
    <contour>
      <point x="197" y="289" type="curve"/>
      <point x="197" y="696" type="line"/>
      <point x="172" y="696" type="line"/>
      <point x="172" y="289" type="line"/>
      <point x="190" y="289"/>
      <point x="184" y="289"/>
    </contour>
    <contour>
      <point x="185" y="693" type="move" name="_top"/>
    </contour>
    <contour>
      <point x="184" y="291" type="move" name="_bottom"/>
    </contour>
  </outline>
</glyph>
<glyph name="ordmasculine" format="1">
  <advance width="433"/>
  <unicode hex="00BA"/>
  <outline>
    <contour>
      <point x="88" y="602" type="curve"/>
      <point x="88" y="690"/>
      <point x="133" y="746"/>
      <point x="217" y="746" type="curve"/>
      <point x="300" y="746"/>
      <point x="344" y="688"/>
      <point x="344" y="600" type="curve"/>
      <point x="344" y="508"/>
      <point x="302" y="443"/>
      <point x="221" y="443" type="curve"/>
      <point x="133" y="443"/>
      <point x="88" y="508"/>
      <point x="88" y="602" type="curve"/>
      <point x="72" y="602"/>
      <point x="80" y="602"/>
      <point x="64" y="602" type="curve"/>
      <point x="64" y="494"/>
      <point x="117" y="420"/>
      <point x="220" y="420" type="curve"/>
      <point x="318" y="420"/>
      <point x="369" y="494"/>
      <point x="369" y="600" type="curve"/>
      <point x="369" y="702"/>
      <point x="317" y="767"/>
      <point x="218" y="767" type="curve"/>
      <point x="118" y="767"/>
      <point x="64" y="702"/>
      <point x="64" y="602" type="curve"/>
      <point x="80" y="602"/>
      <point x="72" y="602"/>
    </contour>
  </outline>
</glyph>
<glyph name="guillemotright" format="1">
  <advance width="634"/>
  <unicode hex="00BB"/>
  <outline>
    <contour>
      <point x="332" y="399" type="curve"/>
      <point x="333" y="399"/>
      <point x="576" y="289"/>
      <point x="577" y="289" type="curve"/>
      <point x="577" y="264"/>
      <point x="577" y="289"/>
      <point x="577" y="264" type="curve"/>
      <point x="576" y="264"/>
      <point x="333" y="374"/>
      <point x="332" y="375" type="curve"/>
      <point x="332" y="399"/>
      <point x="332" y="375"/>
    </contour>
    <contour>
      <point x="332" y="178" type="curve"/>
      <point x="332" y="178"/>
      <point x="576" y="288"/>
      <point x="577" y="289" type="curve"/>
      <point x="577" y="264"/>
      <point x="577" y="289"/>
      <point x="577" y="264" type="curve"/>
      <point x="576" y="264"/>
      <point x="332" y="154"/>
      <point x="332" y="154" type="curve"/>
      <point x="332" y="178"/>
      <point x="332" y="154"/>
    </contour>
    <contour>
      <point x="95" y="399" type="curve"/>
      <point x="96" y="399"/>
      <point x="339" y="289"/>
      <point x="340" y="289" type="curve"/>
      <point x="340" y="264"/>
      <point x="340" y="289"/>
      <point x="340" y="264" type="curve"/>
      <point x="339" y="264"/>
      <point x="96" y="374"/>
      <point x="95" y="375" type="curve"/>
      <point x="95" y="399"/>
      <point x="95" y="375"/>
    </contour>
    <contour>
      <point x="95" y="178" type="curve"/>
      <point x="95" y="178"/>
      <point x="339" y="288"/>
      <point x="340" y="289" type="curve"/>
      <point x="340" y="264"/>
      <point x="340" y="289"/>
      <point x="340" y="264" type="curve"/>
      <point x="339" y="264"/>
      <point x="95" y="154"/>
      <point x="95" y="154" type="curve"/>
      <point x="95" y="178"/>
      <point x="95" y="154"/>
    </contour>
  </outline>
</glyph>
<glyph name="onequarter" format="1">
  <advance width="1004"/>
  <unicode hex="00BC"/>
  <outline>
    <contour>
      <point x="303" y="-92" type="line"/>
      <point x="748" y="756" type="line"/>
      <point x="720" y="756" type="line"/>
      <point x="275" y="-92" type="line"/>
    </contour>
    <contour>
      <point x="49" y="633" type="line"/>
      <point x="197" y="751" type="line"/>
      <point x="173" y="761" type="line"/>
      <point x="35" y="650" type="line"/>
    </contour>
    <contour>
      <point x="198" y="354" type="curve"/>
      <point x="198" y="761" type="line"/>
      <point x="173" y="761" type="line"/>
      <point x="173" y="354" type="line"/>
      <point x="192" y="354"/>
      <point x="185" y="354"/>
    </contour>
    <contour>
      <point x="966" y="40" type="line"/>
      <point x="583" y="40" type="line"/>
      <point x="583" y="19" type="line"/>
      <point x="966" y="19" type="line"/>
    </contour>
    <contour>
      <point x="597" y="20" type="line"/>
      <point x="854" y="325" type="line"/>
      <point x="830" y="334" type="line"/>
      <point x="583" y="40" type="line"/>
    </contour>
    <contour>
      <point x="854" y="-99" type="line"/>
      <point x="854" y="334" type="line"/>
      <point x="830" y="334" type="line"/>
      <point x="830" y="-99" type="line"/>
    </contour>
  </outline>
</glyph>
<glyph name="onehalf" format="1">
  <advance width="1048"/>
  <unicode hex="00BD"/>
  <outline>
    <contour>
      <point x="309" y="-92" type="line"/>
      <point x="754" y="756" type="line"/>
      <point x="725" y="756" type="line"/>
      <point x="281" y="-92" type="line"/>
    </contour>
    <contour>
      <point x="49" y="633" type="line"/>
      <point x="197" y="751" type="line"/>
      <point x="173" y="761" type="line"/>
      <point x="35" y="650" type="line"/>
    </contour>
    <contour>
      <point x="198" y="354" type="curve"/>
      <point x="198" y="761" type="line"/>
      <point x="173" y="761" type="line"/>
      <point x="173" y="354" type="line"/>
      <point x="192" y="354"/>
      <point x="185" y="354"/>
    </contour>
    <contour>
      <point x="672" y="-95" type="curve"/>
      <point x="787" y="-95"/>
      <point x="894" y="-95"/>
      <point x="1002" y="-95" type="curve"/>
      <point x="1002" y="-82"/>
      <point x="1002" y="-83"/>
      <point x="1002" y="-72" type="curve"/>
      <point x="896" y="-72"/>
      <point x="779" y="-72"/>
      <point x="672" y="-72" type="curve"/>
      <point x="672" y="-94"/>
      <point x="672" y="-72"/>
    </contour>
    <contour>
      <point x="723" y="223" type="curve"/>
      <point x="752" y="270"/>
      <point x="788" y="298"/>
      <point x="847" y="298" type="curve"/>
      <point x="914" y="298"/>
      <point x="958" y="264"/>
      <point x="958" y="200" type="curve"/>
      <point x="958" y="144"/>
      <point x="920" y="118"/>
      <point x="877" y="81" type="curve"/>
      <point x="808" y="30"/>
      <point x="740" y="-21"/>
      <point x="672" y="-72" type="curve"/>
      <point x="683" y="-94"/>
      <point x="672" y="-72"/>
      <point x="683" y="-94" type="curve"/>
      <point x="753" y="-42"/>
      <point x="823" y="11"/>
      <point x="893" y="63" type="curve"/>
      <point x="940" y="106"/>
      <point x="981" y="137"/>
      <point x="981" y="201" type="curve"/>
      <point x="981" y="278"/>
      <point x="927" y="320"/>
      <point x="848" y="320" type="curve"/>
      <point x="781" y="320"/>
      <point x="735" y="293"/>
      <point x="703" y="234" type="curve"/>
      <point x="723" y="223"/>
      <point x="703" y="234"/>
    </contour>
  </outline>
</glyph>
<glyph name="threequarters" format="1">
  <advance width="1020"/>
  <unicode hex="00BE"/>
  <outline>
    <contour>
      <point x="320" y="-92" type="line"/>
      <point x="765" y="756" type="line"/>
      <point x="737" y="756" type="line"/>
      <point x="292" y="-92" type="line"/>
    </contour>
    <contour>
      <point x="77" y="692" type="curve"/>
      <point x="106" y="718"/>
      <point x="139" y="737"/>
      <point x="180" y="737" type="curve"/>
      <point x="245" y="737"/>
      <point x="294" y="713"/>
      <point x="294" y="652" type="curve"/>
      <point x="294" y="580"/>
      <point x="215" y="569"/>
      <point x="134" y="563" type="curve"/>
      <point x="134" y="544"/>
      <point x="134" y="563"/>
      <point x="134" y="544" type="curve"/>
      <point x="233" y="546"/>
      <point x="318" y="566"/>
      <point x="318" y="654" type="curve"/>
      <point x="318" y="727"/>
      <point x="262" y="758"/>
      <point x="183" y="758" type="curve"/>
      <point x="135" y="758"/>
      <point x="92" y="738"/>
      <point x="61" y="706" type="curve"/>
      <point x="77" y="692"/>
      <point x="61" y="706"/>
    </contour>
    <contour>
      <point x="55" y="373" type="curve"/>
      <point x="92" y="351"/>
      <point x="129" y="340"/>
      <point x="172" y="340" type="curve"/>
      <point x="265" y="336"/>
      <point x="337" y="367"/>
      <point x="334" y="452" type="curve"/>
      <point x="334" y="546"/>
      <point x="239" y="554"/>
      <point x="134" y="556" type="curve"/>
      <point x="134" y="540"/>
      <point x="134" y="556"/>
      <point x="134" y="540" type="curve"/>
      <point x="228" y="535"/>
      <point x="310" y="526"/>
      <point x="310" y="451" type="curve"/>
      <point x="309" y="382"/>
      <point x="252" y="359"/>
      <point x="175" y="361" type="curve"/>
      <point x="136" y="361"/>
      <point x="101" y="370"/>
      <point x="67" y="389" type="curve"/>
      <point x="55" y="373"/>
      <point x="67" y="389"/>
    </contour>
    <contour>
      <point x="983" y="40" type="line"/>
      <point x="600" y="40" type="line"/>
      <point x="600" y="19" type="line"/>
      <point x="983" y="19" type="line"/>
    </contour>
    <contour>
      <point x="614" y="20" type="line"/>
      <point x="871" y="325" type="line"/>
      <point x="847" y="334" type="line"/>
      <point x="600" y="40" type="line"/>
    </contour>
    <contour>
      <point x="871" y="-99" type="line"/>
      <point x="871" y="334" type="line"/>
      <point x="847" y="334" type="line"/>
      <point x="847" y="-99" type="line"/>
    </contour>
  </outline>
</glyph>
<glyph name="questiondown" format="1">
  <advance width="487"/>
  <unicode hex="00BF"/>
  <outline>
    <contour>
      <point x="293" y="374" type="curve"/>
      <point x="293" y="411"/>
      <point x="293" y="450"/>
      <point x="293" y="487" type="curve"/>
      <point x="267" y="487"/>
      <point x="293" y="487"/>
      <point x="267" y="487" type="curve"/>
      <point x="267" y="450"/>
      <point x="267" y="411"/>
      <point x="267" y="374" type="curve"/>
      <point x="293" y="374"/>
      <point x="267" y="374"/>
    </contour>
    <contour>
      <point x="413" y="83" type="line"/>
      <point x="381" y="49"/>
      <point x="332" y="21"/>
      <point x="270" y="21" type="curve"/>
      <point x="162" y="21"/>
      <point x="90" y="83"/>
      <point x="90" y="189" type="curve"/>
      <point x="90" y="306"/>
      <point x="170" y="374"/>
      <point x="291" y="374" type="curve"/>
      <point x="291" y="389"/>
      <point x="291" y="382"/>
      <point x="291" y="398" type="curve"/>
      <point x="156" y="398"/>
      <point x="65" y="320"/>
      <point x="65" y="189" type="curve"/>
      <point x="65" y="69"/>
      <point x="147" y="-2"/>
      <point x="268" y="-2" type="curve"/>
      <point x="340" y="-2"/>
      <point x="392" y="28"/>
      <point x="429" y="67" type="curve"/>
    </contour>
    <contour>
      <point x="264" y="696" type="curve"/>
      <point x="264" y="686"/>
      <point x="270" y="680"/>
      <point x="280" y="680" type="curve"/>
      <point x="291" y="680"/>
      <point x="296" y="687"/>
      <point x="296" y="696" type="curve"/>
      <point x="264" y="696"/>
      <point x="296" y="696"/>
      <point x="264" y="696" type="curve"/>
      <point x="264" y="707"/>
      <point x="270" y="712"/>
      <point x="280" y="712" type="curve"/>
      <point x="291" y="712"/>
      <point x="296" y="706"/>
      <point x="296" y="696" type="curve"/>
      <point x="264" y="696"/>
      <point x="296" y="696"/>
    </contour>
  </outline>
</glyph>
<glyph name="Aacute" format="1">
  <advance width="655"/>
  <unicode hex="00C1"/>
  <outline>
    <contour>
      <point x="509" y="277" type="curve"/>
      <point x="387" y="277"/>
      <point x="265" y="277"/>
      <point x="144" y="277" type="curve"/>
      <point x="133" y="253"/>
      <point x="144" y="277"/>
      <point x="133" y="253" type="curve"/>
      <point x="261" y="253"/>
      <point x="389" y="253"/>
      <point x="517" y="253" type="curve"/>
      <point x="509" y="277"/>
      <point x="517" y="253"/>
    </contour>
    <contour>
      <point x="629" y="0" type="curve"/>
      <point x="535" y="241"/>
      <point x="441" y="481"/>
      <point x="347" y="722" type="curve"/>
      <point x="323" y="722"/>
      <point x="347" y="722"/>
      <point x="323" y="722" type="curve"/>
      <point x="417" y="481"/>
      <point x="509" y="241"/>
      <point x="602" y="0" type="curve"/>
      <point x="629" y="0"/>
      <point x="602" y="0"/>
    </contour>
    <contour>
      <point x="34" y="0" type="curve"/>
      <point x="137" y="241"/>
      <point x="241" y="481"/>
      <point x="345" y="722" type="curve"/>
      <point x="321" y="722"/>
      <point x="345" y="722"/>
      <point x="321" y="722" type="curve"/>
      <point x="216" y="481"/>
      <point x="111" y="241"/>
      <point x="6" y="0" type="curve"/>
      <point x="34" y="0"/>
      <point x="6" y="0"/>
    </contour>
    <contour>
      <point x="347" y="825" type="line"/>
      <point x="486" y="991" type="line"/>
      <point x="449" y="991" type="line"/>
      <point x="319" y="825" type="line"/>
    </contour>
  </outline>
</glyph>
<glyph name="Atilde" format="1">
  <advance width="655"/>
  <unicode hex="00C3"/>
  <outline>
    <contour>
      <point x="509" y="277" type="curve"/>
      <point x="387" y="277"/>
      <point x="265" y="277"/>
      <point x="144" y="277" type="curve"/>
      <point x="133" y="253"/>
      <point x="144" y="277"/>
      <point x="133" y="253" type="curve"/>
      <point x="261" y="253"/>
      <point x="389" y="253"/>
      <point x="517" y="253" type="curve"/>
      <point x="509" y="277"/>
      <point x="517" y="253"/>
    </contour>
    <contour>
      <point x="629" y="0" type="curve"/>
      <point x="535" y="241"/>
      <point x="441" y="481"/>
      <point x="347" y="722" type="curve"/>
      <point x="323" y="722"/>
      <point x="347" y="722"/>
      <point x="323" y="722" type="curve"/>
      <point x="417" y="481"/>
      <point x="509" y="241"/>
      <point x="602" y="0" type="curve"/>
      <point x="629" y="0"/>
      <point x="602" y="0"/>
    </contour>
    <contour>
      <point x="34" y="0" type="curve"/>
      <point x="137" y="241"/>
      <point x="241" y="481"/>
      <point x="345" y="722" type="curve"/>
      <point x="321" y="722"/>
      <point x="345" y="722"/>
      <point x="321" y="722" type="curve"/>
      <point x="216" y="481"/>
      <point x="111" y="241"/>
      <point x="6" y="0" type="curve"/>
      <point x="34" y="0"/>
      <point x="6" y="0"/>
    </contour>
    <contour>
      <point x="508" y="949" type="curve"/>
      <point x="494" y="895"/>
      <point x="478" y="846"/>
      <point x="432" y="846" type="curve"/>
      <point x="391" y="846"/>
      <point x="367" y="865"/>
      <point x="340" y="895" type="curve"/>
      <point x="310" y="927"/>
      <point x="286" y="950"/>
      <point x="242" y="950" type="curve"/>
      <point x="176" y="950"/>
      <point x="150" y="899"/>
      <point x="135" y="831" type="curve"/>
      <point x="156" y="824"/>
      <point x="135" y="831"/>
      <point x="156" y="824" type="curve"/>
      <point x="169" y="882"/>
      <point x="189" y="927"/>
      <point x="242" y="927" type="curve"/>
      <point x="279" y="927"/>
      <point x="298" y="907"/>
      <point x="322" y="880" type="curve"/>
      <point x="355" y="846"/>
      <point x="383" y="824"/>
      <point x="430" y="824" type="curve"/>
      <point x="494" y="824"/>
      <point x="512" y="879"/>
      <point x="530" y="944" type="curve"/>
      <point x="508" y="949"/>
      <point x="530" y="944"/>
    </contour>
  </outline>
</glyph>
<glyph name="Adieresis" format="1">
  <advance width="655"/>
  <unicode hex="00C4"/>
  <outline>
    <contour>
      <point x="509" y="277" type="curve"/>
      <point x="387" y="277"/>
      <point x="265" y="277"/>
      <point x="144" y="277" type="curve"/>
      <point x="133" y="253"/>
      <point x="144" y="277"/>
      <point x="133" y="253" type="curve"/>
      <point x="261" y="253"/>
      <point x="389" y="253"/>
      <point x="517" y="253" type="curve"/>
      <point x="509" y="277"/>
      <point x="517" y="253"/>
    </contour>
    <contour>
      <point x="629" y="0" type="curve"/>
      <point x="535" y="241"/>
      <point x="441" y="481"/>
      <point x="347" y="722" type="curve"/>
      <point x="323" y="722"/>
      <point x="347" y="722"/>
      <point x="323" y="722" type="curve"/>
      <point x="417" y="481"/>
      <point x="509" y="241"/>
      <point x="602" y="0" type="curve"/>
      <point x="629" y="0"/>
      <point x="602" y="0"/>
    </contour>
    <contour>
      <point x="34" y="0" type="curve"/>
      <point x="137" y="241"/>
      <point x="241" y="481"/>
      <point x="345" y="722" type="curve"/>
      <point x="321" y="722"/>
      <point x="345" y="722"/>
      <point x="321" y="722" type="curve"/>
      <point x="216" y="481"/>
      <point x="111" y="241"/>
      <point x="6" y="0" type="curve"/>
      <point x="34" y="0"/>
      <point x="6" y="0"/>
    </contour>
    <contour>
      <point x="289" y="841" type="curve"/>
      <point x="289" y="853"/>
      <point x="282" y="859"/>
      <point x="270" y="859" type="curve"/>
      <point x="258" y="859"/>
      <point x="252" y="852"/>
      <point x="252" y="841" type="curve"/>
      <point x="277" y="841"/>
      <point x="264" y="841"/>
      <point x="289" y="841" type="curve"/>
      <point x="289" y="830"/>
      <point x="282" y="823"/>
      <point x="270" y="823" type="curve"/>
      <point x="258" y="823"/>
      <point x="252" y="830"/>
      <point x="252" y="841" type="curve"/>
      <point x="277" y="841"/>
      <point x="264" y="841"/>
    </contour>
    <contour>
      <point x="416" y="841" type="curve"/>
      <point x="416" y="853"/>
      <point x="408" y="859"/>
      <point x="396" y="859" type="curve"/>
      <point x="385" y="859"/>
      <point x="378" y="852"/>
      <point x="378" y="841" type="curve"/>
      <point x="403" y="841"/>
      <point x="390" y="841"/>
      <point x="416" y="841" type="curve"/>
      <point x="416" y="830"/>
      <point x="408" y="823"/>
      <point x="396" y="823" type="curve"/>
      <point x="385" y="823"/>
      <point x="378" y="830"/>
      <point x="378" y="841" type="curve"/>
      <point x="403" y="841"/>
      <point x="390" y="841"/>
    </contour>
  </outline>
</glyph>
<glyph name="Aring" format="1">
  <advance width="655"/>
  <unicode hex="00C5"/>
  <outline>
    <contour>
      <point x="509" y="277" type="curve"/>
      <point x="387" y="277"/>
      <point x="265" y="277"/>
      <point x="144" y="277" type="curve"/>
      <point x="133" y="253"/>
      <point x="144" y="277"/>
      <point x="133" y="253" type="curve"/>
      <point x="261" y="253"/>
      <point x="389" y="253"/>
      <point x="517" y="253" type="curve"/>
      <point x="509" y="277"/>
      <point x="517" y="253"/>
    </contour>
    <contour>
      <point x="629" y="0" type="curve"/>
      <point x="535" y="241"/>
      <point x="441" y="481"/>
      <point x="347" y="722" type="curve"/>
      <point x="323" y="722"/>
      <point x="347" y="722"/>
      <point x="323" y="722" type="curve"/>
      <point x="417" y="481"/>
      <point x="509" y="241"/>
      <point x="602" y="0" type="curve"/>
      <point x="629" y="0"/>
      <point x="602" y="0"/>
    </contour>
    <contour>
      <point x="34" y="0" type="curve"/>
      <point x="137" y="241"/>
      <point x="241" y="481"/>
      <point x="345" y="722" type="curve"/>
      <point x="321" y="722"/>
      <point x="345" y="722"/>
      <point x="321" y="722" type="curve"/>
      <point x="216" y="481"/>
      <point x="111" y="241"/>
      <point x="6" y="0" type="curve"/>
      <point x="34" y="0"/>
      <point x="6" y="0"/>
    </contour>
    <contour>
      <point x="215" y="940" type="curve"/>
      <point x="215" y="868"/>
      <point x="260" y="824"/>
      <point x="333" y="824" type="curve"/>
      <point x="408" y="824"/>
      <point x="455" y="866"/>
      <point x="455" y="940" type="curve"/>
      <point x="455" y="1014"/>
      <point x="407" y="1057"/>
      <point x="331" y="1057" type="curve"/>
      <point x="259" y="1057"/>
      <point x="215" y="1013"/>
      <point x="215" y="940" type="curve"/>
      <point x="238" y="940"/>
      <point x="215" y="940"/>
      <point x="238" y="940" type="curve"/>
      <point x="238" y="998"/>
      <point x="272" y="1035"/>
      <point x="331" y="1035" type="curve"/>
      <point x="393" y="1035"/>
      <point x="431" y="1001"/>
      <point x="431" y="940" type="curve"/>
      <point x="431" y="881"/>
      <point x="394" y="845"/>
      <point x="333" y="845" type="curve"/>
      <point x="274" y="845"/>
      <point x="238" y="881"/>
      <point x="238" y="940" type="curve"/>
      <point x="215" y="940"/>
      <point x="238" y="940"/>
    </contour>
  </outline>
</glyph>
<glyph name="AE" format="1">
  <advance width="900"/>
  <unicode hex="00C6"/>
  <outline>
    <contour>
      <point x="422" y="256" type="curve"/>
      <point x="300" y="256"/>
      <point x="275" y="256"/>
      <point x="153" y="256" type="curve"/>
      <point x="142" y="232"/>
      <point x="153" y="256"/>
      <point x="142" y="232" type="curve"/>
      <point x="270" y="232"/>
      <point x="302" y="232"/>
      <point x="430" y="232" type="curve"/>
      <point x="422" y="256"/>
      <point x="430" y="232"/>
    </contour>
    <contour>
      <point x="27" y="0" type="curve"/>
      <point x="439" y="722" type="line"/>
      <point x="416" y="722"/>
      <point x="436" y="722"/>
      <point x="412" y="722" type="curve"/>
      <point x="-2" y="0" type="line"/>
      <point x="26" y="0"/>
      <point x="-1" y="0"/>
    </contour>
    <contour>
      <point x="432" y="363" type="curve"/>
      <point x="546" y="363"/>
      <point x="660" y="363"/>
      <point x="775" y="363" type="curve"/>
      <point x="775" y="385"/>
      <point x="775" y="363"/>
      <point x="775" y="385" type="curve"/>
      <point x="660" y="385"/>
      <point x="546" y="385"/>
      <point x="432" y="385" type="curve"/>
      <point x="432" y="363"/>
      <point x="432" y="385"/>
    </contour>
    <contour>
      <point x="416" y="699" type="curve"/>
      <point x="557" y="699"/>
      <point x="699" y="699"/>
      <point x="840" y="699" type="curve"/>
      <point x="840" y="722"/>
      <point x="840" y="699"/>
      <point x="840" y="722" type="curve"/>
      <point x="699" y="722"/>
      <point x="557" y="722"/>
      <point x="416" y="722" type="curve"/>
      <point x="416" y="699"/>
      <point x="416" y="722"/>
    </contour>
    <contour>
      <point x="438" y="0" type="curve"/>
      <point x="438" y="722" type="line"/>
      <point x="412" y="722"/>
      <point x="438" y="722"/>
      <point x="412" y="722" type="curve"/>
      <point x="412" y="481"/>
      <point x="412" y="241"/>
      <point x="412" y="0" type="curve"/>
      <point x="438" y="0"/>
      <point x="412" y="0"/>
    </contour>
    <contour>
      <point x="416" y="0" type="curve"/>
      <point x="569" y="0"/>
      <point x="722" y="0"/>
      <point x="875" y="0" type="curve"/>
      <point x="875" y="23"/>
      <point x="875" y="0"/>
      <point x="875" y="23" type="curve"/>
      <point x="722" y="23"/>
      <point x="569" y="23"/>
      <point x="416" y="23" type="curve"/>
      <point x="416" y="0"/>
      <point x="416" y="23"/>
    </contour>
  </outline>
</glyph>
<glyph name="Ccedilla" format="1">
  <advance width="699"/>
  <unicode hex="00C7"/>
  <outline>
    <contour>
      <point x="644" y="655" type="curve"/>
      <point x="574" y="696"/>
      <point x="497" y="727"/>
      <point x="408" y="727" type="curve"/>
      <point x="185" y="727"/>
      <point x="72" y="577"/>
      <point x="72" y="344" type="curve"/>
      <point x="72" y="130"/>
      <point x="179" y="-5"/>
      <point x="386" y="-5" type="curve"/>
      <point x="502" y="-5"/>
      <point x="575" y="29"/>
      <point x="664" y="96" type="curve"/>
      <point x="648" y="114"/>
      <point x="663" y="96"/>
      <point x="647" y="114" type="curve"/>
      <point x="566" y="50"/>
      <point x="494" y="21"/>
      <point x="387" y="21" type="curve"/>
      <point x="195" y="21"/>
      <point x="97" y="147"/>
      <point x="97" y="345" type="curve"/>
      <point x="97" y="561"/>
      <point x="202" y="703"/>
      <point x="407" y="703" type="curve"/>
      <point x="491" y="703"/>
      <point x="565" y="676"/>
      <point x="630" y="637" type="curve"/>
      <point x="644" y="655"/>
      <point x="630" y="637"/>
    </contour>
    <contour>
      <point x="368" y="13" type="curve"/>
      <point x="352" y="-14"/>
      <point x="336" y="-41"/>
      <point x="321" y="-67" type="curve"/>
      <point x="339" y="-85"/>
      <point x="321" y="-67"/>
      <point x="339" y="-85" type="curve"/>
      <point x="354" y="-58"/>
      <point x="371" y="-29"/>
      <point x="386" y="-2" type="curve"/>
      <point x="368" y="13"/>
      <point x="386" y="-2"/>
    </contour>
    <contour>
      <point x="339" y="-86" type="curve"/>
      <point x="354" y="-76"/>
      <point x="367" y="-73"/>
      <point x="386" y="-73" type="curve"/>
      <point x="421" y="-73"/>
      <point x="441" y="-94"/>
      <point x="441" y="-130" type="curve"/>
      <point x="441" y="-168"/>
      <point x="413" y="-184"/>
      <point x="373" y="-184" type="curve"/>
      <point x="345" y="-184"/>
      <point x="324" y="-181"/>
      <point x="300" y="-167" type="curve"/>
      <point x="290" y="-185"/>
      <point x="300" y="-167"/>
      <point x="290" y="-185" type="curve"/>
      <point x="317" y="-200"/>
      <point x="340" y="-206"/>
      <point x="371" y="-206" type="curve"/>
      <point x="427" y="-206"/>
      <point x="466" y="-182"/>
      <point x="466" y="-130" type="curve"/>
      <point x="466" y="-81"/>
      <point x="436" y="-51"/>
      <point x="388" y="-51" type="curve"/>
      <point x="363" y="-51"/>
      <point x="345" y="-57"/>
      <point x="322" y="-68" type="curve"/>
      <point x="339" y="-86"/>
      <point x="322" y="-68"/>
    </contour>
  </outline>
</glyph>
<glyph name="Egrave" format="1">
  <advance width="615"/>
  <unicode hex="00C8"/>
  <outline>
    <contour>
      <point x="147" y="363" type="curve"/>
      <point x="261" y="363"/>
      <point x="375" y="363"/>
      <point x="490" y="363" type="curve"/>
      <point x="490" y="385"/>
      <point x="490" y="363"/>
      <point x="490" y="385" type="curve"/>
      <point x="375" y="385"/>
      <point x="261" y="385"/>
      <point x="147" y="385" type="curve"/>
      <point x="147" y="363"/>
      <point x="147" y="385"/>
    </contour>
    <contour>
      <point x="131" y="699" type="curve"/>
      <point x="273" y="699"/>
      <point x="414" y="699"/>
      <point x="555" y="699" type="curve"/>
      <point x="555" y="722"/>
      <point x="555" y="699"/>
      <point x="555" y="722" type="curve"/>
      <point x="414" y="722"/>
      <point x="273" y="722"/>
      <point x="131" y="722" type="curve"/>
      <point x="131" y="699"/>
      <point x="131" y="722"/>
    </contour>
    <contour>
      <point x="153" y="0" type="curve"/>
      <point x="153" y="722" type="line"/>
      <point x="127" y="722"/>
      <point x="153" y="722"/>
      <point x="127" y="722" type="curve"/>
      <point x="127" y="481"/>
      <point x="127" y="241"/>
      <point x="127" y="0" type="curve"/>
      <point x="153" y="0"/>
      <point x="127" y="0"/>
    </contour>
    <contour>
      <point x="131" y="0" type="curve"/>
      <point x="284" y="0"/>
      <point x="437" y="0"/>
      <point x="591" y="0" type="curve"/>
      <point x="591" y="23"/>
      <point x="591" y="0"/>
      <point x="591" y="23" type="curve"/>
      <point x="437" y="23"/>
      <point x="284" y="23"/>
      <point x="131" y="23" type="curve"/>
      <point x="131" y="0"/>
      <point x="131" y="23"/>
    </contour>
    <contour>
      <point x="330" y="825" type="line"/>
      <point x="199" y="991" type="line"/>
      <point x="162" y="991" type="line"/>
      <point x="301" y="825" type="line"/>
    </contour>
  </outline>
</glyph>
<glyph name="Ecircumflex" format="1">
  <advance width="615"/>
  <unicode hex="00CA"/>
  <outline>
    <contour>
      <point x="146" y="363" type="curve"/>
      <point x="261" y="363"/>
      <point x="375" y="363"/>
      <point x="489" y="363" type="curve"/>
      <point x="489" y="385"/>
      <point x="489" y="363"/>
      <point x="489" y="385" type="curve"/>
      <point x="375" y="385"/>
      <point x="261" y="385"/>
      <point x="146" y="385" type="curve"/>
      <point x="146" y="363"/>
      <point x="146" y="385"/>
    </contour>
    <contour>
      <point x="131" y="699" type="curve"/>
      <point x="272" y="699"/>
      <point x="413" y="699"/>
      <point x="555" y="699" type="curve"/>
      <point x="555" y="722"/>
      <point x="555" y="699"/>
      <point x="555" y="722" type="curve"/>
      <point x="413" y="722"/>
      <point x="272" y="722"/>
      <point x="131" y="722" type="curve"/>
      <point x="131" y="699"/>
      <point x="131" y="722"/>
    </contour>
    <contour>
      <point x="152" y="0" type="curve"/>
      <point x="152" y="722" type="line"/>
      <point x="127" y="722"/>
      <point x="152" y="722"/>
      <point x="127" y="722" type="curve"/>
      <point x="127" y="481"/>
      <point x="127" y="241"/>
      <point x="127" y="0" type="curve"/>
      <point x="152" y="0"/>
      <point x="127" y="0"/>
    </contour>
    <contour>
      <point x="131" y="0" type="curve"/>
      <point x="284" y="0"/>
      <point x="437" y="0"/>
      <point x="590" y="0" type="curve"/>
      <point x="590" y="23"/>
      <point x="590" y="0"/>
      <point x="590" y="23" type="curve"/>
      <point x="437" y="23"/>
      <point x="284" y="23"/>
      <point x="131" y="23" type="curve"/>
      <point x="131" y="0"/>
      <point x="131" y="23"/>
    </contour>
    <contour>
      <point x="186" y="825" type="line"/>
      <point x="326" y="991" type="line"/>
      <point x="288" y="991" type="line"/>
      <point x="158" y="825" type="line"/>
    </contour>
    <contour>
      <point x="467" y="825" type="line"/>
      <point x="336" y="991" type="line"/>
      <point x="299" y="991" type="line"/>
      <point x="438" y="825" type="line"/>
    </contour>
  </outline>
</glyph>
<glyph name="Edieresis" format="1">
  <advance width="615"/>
  <unicode hex="00CB"/>
  <outline>
    <contour>
      <point x="147" y="363" type="curve"/>
      <point x="261" y="363"/>
      <point x="375" y="363"/>
      <point x="490" y="363" type="curve"/>
      <point x="490" y="385"/>
      <point x="490" y="363"/>
      <point x="490" y="385" type="curve"/>
      <point x="375" y="385"/>
      <point x="261" y="385"/>
      <point x="147" y="385" type="curve"/>
      <point x="147" y="363"/>
      <point x="147" y="385"/>
    </contour>
    <contour>
      <point x="131" y="699" type="curve"/>
      <point x="272" y="699"/>
      <point x="414" y="699"/>
      <point x="555" y="699" type="curve"/>
      <point x="555" y="722"/>
      <point x="555" y="699"/>
      <point x="555" y="722" type="curve"/>
      <point x="414" y="722"/>
      <point x="272" y="722"/>
      <point x="131" y="722" type="curve"/>
      <point x="131" y="699"/>
      <point x="131" y="722"/>
    </contour>
    <contour>
      <point x="153" y="0" type="curve"/>
      <point x="153" y="722" type="line"/>
      <point x="127" y="722"/>
      <point x="153" y="722"/>
      <point x="127" y="722" type="curve"/>
      <point x="127" y="481"/>
      <point x="127" y="241"/>
      <point x="127" y="0" type="curve"/>
      <point x="153" y="0"/>
      <point x="127" y="0"/>
    </contour>
    <contour>
      <point x="131" y="0" type="curve"/>
      <point x="284" y="0"/>
      <point x="437" y="0"/>
      <point x="590" y="0" type="curve"/>
      <point x="590" y="23"/>
      <point x="590" y="0"/>
      <point x="590" y="23" type="curve"/>
      <point x="437" y="23"/>
      <point x="284" y="23"/>
      <point x="131" y="23" type="curve"/>
      <point x="131" y="0"/>
      <point x="131" y="23"/>
    </contour>
    <contour>
      <point x="269" y="841" type="curve"/>
      <point x="269" y="853"/>
      <point x="261" y="859"/>
      <point x="249" y="859" type="curve"/>
      <point x="238" y="859"/>
      <point x="231" y="852"/>
      <point x="231" y="841" type="curve"/>
      <point x="256" y="841"/>
      <point x="244" y="841"/>
      <point x="269" y="841" type="curve"/>
      <point x="269" y="830"/>
      <point x="261" y="823"/>
      <point x="249" y="823" type="curve"/>
      <point x="238" y="823"/>
      <point x="231" y="830"/>
      <point x="231" y="841" type="curve"/>
      <point x="256" y="841"/>
      <point x="244" y="841"/>
    </contour>
    <contour>
      <point x="395" y="841" type="curve"/>
      <point x="395" y="853"/>
      <point x="387" y="859"/>
      <point x="375" y="859" type="curve"/>
      <point x="364" y="859"/>
      <point x="357" y="852"/>
      <point x="357" y="841" type="curve"/>
      <point x="383" y="841"/>
      <point x="370" y="841"/>
      <point x="395" y="841" type="curve"/>
      <point x="395" y="830"/>
      <point x="387" y="823"/>
      <point x="375" y="823" type="curve"/>
      <point x="364" y="823"/>
      <point x="357" y="830"/>
      <point x="357" y="841" type="curve"/>
      <point x="383" y="841"/>
      <point x="370" y="841"/>
    </contour>
  </outline>
</glyph>
<glyph name="Igrave" format="1">
  <advance width="293"/>
  <unicode hex="00CC"/>
  <outline>
    <contour>
      <point x="162" y="0" type="curve"/>
      <point x="162" y="241"/>
      <point x="162" y="481"/>
      <point x="162" y="722" type="curve"/>
      <point x="136" y="722"/>
      <point x="162" y="722"/>
      <point x="136" y="722" type="curve"/>
      <point x="136" y="481"/>
      <point x="136" y="241"/>
      <point x="136" y="0" type="curve"/>
      <point x="162" y="0"/>
      <point x="136" y="0"/>
    </contour>
    <contour>
      <point x="167" y="825" type="line"/>
      <point x="36" y="991" type="line"/>
      <point x="-1" y="991" type="line"/>
      <point x="138" y="825" type="line"/>
    </contour>
  </outline>
</glyph>
<glyph name="Iacute" format="1">
  <advance width="286"/>
  <unicode hex="00CD"/>
  <outline>
    <contour>
      <point x="153" y="0" type="curve"/>
      <point x="153" y="241"/>
      <point x="153" y="481"/>
      <point x="153" y="722" type="curve"/>
      <point x="128" y="722"/>
      <point x="153" y="722"/>
      <point x="128" y="722" type="curve"/>
      <point x="128" y="481"/>
      <point x="128" y="241"/>
      <point x="128" y="0" type="curve"/>
      <point x="153" y="0"/>
      <point x="128" y="0"/>
    </contour>
    <contour>
      <point x="155" y="825" type="line"/>
      <point x="294" y="991" type="line"/>
      <point x="257" y="991" type="line"/>
      <point x="127" y="825" type="line"/>
    </contour>
  </outline>
</glyph>
<glyph name="Icircumflex" format="1">
  <advance width="279"/>
  <unicode hex="00CE"/>
  <outline>
    <contour>
      <point x="158" y="0" type="curve"/>
      <point x="158" y="241"/>
      <point x="158" y="481"/>
      <point x="158" y="722" type="curve"/>
      <point x="133" y="722"/>
      <point x="158" y="722"/>
      <point x="133" y="722" type="curve"/>
      <point x="133" y="481"/>
      <point x="133" y="241"/>
      <point x="133" y="0" type="curve"/>
      <point x="158" y="0"/>
      <point x="133" y="0"/>
    </contour>
    <contour>
      <point x="20" y="825" type="line"/>
      <point x="160" y="991" type="line"/>
      <point x="122" y="991" type="line"/>
      <point x="-8" y="825" type="line"/>
    </contour>
    <contour>
      <point x="301" y="825" type="line"/>
      <point x="170" y="991" type="line"/>
      <point x="133" y="991" type="line"/>
      <point x="272" y="825" type="line"/>
    </contour>
  </outline>
</glyph>
<glyph name="Idieresis" format="1">
  <advance width="243"/>
  <unicode hex="00CF"/>
  <outline>
    <contour>
      <point x="135" y="0" type="curve"/>
      <point x="135" y="241"/>
      <point x="135" y="481"/>
      <point x="135" y="722" type="curve"/>
      <point x="110" y="722"/>
      <point x="135" y="722"/>
      <point x="110" y="722" type="curve"/>
      <point x="110" y="481"/>
      <point x="110" y="241"/>
      <point x="110" y="0" type="curve"/>
      <point x="135" y="0"/>
      <point x="110" y="0"/>
    </contour>
    <contour>
      <point x="80" y="841" type="curve"/>
      <point x="80" y="853"/>
      <point x="72" y="859"/>
      <point x="60" y="859" type="curve"/>
      <point x="49" y="859"/>
      <point x="42" y="852"/>
      <point x="42" y="841" type="curve"/>
      <point x="67" y="841"/>
      <point x="54" y="841"/>
      <point x="80" y="841" type="curve"/>
      <point x="80" y="830"/>
      <point x="72" y="823"/>
      <point x="60" y="823" type="curve"/>
      <point x="49" y="823"/>
      <point x="42" y="830"/>
      <point x="42" y="841" type="curve"/>
      <point x="67" y="841"/>
      <point x="54" y="841"/>
    </contour>
    <contour>
      <point x="206" y="841" type="curve"/>
      <point x="206" y="853"/>
      <point x="198" y="859"/>
      <point x="186" y="859" type="curve"/>
      <point x="175" y="859"/>
      <point x="168" y="852"/>
      <point x="168" y="841" type="curve"/>
      <point x="193" y="841"/>
      <point x="181" y="841"/>
      <point x="206" y="841" type="curve"/>
      <point x="206" y="830"/>
      <point x="198" y="823"/>
      <point x="186" y="823" type="curve"/>
      <point x="175" y="823"/>
      <point x="168" y="830"/>
      <point x="168" y="841" type="curve"/>
      <point x="193" y="841"/>
      <point x="181" y="841"/>
    </contour>
  </outline>
</glyph>
<glyph name="Ntilde" format="1">
  <advance width="847"/>
  <unicode hex="00D1"/>
  <outline>
    <contour>
      <point x="719" y="0" type="curve"/>
      <point x="532" y="241"/>
      <point x="346" y="481"/>
      <point x="160" y="722" type="curve"/>
      <point x="129" y="722"/>
      <point x="158" y="722"/>
      <point x="127" y="722" type="curve"/>
      <point x="314" y="481"/>
      <point x="500" y="241"/>
      <point x="687" y="0" type="curve"/>
      <point x="717" y="0"/>
      <point x="688" y="0"/>
    </contour>
    <contour>
      <point x="694" y="722" type="curve"/>
      <point x="694" y="481"/>
      <point x="694" y="241"/>
      <point x="694" y="0" type="curve"/>
      <point x="719" y="0"/>
      <point x="694" y="0"/>
      <point x="719" y="0" type="curve"/>
      <point x="719" y="241"/>
      <point x="719" y="481"/>
      <point x="719" y="722" type="curve"/>
      <point x="694" y="722"/>
      <point x="719" y="722"/>
    </contour>
    <contour>
      <point x="154" y="0" type="curve"/>
      <point x="154" y="241"/>
      <point x="154" y="481"/>
      <point x="154" y="722" type="curve"/>
      <point x="128" y="722"/>
      <point x="154" y="722"/>
      <point x="128" y="722" type="curve"/>
      <point x="128" y="481"/>
      <point x="128" y="241"/>
      <point x="128" y="0" type="curve"/>
      <point x="154" y="0"/>
      <point x="128" y="0"/>
    </contour>
    <contour>
      <point x="610" y="949" type="curve"/>
      <point x="596" y="895"/>
      <point x="580" y="846"/>
      <point x="533" y="846" type="curve"/>
      <point x="493" y="846"/>
      <point x="469" y="865"/>
      <point x="441" y="895" type="curve"/>
      <point x="411" y="927"/>
      <point x="387" y="950"/>
      <point x="343" y="950" type="curve"/>
      <point x="277" y="950"/>
      <point x="251" y="899"/>
      <point x="237" y="831" type="curve"/>
      <point x="257" y="824"/>
      <point x="237" y="831"/>
      <point x="257" y="824" type="curve"/>
      <point x="271" y="882"/>
      <point x="290" y="927"/>
      <point x="343" y="927" type="curve"/>
      <point x="380" y="927"/>
      <point x="399" y="907"/>
      <point x="424" y="880" type="curve"/>
      <point x="456" y="846"/>
      <point x="485" y="824"/>
      <point x="532" y="824" type="curve"/>
      <point x="595" y="824"/>
      <point x="614" y="879"/>
      <point x="631" y="944" type="curve"/>
      <point x="610" y="949"/>
      <point x="631" y="944"/>
    </contour>
  </outline>
</glyph>
<glyph name="Oacute" format="1">
  <advance width="773"/>
  <unicode hex="00D3"/>
  <outline>
    <contour>
      <point x="98" y="360" type="curve" name="FullCurve"/>
      <point x="98" y="560"/>
      <point x="193" y="704"/>
      <point x="385" y="704" type="curve" name="FullCurve"/>
      <point x="577" y="704"/>
      <point x="675" y="562"/>
      <point x="675" y="363" type="curve" name="FullCurve"/>
      <point x="675" y="164"/>
      <point x="580" y="19"/>
      <point x="388" y="19" type="curve" name="FullCurve"/>
      <point x="195" y="19"/>
      <point x="98" y="160"/>
      <point x="98" y="360" type="curve" name="FullCurve"/>
      <point x="72" y="360"/>
      <point x="98" y="360"/>
      <point x="72" y="360" type="curve" name="FullCurve"/>
      <point x="72" y="144"/>
      <point x="180" y="-5"/>
      <point x="387" y="-5" type="curve" name="FullCurve"/>
      <point x="594" y="-5"/>
      <point x="701" y="146"/>
      <point x="701" y="363" type="curve" name="FullCurve"/>
      <point x="701" y="578"/>
      <point x="594" y="727"/>
      <point x="387" y="727" type="curve" name="FullCurve"/>
      <point x="178" y="727"/>
      <point x="72" y="576"/>
      <point x="72" y="360" type="curve" name="FullCurve"/>
      <point x="98" y="360"/>
      <point x="72" y="360"/>
    </contour>
    <contour>
      <point x="399" y="825" type="line"/>
      <point x="539" y="991" type="line"/>
      <point x="501" y="991" type="line"/>
      <point x="371" y="825" type="line"/>
    </contour>
  </outline>
</glyph>
<glyph name="Ocircumflex" format="1">
  <advance width="773"/>
  <unicode hex="00D4"/>
  <outline>
    <contour>
      <point x="98" y="360" type="curve" name="FullCurve"/>
      <point x="98" y="560"/>
      <point x="193" y="704"/>
      <point x="385" y="704" type="curve" name="FullCurve"/>
      <point x="577" y="704"/>
      <point x="675" y="562"/>
      <point x="675" y="363" type="curve" name="FullCurve"/>
      <point x="675" y="164"/>
      <point x="580" y="19"/>
      <point x="388" y="19" type="curve" name="FullCurve"/>
      <point x="195" y="19"/>
      <point x="98" y="160"/>
      <point x="98" y="360" type="curve" name="FullCurve"/>
      <point x="72" y="360"/>
      <point x="98" y="360"/>
      <point x="72" y="360" type="curve" name="FullCurve"/>
      <point x="72" y="144"/>
      <point x="180" y="-5"/>
      <point x="387" y="-5" type="curve" name="FullCurve"/>
      <point x="594" y="-5"/>
      <point x="701" y="146"/>
      <point x="701" y="363" type="curve" name="FullCurve"/>
      <point x="701" y="578"/>
      <point x="594" y="727"/>
      <point x="387" y="727" type="curve" name="FullCurve"/>
      <point x="178" y="727"/>
      <point x="72" y="576"/>
      <point x="72" y="360" type="curve" name="FullCurve"/>
      <point x="98" y="360"/>
      <point x="72" y="360"/>
    </contour>
    <contour>
      <point x="259" y="825" type="line"/>
      <point x="399" y="991" type="line"/>
      <point x="361" y="991" type="line"/>
      <point x="231" y="825" type="line"/>
    </contour>
    <contour>
      <point x="540" y="825" type="line"/>
      <point x="409" y="991" type="line"/>
      <point x="372" y="991" type="line"/>
      <point x="511" y="825" type="line"/>
    </contour>
  </outline>
</glyph>
<glyph name="Otilde" format="1">
  <advance width="773"/>
  <unicode hex="00D5"/>
  <outline>
    <contour>
      <point x="98" y="360" type="curve" name="FullCurve"/>
      <point x="98" y="560"/>
      <point x="193" y="704"/>
      <point x="385" y="704" type="curve" name="FullCurve"/>
      <point x="577" y="704"/>
      <point x="675" y="562"/>
      <point x="675" y="363" type="curve" name="FullCurve"/>
      <point x="675" y="164"/>
      <point x="580" y="19"/>
      <point x="388" y="19" type="curve" name="FullCurve"/>
      <point x="195" y="19"/>
      <point x="98" y="160"/>
      <point x="98" y="360" type="curve" name="FullCurve"/>
      <point x="72" y="360"/>
      <point x="98" y="360"/>
      <point x="72" y="360" type="curve" name="FullCurve"/>
      <point x="72" y="144"/>
      <point x="180" y="-5"/>
      <point x="387" y="-5" type="curve" name="FullCurve"/>
      <point x="594" y="-5"/>
      <point x="701" y="146"/>
      <point x="701" y="363" type="curve" name="FullCurve"/>
      <point x="701" y="578"/>
      <point x="594" y="727"/>
      <point x="387" y="727" type="curve" name="FullCurve"/>
      <point x="178" y="727"/>
      <point x="72" y="576"/>
      <point x="72" y="360" type="curve" name="FullCurve"/>
      <point x="98" y="360"/>
      <point x="72" y="360"/>
    </contour>
    <contour>
      <point x="561" y="949" type="curve"/>
      <point x="546" y="895"/>
      <point x="531" y="846"/>
      <point x="484" y="846" type="curve"/>
      <point x="444" y="846"/>
      <point x="420" y="865"/>
      <point x="392" y="895" type="curve"/>
      <point x="362" y="927"/>
      <point x="338" y="950"/>
      <point x="294" y="950" type="curve"/>
      <point x="228" y="950"/>
      <point x="202" y="899"/>
      <point x="187" y="831" type="curve"/>
      <point x="208" y="824"/>
      <point x="187" y="831"/>
      <point x="208" y="824" type="curve"/>
      <point x="221" y="882"/>
      <point x="241" y="927"/>
      <point x="294" y="927" type="curve"/>
      <point x="331" y="927"/>
      <point x="350" y="907"/>
      <point x="374" y="880" type="curve"/>
      <point x="407" y="846"/>
      <point x="435" y="824"/>
      <point x="482" y="824" type="curve"/>
      <point x="546" y="824"/>
      <point x="564" y="879"/>
      <point x="582" y="944" type="curve"/>
      <point x="561" y="949"/>
      <point x="582" y="944"/>
    </contour>
  </outline>
</glyph>
<glyph name="Odieresis" format="1">
  <advance width="773"/>
  <unicode hex="00D6"/>
  <outline>
    <contour>
      <point x="98" y="360" type="curve" name="FullCurve"/>
      <point x="98" y="560"/>
      <point x="193" y="704"/>
      <point x="385" y="704" type="curve" name="FullCurve"/>
      <point x="577" y="704"/>
      <point x="675" y="562"/>
      <point x="675" y="363" type="curve" name="FullCurve"/>
      <point x="675" y="164"/>
      <point x="580" y="19"/>
      <point x="388" y="19" type="curve" name="FullCurve"/>
      <point x="195" y="19"/>
      <point x="98" y="160"/>
      <point x="98" y="360" type="curve" name="FullCurve"/>
      <point x="72" y="360"/>
      <point x="98" y="360"/>
      <point x="72" y="360" type="curve" name="FullCurve"/>
      <point x="72" y="144"/>
      <point x="180" y="-5"/>
      <point x="387" y="-5" type="curve" name="FullCurve"/>
      <point x="594" y="-5"/>
      <point x="701" y="146"/>
      <point x="701" y="363" type="curve" name="FullCurve"/>
      <point x="701" y="578"/>
      <point x="594" y="727"/>
      <point x="387" y="727" type="curve" name="FullCurve"/>
      <point x="178" y="727"/>
      <point x="72" y="576"/>
      <point x="72" y="360" type="curve" name="FullCurve"/>
      <point x="98" y="360"/>
      <point x="72" y="360"/>
    </contour>
    <contour>
      <point x="342" y="841" type="curve"/>
      <point x="342" y="853"/>
      <point x="334" y="859"/>
      <point x="322" y="859" type="curve"/>
      <point x="311" y="859"/>
      <point x="304" y="852"/>
      <point x="304" y="841" type="curve"/>
      <point x="329" y="841"/>
      <point x="316" y="841"/>
      <point x="342" y="841" type="curve"/>
      <point x="342" y="830"/>
      <point x="334" y="823"/>
      <point x="322" y="823" type="curve"/>
      <point x="310" y="823"/>
      <point x="304" y="830"/>
      <point x="304" y="841" type="curve"/>
      <point x="329" y="841"/>
      <point x="316" y="841"/>
    </contour>
    <contour>
      <point x="468" y="841" type="curve"/>
      <point x="468" y="853"/>
      <point x="460" y="859"/>
      <point x="448" y="859" type="curve"/>
      <point x="437" y="859"/>
      <point x="430" y="852"/>
      <point x="430" y="841" type="curve"/>
      <point x="455" y="841"/>
      <point x="443" y="841"/>
      <point x="468" y="841" type="curve"/>
      <point x="468" y="830"/>
      <point x="460" y="823"/>
      <point x="448" y="823" type="curve"/>
      <point x="437" y="823"/>
      <point x="430" y="830"/>
      <point x="430" y="841" type="curve"/>
      <point x="455" y="841"/>
      <point x="443" y="841"/>
    </contour>
  </outline>
</glyph>
<glyph name="multiply" format="1">
  <advance width="527"/>
  <unicode hex="00D7"/>
  <outline>
    <contour>
      <point x="88" y="116" type="line"/>
      <point x="454" y="482" type="line"/>
      <point x="436" y="500" type="line"/>
      <point x="71" y="134" type="line"/>
    </contour>
    <contour>
      <point x="457" y="132" type="line"/>
      <point x="89" y="502" type="line"/>
      <point x="71" y="484" type="line"/>
      <point x="439" y="114" type="line"/>
    </contour>
  </outline>
</glyph>
<glyph name="Uacute" format="1">
  <advance width="785"/>
  <unicode hex="00DA"/>
  <outline>
    <contour>
      <point x="117" y="721" type="curve"/>
      <point x="117" y="555"/>
      <point x="117" y="437"/>
      <point x="117" y="271" type="curve"/>
      <point x="117" y="86"/>
      <point x="208" y="-5"/>
      <point x="394" y="-5" type="curve"/>
      <point x="577" y="-5"/>
      <point x="667" y="83"/>
      <point x="667" y="263" type="curve"/>
      <point x="667" y="432"/>
      <point x="667" y="552"/>
      <point x="667" y="721" type="curve"/>
      <point x="651" y="721"/>
      <point x="659" y="721"/>
      <point x="643" y="721" type="curve"/>
      <point x="643" y="550"/>
      <point x="643" y="430"/>
      <point x="643" y="259" type="curve"/>
      <point x="643" y="100"/>
      <point x="559" y="20"/>
      <point x="396" y="20" type="curve"/>
      <point x="224" y="20"/>
      <point x="142" y="104"/>
      <point x="142" y="275" type="curve"/>
      <point x="142" y="440"/>
      <point x="142" y="557"/>
      <point x="142" y="721" type="curve"/>
      <point x="125" y="721"/>
      <point x="134" y="721"/>
    </contour>
    <contour>
      <point x="412" y="825" type="line"/>
      <point x="551" y="991" type="line"/>
      <point x="514" y="991" type="line"/>
      <point x="383" y="825" type="line"/>
    </contour>
  </outline>
</glyph>
<glyph name="Udieresis" format="1">
  <advance width="785"/>
  <unicode hex="00DC"/>
  <outline>
    <contour>
      <point x="117" y="721" type="curve"/>
      <point x="117" y="555"/>
      <point x="117" y="437"/>
      <point x="117" y="271" type="curve"/>
      <point x="117" y="86"/>
      <point x="208" y="-5"/>
      <point x="394" y="-5" type="curve"/>
      <point x="577" y="-5"/>
      <point x="667" y="83"/>
      <point x="667" y="263" type="curve"/>
      <point x="667" y="432"/>
      <point x="667" y="552"/>
      <point x="667" y="721" type="curve"/>
      <point x="651" y="721"/>
      <point x="659" y="721"/>
      <point x="643" y="721" type="curve"/>
      <point x="643" y="550"/>
      <point x="643" y="430"/>
      <point x="643" y="259" type="curve"/>
      <point x="643" y="100"/>
      <point x="559" y="20"/>
      <point x="396" y="20" type="curve"/>
      <point x="224" y="20"/>
      <point x="142" y="104"/>
      <point x="142" y="275" type="curve"/>
      <point x="142" y="440"/>
      <point x="142" y="557"/>
      <point x="142" y="721" type="curve"/>
      <point x="125" y="721"/>
      <point x="134" y="721"/>
    </contour>
    <contour>
      <point x="354" y="841" type="curve"/>
      <point x="354" y="853"/>
      <point x="346" y="859"/>
      <point x="334" y="859" type="curve"/>
      <point x="323" y="859"/>
      <point x="316" y="852"/>
      <point x="316" y="841" type="curve"/>
      <point x="341" y="841"/>
      <point x="329" y="841"/>
      <point x="354" y="841" type="curve"/>
      <point x="354" y="830"/>
      <point x="346" y="823"/>
      <point x="334" y="823" type="curve"/>
      <point x="323" y="823"/>
      <point x="316" y="830"/>
      <point x="316" y="841" type="curve"/>
      <point x="341" y="841"/>
      <point x="329" y="841"/>
    </contour>
    <contour>
      <point x="480" y="841" type="curve"/>
      <point x="480" y="853"/>
      <point x="473" y="859"/>
      <point x="461" y="859" type="curve"/>
      <point x="449" y="859"/>
      <point x="442" y="852"/>
      <point x="442" y="841" type="curve"/>
      <point x="468" y="841"/>
      <point x="455" y="841"/>
      <point x="480" y="841" type="curve"/>
      <point x="480" y="830"/>
      <point x="473" y="823"/>
      <point x="461" y="823" type="curve"/>
      <point x="449" y="823"/>
      <point x="442" y="830"/>
      <point x="442" y="841" type="curve"/>
      <point x="468" y="841"/>
      <point x="455" y="841"/>
    </contour>
  </outline>
</glyph>
<glyph name="Yacute" format="1">
  <advance width="570"/>
  <unicode hex="00DD"/>
  <outline>
    <contour>
      <point x="26" y="722" type="curve"/>
      <point x="107" y="594"/>
      <point x="189" y="465"/>
      <point x="271" y="337" type="curve"/>
      <point x="299" y="337"/>
      <point x="271" y="339"/>
      <point x="299" y="339" type="curve"/>
      <point x="218" y="467"/>
      <point x="137" y="595"/>
      <point x="56" y="722" type="curve"/>
      <point x="26" y="722"/>
      <point x="55" y="722"/>
    </contour>
    <contour>
      <point x="528" y="722" type="curve"/>
      <point x="443" y="595"/>
      <point x="357" y="467"/>
      <point x="272" y="339" type="curve"/>
      <point x="299" y="339"/>
      <point x="271" y="337"/>
      <point x="299" y="337" type="curve"/>
      <point x="385" y="465"/>
      <point x="472" y="594"/>
      <point x="558" y="722" type="curve"/>
      <point x="528" y="722"/>
      <point x="558" y="722"/>
    </contour>
    <contour>
      <point x="299" y="0" type="curve"/>
      <point x="299" y="115"/>
      <point x="299" y="231"/>
      <point x="299" y="346" type="curve"/>
      <point x="271" y="346"/>
      <point x="299" y="346"/>
      <point x="271" y="346" type="curve"/>
      <point x="271" y="231"/>
      <point x="271" y="115"/>
      <point x="271" y="0" type="curve"/>
      <point x="299" y="0"/>
      <point x="271" y="0"/>
    </contour>
    <contour>
      <point x="300" y="825" type="line"/>
      <point x="440" y="991" type="line"/>
      <point x="402" y="991" type="line"/>
      <point x="272" y="825" type="line"/>
    </contour>
  </outline>
</glyph>
<glyph name="Thorn" format="1">
  <advance width="584"/>
  <unicode hex="00DE"/>
  <outline>
    <contour>
      <point x="139" y="222" type="curve"/>
      <point x="192" y="196"/>
      <point x="243" y="176"/>
      <point x="303" y="176" type="curve"/>
      <point x="441" y="179"/>
      <point x="532" y="253"/>
      <point x="532" y="390" type="curve"/>
      <point x="532" y="535"/>
      <point x="428" y="618"/>
      <point x="278" y="618" type="curve"/>
      <point x="234" y="618"/>
      <point x="189" y="618"/>
      <point x="145" y="618" type="curve"/>
      <point x="145" y="595"/>
      <point x="145" y="618"/>
      <point x="145" y="595" type="curve"/>
      <point x="188" y="595"/>
      <point x="232" y="595"/>
      <point x="275" y="595" type="curve"/>
      <point x="412" y="595"/>
      <point x="506" y="522"/>
      <point x="506" y="389" type="curve"/>
      <point x="506" y="270"/>
      <point x="426" y="200"/>
      <point x="305" y="200" type="curve"/>
      <point x="244" y="200"/>
      <point x="201" y="216"/>
      <point x="147" y="243" type="curve"/>
      <point x="139" y="222"/>
      <point x="147" y="242"/>
    </contour>
    <contour>
      <point x="153" y="0" type="curve"/>
      <point x="153" y="241"/>
      <point x="153" y="481"/>
      <point x="153" y="722" type="curve"/>
      <point x="127" y="722"/>
      <point x="153" y="722"/>
      <point x="127" y="722" type="curve"/>
      <point x="127" y="481"/>
      <point x="127" y="241"/>
      <point x="127" y="0" type="curve"/>
      <point x="153" y="0"/>
      <point x="127" y="0"/>
    </contour>
  </outline>
</glyph>
<glyph name="germandbls" format="1">
  <advance width="585"/>
  <unicode hex="00DF"/>
  <outline>
    <contour>
      <point x="133" y="0" type="curve"/>
      <point x="133" y="207"/>
      <point x="133" y="412"/>
      <point x="133" y="619" type="curve"/>
      <point x="108" y="619"/>
      <point x="133" y="619"/>
      <point x="108" y="619" type="curve"/>
      <point x="108" y="412"/>
      <point x="108" y="207"/>
      <point x="108" y="0" type="curve"/>
      <point x="133" y="0"/>
      <point x="108" y="0"/>
    </contour>
    <contour>
      <point x="133" y="619" type="curve"/>
      <point x="133" y="720"/>
      <point x="196" y="782"/>
      <point x="297" y="782" type="curve"/>
      <point x="402" y="782"/>
      <point x="475" y="729"/>
      <point x="475" y="627" type="curve"/>
      <point x="475" y="526"/>
      <point x="393" y="471"/>
      <point x="283" y="471" type="curve"/>
      <point x="283" y="453"/>
      <point x="283" y="471"/>
      <point x="283" y="453" type="curve"/>
      <point x="408" y="453"/>
      <point x="498" y="509"/>
      <point x="498" y="628" type="curve"/>
      <point x="498" y="743"/>
      <point x="419" y="804"/>
      <point x="299" y="804" type="curve"/>
      <point x="182" y="804"/>
      <point x="108" y="735"/>
      <point x="108" y="619" type="curve"/>
      <point x="133" y="619"/>
      <point x="108" y="619"/>
    </contour>
    <contour>
      <point x="383" y="87" type="curve"/>
      <point x="475" y="109"/>
      <point x="533" y="167"/>
      <point x="533" y="273" type="curve"/>
      <point x="533" y="405"/>
      <point x="435" y="471"/>
      <point x="283" y="471" type="curve"/>
      <point x="283" y="453"/>
      <point x="283" y="471"/>
      <point x="283" y="453" type="curve"/>
      <point x="401" y="453"/>
      <point x="509" y="398"/>
      <point x="509" y="272" type="curve"/>
      <point x="509" y="181"/>
      <point x="452" y="131"/>
      <point x="376" y="109" type="curve"/>
      <point x="383" y="87"/>
      <point x="376" y="109"/>
    </contour>
  </outline>
</glyph>
